var staywithme = {
  "header": {
    "formatType": 1,
    "trackCount": 3,
    "ticksPerBeat": 480
  },
  "tracks": [
    [
      {
        "deltaTime": 0,
        "type": "meta",
        "subtype": "timeSignature",
        "numerator": 4,
        "denominator": 4,
        "metronome": 24,
        "thirtyseconds": 8
      },
      {
        "deltaTime": 0,
        "type": "meta",
        "subtype": "keySignature",
        "key": 0,
        "scale": 0
      },
      {
        "deltaTime": 0,
        "type": "meta",
        "subtype": "smpteOffset",
        "frameRate": 25,
        "hour": 1,
        "min": 0,
        "sec": 0,
        "frame": 0,
        "subframe": 0
      },
      {
        "deltaTime": 0,
        "type": "meta",
        "subtype": "setTempo",
        "microsecondsPerBeat": 677411
      },
      {
        "deltaTime": 0,
        "type": "meta",
        "subtype": "endOfTrack"
      }
    ],
    [
      {
        "deltaTime": 0,
        "type": "meta",
        "subtype": "trackName",
        "text": "Steinway Grand Piano"
      },
      {
        "deltaTime": 0,
        "type": "meta",
        "subtype": "instrumentName",
        "text": "Inst 1"
      },
      {
        "deltaTime": 0,
        "channel": 0,
        "type": "channel",
        "noteNumber": 67,
        "velocity": 67,
        "subtype": "noteOn"
      },
      {
        "deltaTime": 956,
        "channel": 0,
        "type": "channel",
        "noteNumber": 67,
        "velocity": 0,
        "subtype": "noteOff"
      },
      {
        "deltaTime": 4,
        "channel": 0,
        "type": "channel",
        "noteNumber": 69,
        "velocity": 63,
        "subtype": "noteOn"
      },
      {
        "deltaTime": 716,
        "channel": 0,
        "type": "channel",
        "noteNumber": 69,
        "velocity": 0,
        "subtype": "noteOff"
      },
      {
        "deltaTime": 4,
        "channel": 0,
        "type": "channel",
        "noteNumber": 67,
        "velocity": 51,
        "subtype": "noteOn"
      },
      {
        "deltaTime": 2156,
        "channel": 0,
        "type": "channel",
        "noteNumber": 67,
        "velocity": 0,
        "subtype": "noteOff"
      },
      {
        "deltaTime": 4,
        "channel": 0,
        "type": "channel",
        "noteNumber": 67,
        "velocity": 66,
        "subtype": "noteOn"
      },
      {
        "deltaTime": 956,
        "channel": 0,
        "type": "channel",
        "noteNumber": 67,
        "velocity": 0,
        "subtype": "noteOff"
      },
      {
        "deltaTime": 4,
        "channel": 0,
        "type": "channel",
        "noteNumber": 69,
        "velocity": 65,
        "subtype": "noteOn"
      },
      {
        "deltaTime": 716,
        "channel": 0,
        "type": "channel",
        "noteNumber": 69,
        "velocity": 0,
        "subtype": "noteOff"
      },
      {
        "deltaTime": 4,
        "channel": 0,
        "type": "channel",
        "noteNumber": 67,
        "velocity": 46,
        "subtype": "noteOn"
      },
      {
        "deltaTime": 2156,
        "channel": 0,
        "type": "channel",
        "noteNumber": 67,
        "velocity": 0,
        "subtype": "noteOff"
      },
      {
        "deltaTime": 244,
        "channel": 0,
        "type": "channel",
        "noteNumber": 72,
        "velocity": 62,
        "subtype": "noteOn"
      },
      {
        "deltaTime": 116,
        "channel": 0,
        "type": "channel",
        "noteNumber": 72,
        "velocity": 0,
        "subtype": "noteOff"
      },
      {
        "deltaTime": 4,
        "channel": 0,
        "type": "channel",
        "noteNumber": 74,
        "velocity": 59,
        "subtype": "noteOn"
      },
      {
        "deltaTime": 116,
        "channel": 0,
        "type": "channel",
        "noteNumber": 74,
        "velocity": 0,
        "subtype": "noteOff"
      },
      {
        "deltaTime": 4,
        "channel": 0,
        "type": "channel",
        "noteNumber": 76,
        "velocity": 59,
        "subtype": "noteOn"
      },
      {
        "deltaTime": 236,
        "channel": 0,
        "type": "channel",
        "noteNumber": 76,
        "velocity": 0,
        "subtype": "noteOff"
      },
      {
        "deltaTime": 4,
        "channel": 0,
        "type": "channel",
        "noteNumber": 72,
        "velocity": 58,
        "subtype": "noteOn"
      },
      {
        "deltaTime": 116,
        "channel": 0,
        "type": "channel",
        "noteNumber": 72,
        "velocity": 0,
        "subtype": "noteOff"
      },
      {
        "deltaTime": 4,
        "channel": 0,
        "type": "channel",
        "noteNumber": 74,
        "velocity": 59,
        "subtype": "noteOn"
      },
      {
        "deltaTime": 116,
        "channel": 0,
        "type": "channel",
        "noteNumber": 74,
        "velocity": 0,
        "subtype": "noteOff"
      },
      {
        "deltaTime": 4,
        "channel": 0,
        "type": "channel",
        "noteNumber": 76,
        "velocity": 57,
        "subtype": "noteOn"
      },
      {
        "deltaTime": 236,
        "channel": 0,
        "type": "channel",
        "noteNumber": 76,
        "velocity": 0,
        "subtype": "noteOff"
      },
      {
        "deltaTime": 4,
        "channel": 0,
        "type": "channel",
        "noteNumber": 72,
        "velocity": 56,
        "subtype": "noteOn"
      },
      {
        "deltaTime": 116,
        "channel": 0,
        "type": "channel",
        "noteNumber": 72,
        "velocity": 0,
        "subtype": "noteOff"
      },
      {
        "deltaTime": 4,
        "channel": 0,
        "type": "channel",
        "noteNumber": 74,
        "velocity": 57,
        "subtype": "noteOn"
      },
      {
        "deltaTime": 116,
        "channel": 0,
        "type": "channel",
        "noteNumber": 74,
        "velocity": 0,
        "subtype": "noteOff"
      },
      {
        "deltaTime": 4,
        "channel": 0,
        "type": "channel",
        "noteNumber": 76,
        "velocity": 52,
        "subtype": "noteOn"
      },
      {
        "deltaTime": 236,
        "channel": 0,
        "type": "channel",
        "noteNumber": 76,
        "velocity": 0,
        "subtype": "noteOff"
      },
      {
        "deltaTime": 4,
        "channel": 0,
        "type": "channel",
        "noteNumber": 72,
        "velocity": 63,
        "subtype": "noteOn"
      },
      {
        "deltaTime": 236,
        "channel": 0,
        "type": "channel",
        "noteNumber": 72,
        "velocity": 0,
        "subtype": "noteOff"
      },
      {
        "deltaTime": 4,
        "channel": 0,
        "type": "channel",
        "noteNumber": 72,
        "velocity": 68,
        "subtype": "noteOn"
      },
      {
        "deltaTime": 960,
        "channel": 0,
        "type": "channel",
        "noteNumber": 72,
        "velocity": 0,
        "subtype": "noteOff"
      },
      {
        "deltaTime": 1200,
        "channel": 0,
        "type": "channel",
        "noteNumber": 72,
        "velocity": 61,
        "subtype": "noteOn"
      },
      {
        "deltaTime": 116,
        "channel": 0,
        "type": "channel",
        "noteNumber": 72,
        "velocity": 0,
        "subtype": "noteOff"
      },
      {
        "deltaTime": 4,
        "channel": 0,
        "type": "channel",
        "noteNumber": 74,
        "velocity": 57,
        "subtype": "noteOn"
      },
      {
        "deltaTime": 116,
        "channel": 0,
        "type": "channel",
        "noteNumber": 74,
        "velocity": 0,
        "subtype": "noteOff"
      },
      {
        "deltaTime": 4,
        "channel": 0,
        "type": "channel",
        "noteNumber": 76,
        "velocity": 57,
        "subtype": "noteOn"
      },
      {
        "deltaTime": 236,
        "channel": 0,
        "type": "channel",
        "noteNumber": 76,
        "velocity": 0,
        "subtype": "noteOff"
      },
      {
        "deltaTime": 4,
        "channel": 0,
        "type": "channel",
        "noteNumber": 72,
        "velocity": 55,
        "subtype": "noteOn"
      },
      {
        "deltaTime": 236,
        "channel": 0,
        "type": "channel",
        "noteNumber": 72,
        "velocity": 0,
        "subtype": "noteOff"
      },
      {
        "deltaTime": 4,
        "channel": 0,
        "type": "channel",
        "noteNumber": 76,
        "velocity": 58,
        "subtype": "noteOn"
      },
      {
        "deltaTime": 236,
        "channel": 0,
        "type": "channel",
        "noteNumber": 76,
        "velocity": 0,
        "subtype": "noteOff"
      },
      {
        "deltaTime": 4,
        "channel": 0,
        "type": "channel",
        "noteNumber": 72,
        "velocity": 57,
        "subtype": "noteOn"
      },
      {
        "deltaTime": 116,
        "channel": 0,
        "type": "channel",
        "noteNumber": 72,
        "velocity": 0,
        "subtype": "noteOff"
      },
      {
        "deltaTime": 4,
        "channel": 0,
        "type": "channel",
        "noteNumber": 74,
        "velocity": 58,
        "subtype": "noteOn"
      },
      {
        "deltaTime": 116,
        "channel": 0,
        "type": "channel",
        "noteNumber": 74,
        "velocity": 0,
        "subtype": "noteOff"
      },
      {
        "deltaTime": 4,
        "channel": 0,
        "type": "channel",
        "noteNumber": 76,
        "velocity": 51,
        "subtype": "noteOn"
      },
      {
        "deltaTime": 356,
        "channel": 0,
        "type": "channel",
        "noteNumber": 76,
        "velocity": 0,
        "subtype": "noteOff"
      },
      {
        "deltaTime": 4,
        "channel": 0,
        "type": "channel",
        "noteNumber": 79,
        "velocity": 57,
        "subtype": "noteOn"
      },
      {
        "deltaTime": 116,
        "channel": 0,
        "type": "channel",
        "noteNumber": 79,
        "velocity": 0,
        "subtype": "noteOff"
      },
      {
        "deltaTime": 4,
        "channel": 0,
        "type": "channel",
        "noteNumber": 76,
        "velocity": 57,
        "subtype": "noteOn"
      },
      {
        "deltaTime": 1916,
        "channel": 0,
        "type": "channel",
        "noteNumber": 76,
        "velocity": 0,
        "subtype": "noteOff"
      },
      {
        "deltaTime": 244,
        "channel": 0,
        "type": "channel",
        "noteNumber": 81,
        "velocity": 65,
        "subtype": "noteOn"
      },
      {
        "deltaTime": 236,
        "channel": 0,
        "type": "channel",
        "noteNumber": 81,
        "velocity": 0,
        "subtype": "noteOff"
      },
      {
        "deltaTime": 4,
        "channel": 0,
        "type": "channel",
        "noteNumber": 79,
        "velocity": 59,
        "subtype": "noteOn"
      },
      {
        "deltaTime": 236,
        "channel": 0,
        "type": "channel",
        "noteNumber": 79,
        "velocity": 0,
        "subtype": "noteOff"
      },
      {
        "deltaTime": 4,
        "channel": 0,
        "type": "channel",
        "noteNumber": 76,
        "velocity": 51,
        "subtype": "noteOn"
      },
      {
        "deltaTime": 116,
        "channel": 0,
        "type": "channel",
        "noteNumber": 76,
        "velocity": 0,
        "subtype": "noteOff"
      },
      {
        "deltaTime": 4,
        "channel": 0,
        "type": "channel",
        "noteNumber": 74,
        "velocity": 55,
        "subtype": "noteOn"
      },
      {
        "deltaTime": 116,
        "channel": 0,
        "type": "channel",
        "noteNumber": 74,
        "velocity": 0,
        "subtype": "noteOff"
      },
      {
        "deltaTime": 4,
        "channel": 0,
        "type": "channel",
        "noteNumber": 74,
        "velocity": 58,
        "subtype": "noteOn"
      },
      {
        "deltaTime": 236,
        "channel": 0,
        "type": "channel",
        "noteNumber": 74,
        "velocity": 0,
        "subtype": "noteOff"
      },
      {
        "deltaTime": 4,
        "channel": 0,
        "type": "channel",
        "noteNumber": 72,
        "velocity": 55,
        "subtype": "noteOn"
      },
      {
        "deltaTime": 236,
        "channel": 0,
        "type": "channel",
        "noteNumber": 72,
        "velocity": 0,
        "subtype": "noteOff"
      },
      {
        "deltaTime": 4,
        "channel": 0,
        "type": "channel",
        "noteNumber": 72,
        "velocity": 63,
        "subtype": "noteOn"
      },
      {
        "deltaTime": 240,
        "channel": 0,
        "type": "channel",
        "noteNumber": 65,
        "velocity": 46,
        "subtype": "noteOn"
      },
      {
        "deltaTime": 0,
        "channel": 0,
        "type": "channel",
        "noteNumber": 72,
        "velocity": 0,
        "subtype": "noteOff"
      },
      {
        "deltaTime": 116,
        "channel": 0,
        "type": "channel",
        "noteNumber": 65,
        "velocity": 0,
        "subtype": "noteOff"
      },
      {
        "deltaTime": 4,
        "channel": 0,
        "type": "channel",
        "noteNumber": 64,
        "velocity": 51,
        "subtype": "noteOn"
      },
      {
        "deltaTime": 2040,
        "channel": 0,
        "type": "channel",
        "noteNumber": 64,
        "velocity": 0,
        "subtype": "noteOff"
      },
      {
        "deltaTime": 240,
        "channel": 0,
        "type": "channel",
        "noteNumber": 72,
        "velocity": 62,
        "subtype": "noteOn"
      },
      {
        "deltaTime": 116,
        "channel": 0,
        "type": "channel",
        "noteNumber": 72,
        "velocity": 0,
        "subtype": "noteOff"
      },
      {
        "deltaTime": 4,
        "channel": 0,
        "type": "channel",
        "noteNumber": 74,
        "velocity": 59,
        "subtype": "noteOn"
      },
      {
        "deltaTime": 116,
        "channel": 0,
        "type": "channel",
        "noteNumber": 74,
        "velocity": 0,
        "subtype": "noteOff"
      },
      {
        "deltaTime": 4,
        "channel": 0,
        "type": "channel",
        "noteNumber": 76,
        "velocity": 59,
        "subtype": "noteOn"
      },
      {
        "deltaTime": 236,
        "channel": 0,
        "type": "channel",
        "noteNumber": 76,
        "velocity": 0,
        "subtype": "noteOff"
      },
      {
        "deltaTime": 4,
        "channel": 0,
        "type": "channel",
        "noteNumber": 72,
        "velocity": 58,
        "subtype": "noteOn"
      },
      {
        "deltaTime": 116,
        "channel": 0,
        "type": "channel",
        "noteNumber": 72,
        "velocity": 0,
        "subtype": "noteOff"
      },
      {
        "deltaTime": 4,
        "channel": 0,
        "type": "channel",
        "noteNumber": 74,
        "velocity": 59,
        "subtype": "noteOn"
      },
      {
        "deltaTime": 116,
        "channel": 0,
        "type": "channel",
        "noteNumber": 74,
        "velocity": 0,
        "subtype": "noteOff"
      },
      {
        "deltaTime": 4,
        "channel": 0,
        "type": "channel",
        "noteNumber": 76,
        "velocity": 57,
        "subtype": "noteOn"
      },
      {
        "deltaTime": 236,
        "channel": 0,
        "type": "channel",
        "noteNumber": 76,
        "velocity": 0,
        "subtype": "noteOff"
      },
      {
        "deltaTime": 4,
        "channel": 0,
        "type": "channel",
        "noteNumber": 72,
        "velocity": 56,
        "subtype": "noteOn"
      },
      {
        "deltaTime": 116,
        "channel": 0,
        "type": "channel",
        "noteNumber": 72,
        "velocity": 0,
        "subtype": "noteOff"
      },
      {
        "deltaTime": 4,
        "channel": 0,
        "type": "channel",
        "noteNumber": 74,
        "velocity": 57,
        "subtype": "noteOn"
      },
      {
        "deltaTime": 116,
        "channel": 0,
        "type": "channel",
        "noteNumber": 74,
        "velocity": 0,
        "subtype": "noteOff"
      },
      {
        "deltaTime": 4,
        "channel": 0,
        "type": "channel",
        "noteNumber": 76,
        "velocity": 52,
        "subtype": "noteOn"
      },
      {
        "deltaTime": 236,
        "channel": 0,
        "type": "channel",
        "noteNumber": 76,
        "velocity": 0,
        "subtype": "noteOff"
      },
      {
        "deltaTime": 4,
        "channel": 0,
        "type": "channel",
        "noteNumber": 72,
        "velocity": 63,
        "subtype": "noteOn"
      },
      {
        "deltaTime": 236,
        "channel": 0,
        "type": "channel",
        "noteNumber": 72,
        "velocity": 0,
        "subtype": "noteOff"
      },
      {
        "deltaTime": 4,
        "channel": 0,
        "type": "channel",
        "noteNumber": 72,
        "velocity": 68,
        "subtype": "noteOn"
      },
      {
        "deltaTime": 960,
        "channel": 0,
        "type": "channel",
        "noteNumber": 72,
        "velocity": 0,
        "subtype": "noteOff"
      },
      {
        "deltaTime": 240,
        "channel": 0,
        "type": "channel",
        "noteNumber": 72,
        "velocity": 69,
        "subtype": "noteOn"
      },
      {
        "deltaTime": 236,
        "channel": 0,
        "type": "channel",
        "noteNumber": 72,
        "velocity": 0,
        "subtype": "noteOff"
      },
      {
        "deltaTime": 4,
        "channel": 0,
        "type": "channel",
        "noteNumber": 76,
        "velocity": 63,
        "subtype": "noteOn"
      },
      {
        "deltaTime": 236,
        "channel": 0,
        "type": "channel",
        "noteNumber": 76,
        "velocity": 0,
        "subtype": "noteOff"
      },
      {
        "deltaTime": 4,
        "channel": 0,
        "type": "channel",
        "noteNumber": 79,
        "velocity": 63,
        "subtype": "noteOn"
      },
      {
        "deltaTime": 716,
        "channel": 0,
        "type": "channel",
        "noteNumber": 79,
        "velocity": 0,
        "subtype": "noteOff"
      },
      {
        "deltaTime": 4,
        "channel": 0,
        "type": "channel",
        "noteNumber": 81,
        "velocity": 65,
        "subtype": "noteOn"
      },
      {
        "deltaTime": 716,
        "channel": 0,
        "type": "channel",
        "noteNumber": 81,
        "velocity": 0,
        "subtype": "noteOff"
      },
      {
        "deltaTime": 4,
        "channel": 0,
        "type": "channel",
        "noteNumber": 79,
        "velocity": 63,
        "subtype": "noteOn"
      },
      {
        "deltaTime": 476,
        "channel": 0,
        "type": "channel",
        "noteNumber": 79,
        "velocity": 0,
        "subtype": "noteOff"
      },
      {
        "deltaTime": 4,
        "channel": 0,
        "type": "channel",
        "noteNumber": 76,
        "velocity": 62,
        "subtype": "noteOn"
      },
      {
        "deltaTime": 1676,
        "channel": 0,
        "type": "channel",
        "noteNumber": 76,
        "velocity": 0,
        "subtype": "noteOff"
      },
      {
        "deltaTime": 4,
        "channel": 0,
        "type": "channel",
        "noteNumber": 72,
        "velocity": 64,
        "subtype": "noteOn"
      },
      {
        "deltaTime": 236,
        "channel": 0,
        "type": "channel",
        "noteNumber": 72,
        "velocity": 0,
        "subtype": "noteOff"
      },
      {
        "deltaTime": 4,
        "channel": 0,
        "type": "channel",
        "noteNumber": 74,
        "velocity": 61,
        "subtype": "noteOn"
      },
      {
        "deltaTime": 716,
        "channel": 0,
        "type": "channel",
        "noteNumber": 74,
        "velocity": 0,
        "subtype": "noteOff"
      },
      {
        "deltaTime": 4,
        "channel": 0,
        "type": "channel",
        "noteNumber": 76,
        "velocity": 68,
        "subtype": "noteOn"
      },
      {
        "deltaTime": 716,
        "channel": 0,
        "type": "channel",
        "noteNumber": 76,
        "velocity": 0,
        "subtype": "noteOff"
      },
      {
        "deltaTime": 4,
        "channel": 0,
        "type": "channel",
        "noteNumber": 72,
        "velocity": 66,
        "subtype": "noteOn"
      },
      {
        "deltaTime": 476,
        "channel": 0,
        "type": "channel",
        "noteNumber": 72,
        "velocity": 0,
        "subtype": "noteOff"
      },
      {
        "deltaTime": 4,
        "channel": 0,
        "type": "channel",
        "noteNumber": 72,
        "velocity": 69,
        "subtype": "noteOn"
      },
      {
        "deltaTime": 1676,
        "channel": 0,
        "type": "channel",
        "noteNumber": 72,
        "velocity": 0,
        "subtype": "noteOff"
      },
      {
        "deltaTime": 4,
        "channel": 0,
        "type": "channel",
        "noteNumber": 76,
        "velocity": 61,
        "subtype": "noteOn"
      },
      {
        "deltaTime": 236,
        "channel": 0,
        "type": "channel",
        "noteNumber": 76,
        "velocity": 0,
        "subtype": "noteOff"
      },
      {
        "deltaTime": 4,
        "channel": 0,
        "type": "channel",
        "noteNumber": 79,
        "velocity": 62,
        "subtype": "noteOn"
      },
      {
        "deltaTime": 476,
        "channel": 0,
        "type": "channel",
        "noteNumber": 79,
        "velocity": 0,
        "subtype": "noteOff"
      },
      {
        "deltaTime": 4,
        "channel": 0,
        "type": "channel",
        "noteNumber": 81,
        "velocity": 67,
        "subtype": "noteOn"
      },
      {
        "deltaTime": 476,
        "channel": 0,
        "type": "channel",
        "noteNumber": 81,
        "velocity": 0,
        "subtype": "noteOff"
      },
      {
        "deltaTime": 4,
        "channel": 0,
        "type": "channel",
        "noteNumber": 83,
        "velocity": 69,
        "subtype": "noteOn"
      },
      {
        "deltaTime": 236,
        "channel": 0,
        "type": "channel",
        "noteNumber": 83,
        "velocity": 0,
        "subtype": "noteOff"
      },
      {
        "deltaTime": 4,
        "channel": 0,
        "type": "channel",
        "noteNumber": 81,
        "velocity": 70,
        "subtype": "noteOn"
      },
      {
        "deltaTime": 356,
        "channel": 0,
        "type": "channel",
        "noteNumber": 81,
        "velocity": 0,
        "subtype": "noteOff"
      },
      {
        "deltaTime": 4,
        "channel": 0,
        "type": "channel",
        "noteNumber": 79,
        "velocity": 69,
        "subtype": "noteOn"
      },
      {
        "deltaTime": 356,
        "channel": 0,
        "type": "channel",
        "noteNumber": 79,
        "velocity": 0,
        "subtype": "noteOff"
      },
      {
        "deltaTime": 4,
        "channel": 0,
        "type": "channel",
        "noteNumber": 76,
        "velocity": 65,
        "subtype": "noteOn"
      },
      {
        "deltaTime": 356,
        "channel": 0,
        "type": "channel",
        "noteNumber": 76,
        "velocity": 0,
        "subtype": "noteOff"
      },
      {
        "deltaTime": 4,
        "channel": 0,
        "type": "channel",
        "noteNumber": 74,
        "velocity": 56,
        "subtype": "noteOn"
      },
      {
        "deltaTime": 116,
        "channel": 0,
        "type": "channel",
        "noteNumber": 74,
        "velocity": 0,
        "subtype": "noteOff"
      },
      {
        "deltaTime": 4,
        "channel": 0,
        "type": "channel",
        "noteNumber": 72,
        "velocity": 68,
        "subtype": "noteOn"
      },
      {
        "deltaTime": 960,
        "channel": 0,
        "type": "channel",
        "noteNumber": 72,
        "velocity": 0,
        "subtype": "noteOff"
      },
      {
        "deltaTime": 0,
        "channel": 0,
        "type": "channel",
        "noteNumber": 72,
        "velocity": 48,
        "subtype": "noteOn"
      },
      {
        "deltaTime": 236,
        "channel": 0,
        "type": "channel",
        "noteNumber": 72,
        "velocity": 0,
        "subtype": "noteOff"
      },
      {
        "deltaTime": 4,
        "channel": 0,
        "type": "channel",
        "noteNumber": 72,
        "velocity": 63,
        "subtype": "noteOn"
      },
      {
        "deltaTime": 236,
        "channel": 0,
        "type": "channel",
        "noteNumber": 72,
        "velocity": 0,
        "subtype": "noteOff"
      },
      {
        "deltaTime": 4,
        "channel": 0,
        "type": "channel",
        "noteNumber": 74,
        "velocity": 61,
        "subtype": "noteOn"
      },
      {
        "deltaTime": 716,
        "channel": 0,
        "type": "channel",
        "noteNumber": 74,
        "velocity": 0,
        "subtype": "noteOff"
      },
      {
        "deltaTime": 4,
        "channel": 0,
        "type": "channel",
        "noteNumber": 76,
        "velocity": 61,
        "subtype": "noteOn"
      },
      {
        "deltaTime": 716,
        "channel": 0,
        "type": "channel",
        "noteNumber": 76,
        "velocity": 0,
        "subtype": "noteOff"
      },
      {
        "deltaTime": 4,
        "channel": 0,
        "type": "channel",
        "noteNumber": 72,
        "velocity": 63,
        "subtype": "noteOn"
      },
      {
        "deltaTime": 476,
        "channel": 0,
        "type": "channel",
        "noteNumber": 72,
        "velocity": 0,
        "subtype": "noteOff"
      },
      {
        "deltaTime": 4,
        "channel": 0,
        "type": "channel",
        "noteNumber": 72,
        "velocity": 65,
        "subtype": "noteOn"
      },
      {
        "deltaTime": 2156,
        "channel": 0,
        "type": "channel",
        "noteNumber": 72,
        "velocity": 0,
        "subtype": "noteOff"
      },
      {
        "deltaTime": 724,
        "channel": 0,
        "type": "channel",
        "noteNumber": 72,
        "velocity": 61,
        "subtype": "noteOn"
      },
      {
        "deltaTime": 116,
        "channel": 0,
        "type": "channel",
        "noteNumber": 72,
        "velocity": 0,
        "subtype": "noteOff"
      },
      {
        "deltaTime": 4,
        "channel": 0,
        "type": "channel",
        "noteNumber": 74,
        "velocity": 55,
        "subtype": "noteOn"
      },
      {
        "deltaTime": 116,
        "channel": 0,
        "type": "channel",
        "noteNumber": 74,
        "velocity": 0,
        "subtype": "noteOff"
      },
      {
        "deltaTime": 4,
        "channel": 0,
        "type": "channel",
        "noteNumber": 76,
        "velocity": 59,
        "subtype": "noteOn"
      },
      {
        "deltaTime": 236,
        "channel": 0,
        "type": "channel",
        "noteNumber": 76,
        "velocity": 0,
        "subtype": "noteOff"
      },
      {
        "deltaTime": 4,
        "channel": 0,
        "type": "channel",
        "noteNumber": 72,
        "velocity": 60,
        "subtype": "noteOn"
      },
      {
        "deltaTime": 116,
        "channel": 0,
        "type": "channel",
        "noteNumber": 72,
        "velocity": 0,
        "subtype": "noteOff"
      },
      {
        "deltaTime": 4,
        "channel": 0,
        "type": "channel",
        "noteNumber": 74,
        "velocity": 61,
        "subtype": "noteOn"
      },
      {
        "deltaTime": 116,
        "channel": 0,
        "type": "channel",
        "noteNumber": 74,
        "velocity": 0,
        "subtype": "noteOff"
      },
      {
        "deltaTime": 4,
        "channel": 0,
        "type": "channel",
        "noteNumber": 76,
        "velocity": 59,
        "subtype": "noteOn"
      },
      {
        "deltaTime": 236,
        "channel": 0,
        "type": "channel",
        "noteNumber": 76,
        "velocity": 0,
        "subtype": "noteOff"
      },
      {
        "deltaTime": 4,
        "channel": 0,
        "type": "channel",
        "noteNumber": 72,
        "velocity": 61,
        "subtype": "noteOn"
      },
      {
        "deltaTime": 116,
        "channel": 0,
        "type": "channel",
        "noteNumber": 72,
        "velocity": 0,
        "subtype": "noteOff"
      },
      {
        "deltaTime": 4,
        "channel": 0,
        "type": "channel",
        "noteNumber": 72,
        "velocity": 68,
        "subtype": "noteOn"
      },
      {
        "deltaTime": 2040,
        "channel": 0,
        "type": "channel",
        "noteNumber": 72,
        "velocity": 0,
        "subtype": "noteOff"
      },
      {
        "deltaTime": 240,
        "channel": 0,
        "type": "channel",
        "noteNumber": 72,
        "velocity": 56,
        "subtype": "noteOn"
      },
      {
        "deltaTime": 116,
        "channel": 0,
        "type": "channel",
        "noteNumber": 72,
        "velocity": 0,
        "subtype": "noteOff"
      },
      {
        "deltaTime": 4,
        "channel": 0,
        "type": "channel",
        "noteNumber": 74,
        "velocity": 61,
        "subtype": "noteOn"
      },
      {
        "deltaTime": 116,
        "channel": 0,
        "type": "channel",
        "noteNumber": 74,
        "velocity": 0,
        "subtype": "noteOff"
      },
      {
        "deltaTime": 4,
        "channel": 0,
        "type": "channel",
        "noteNumber": 76,
        "velocity": 59,
        "subtype": "noteOn"
      },
      {
        "deltaTime": 116,
        "channel": 0,
        "type": "channel",
        "noteNumber": 76,
        "velocity": 0,
        "subtype": "noteOff"
      },
      {
        "deltaTime": 4,
        "channel": 0,
        "type": "channel",
        "noteNumber": 74,
        "velocity": 52,
        "subtype": "noteOn"
      },
      {
        "deltaTime": 116,
        "channel": 0,
        "type": "channel",
        "noteNumber": 74,
        "velocity": 0,
        "subtype": "noteOff"
      },
      {
        "deltaTime": 4,
        "channel": 0,
        "type": "channel",
        "noteNumber": 72,
        "velocity": 59,
        "subtype": "noteOn"
      },
      {
        "deltaTime": 236,
        "channel": 0,
        "type": "channel",
        "noteNumber": 72,
        "velocity": 0,
        "subtype": "noteOff"
      },
      {
        "deltaTime": 4,
        "channel": 0,
        "type": "channel",
        "noteNumber": 76,
        "velocity": 59,
        "subtype": "noteOn"
      },
      {
        "deltaTime": 236,
        "channel": 0,
        "type": "channel",
        "noteNumber": 76,
        "velocity": 0,
        "subtype": "noteOff"
      },
      {
        "deltaTime": 4,
        "channel": 0,
        "type": "channel",
        "noteNumber": 72,
        "velocity": 61,
        "subtype": "noteOn"
      },
      {
        "deltaTime": 116,
        "channel": 0,
        "type": "channel",
        "noteNumber": 72,
        "velocity": 0,
        "subtype": "noteOff"
      },
      {
        "deltaTime": 4,
        "channel": 0,
        "type": "channel",
        "noteNumber": 74,
        "velocity": 58,
        "subtype": "noteOn"
      },
      {
        "deltaTime": 116,
        "channel": 0,
        "type": "channel",
        "noteNumber": 74,
        "velocity": 0,
        "subtype": "noteOff"
      },
      {
        "deltaTime": 4,
        "channel": 0,
        "type": "channel",
        "noteNumber": 76,
        "velocity": 61,
        "subtype": "noteOn"
      },
      {
        "deltaTime": 360,
        "channel": 0,
        "type": "channel",
        "noteNumber": 76,
        "velocity": 0,
        "subtype": "noteOff"
      },
      {
        "deltaTime": 0,
        "channel": 0,
        "type": "channel",
        "noteNumber": 79,
        "velocity": 59,
        "subtype": "noteOn"
      },
      {
        "deltaTime": 116,
        "channel": 0,
        "type": "channel",
        "noteNumber": 79,
        "velocity": 0,
        "subtype": "noteOff"
      },
      {
        "deltaTime": 4,
        "channel": 0,
        "type": "channel",
        "noteNumber": 76,
        "velocity": 59,
        "subtype": "noteOn"
      },
      {
        "deltaTime": 2036,
        "channel": 0,
        "type": "channel",
        "noteNumber": 76,
        "velocity": 0,
        "subtype": "noteOff"
      },
      {
        "deltaTime": 124,
        "channel": 0,
        "type": "channel",
        "noteNumber": 84,
        "velocity": 70,
        "subtype": "noteOn"
      },
      {
        "deltaTime": 236,
        "channel": 0,
        "type": "channel",
        "noteNumber": 84,
        "velocity": 0,
        "subtype": "noteOff"
      },
      {
        "deltaTime": 4,
        "channel": 0,
        "type": "channel",
        "noteNumber": 83,
        "velocity": 61,
        "subtype": "noteOn"
      },
      {
        "deltaTime": 236,
        "channel": 0,
        "type": "channel",
        "noteNumber": 83,
        "velocity": 0,
        "subtype": "noteOff"
      },
      {
        "deltaTime": 4,
        "channel": 0,
        "type": "channel",
        "noteNumber": 81,
        "velocity": 38,
        "subtype": "noteOn"
      },
      {
        "deltaTime": 116,
        "channel": 0,
        "type": "channel",
        "noteNumber": 81,
        "velocity": 0,
        "subtype": "noteOff"
      },
      {
        "deltaTime": 4,
        "channel": 0,
        "type": "channel",
        "noteNumber": 79,
        "velocity": 51,
        "subtype": "noteOn"
      },
      {
        "deltaTime": 116,
        "channel": 0,
        "type": "channel",
        "noteNumber": 79,
        "velocity": 0,
        "subtype": "noteOff"
      },
      {
        "deltaTime": 4,
        "channel": 0,
        "type": "channel",
        "noteNumber": 79,
        "velocity": 61,
        "subtype": "noteOn"
      },
      {
        "deltaTime": 236,
        "channel": 0,
        "type": "channel",
        "noteNumber": 79,
        "velocity": 0,
        "subtype": "noteOff"
      },
      {
        "deltaTime": 4,
        "channel": 0,
        "type": "channel",
        "noteNumber": 76,
        "velocity": 61,
        "subtype": "noteOn"
      },
      {
        "deltaTime": 236,
        "channel": 0,
        "type": "channel",
        "noteNumber": 76,
        "velocity": 0,
        "subtype": "noteOff"
      },
      {
        "deltaTime": 4,
        "channel": 0,
        "type": "channel",
        "noteNumber": 77,
        "velocity": 61,
        "subtype": "noteOn"
      },
      {
        "deltaTime": 236,
        "channel": 0,
        "type": "channel",
        "noteNumber": 77,
        "velocity": 0,
        "subtype": "noteOff"
      },
      {
        "deltaTime": 4,
        "channel": 0,
        "type": "channel",
        "noteNumber": 76,
        "velocity": 54,
        "subtype": "noteOn"
      },
      {
        "deltaTime": 116,
        "channel": 0,
        "type": "channel",
        "noteNumber": 76,
        "velocity": 0,
        "subtype": "noteOff"
      },
      {
        "deltaTime": 4,
        "channel": 0,
        "type": "channel",
        "noteNumber": 77,
        "velocity": 65,
        "subtype": "noteOn"
      },
      {
        "deltaTime": 116,
        "channel": 0,
        "type": "channel",
        "noteNumber": 77,
        "velocity": 0,
        "subtype": "noteOff"
      },
      {
        "deltaTime": 4,
        "channel": 0,
        "type": "channel",
        "noteNumber": 76,
        "velocity": 64,
        "subtype": "noteOn"
      },
      {
        "deltaTime": 236,
        "channel": 0,
        "type": "channel",
        "noteNumber": 76,
        "velocity": 0,
        "subtype": "noteOff"
      },
      {
        "deltaTime": 4,
        "channel": 0,
        "type": "channel",
        "noteNumber": 74,
        "velocity": 45,
        "subtype": "noteOn"
      },
      {
        "deltaTime": 120,
        "channel": 0,
        "type": "channel",
        "noteNumber": 72,
        "velocity": 57,
        "subtype": "noteOn"
      },
      {
        "deltaTime": 0,
        "channel": 0,
        "type": "channel",
        "noteNumber": 74,
        "velocity": 0,
        "subtype": "noteOff"
      },
      {
        "deltaTime": 1556,
        "channel": 0,
        "type": "channel",
        "noteNumber": 72,
        "velocity": 0,
        "subtype": "noteOff"
      },
      {
        "deltaTime": 124,
        "channel": 0,
        "type": "channel",
        "noteNumber": 72,
        "velocity": 68,
        "subtype": "noteOn"
      },
      {
        "deltaTime": 116,
        "channel": 0,
        "type": "channel",
        "noteNumber": 72,
        "velocity": 0,
        "subtype": "noteOff"
      },
      {
        "deltaTime": 4,
        "channel": 0,
        "type": "channel",
        "noteNumber": 72,
        "velocity": 72,
        "subtype": "noteOn"
      },
      {
        "deltaTime": 116,
        "channel": 0,
        "type": "channel",
        "noteNumber": 72,
        "velocity": 0,
        "subtype": "noteOff"
      },
      {
        "deltaTime": 4,
        "channel": 0,
        "type": "channel",
        "noteNumber": 74,
        "velocity": 64,
        "subtype": "noteOn"
      },
      {
        "deltaTime": 116,
        "channel": 0,
        "type": "channel",
        "noteNumber": 74,
        "velocity": 0,
        "subtype": "noteOff"
      },
      {
        "deltaTime": 4,
        "channel": 0,
        "type": "channel",
        "noteNumber": 76,
        "velocity": 62,
        "subtype": "noteOn"
      },
      {
        "deltaTime": 236,
        "channel": 0,
        "type": "channel",
        "noteNumber": 76,
        "velocity": 0,
        "subtype": "noteOff"
      },
      {
        "deltaTime": 4,
        "channel": 0,
        "type": "channel",
        "noteNumber": 72,
        "velocity": 58,
        "subtype": "noteOn"
      },
      {
        "deltaTime": 236,
        "channel": 0,
        "type": "channel",
        "noteNumber": 72,
        "velocity": 0,
        "subtype": "noteOff"
      },
      {
        "deltaTime": 4,
        "channel": 0,
        "type": "channel",
        "noteNumber": 76,
        "velocity": 64,
        "subtype": "noteOn"
      },
      {
        "deltaTime": 236,
        "channel": 0,
        "type": "channel",
        "noteNumber": 76,
        "velocity": 0,
        "subtype": "noteOff"
      },
      {
        "deltaTime": 4,
        "channel": 0,
        "type": "channel",
        "noteNumber": 72,
        "velocity": 52,
        "subtype": "noteOn"
      },
      {
        "deltaTime": 116,
        "channel": 0,
        "type": "channel",
        "noteNumber": 72,
        "velocity": 0,
        "subtype": "noteOff"
      },
      {
        "deltaTime": 4,
        "channel": 0,
        "type": "channel",
        "noteNumber": 74,
        "velocity": 55,
        "subtype": "noteOn"
      },
      {
        "deltaTime": 116,
        "channel": 0,
        "type": "channel",
        "noteNumber": 74,
        "velocity": 0,
        "subtype": "noteOff"
      },
      {
        "deltaTime": 4,
        "channel": 0,
        "type": "channel",
        "noteNumber": 76,
        "velocity": 64,
        "subtype": "noteOn"
      },
      {
        "deltaTime": 236,
        "channel": 0,
        "type": "channel",
        "noteNumber": 76,
        "velocity": 0,
        "subtype": "noteOff"
      },
      {
        "deltaTime": 4,
        "channel": 0,
        "type": "channel",
        "noteNumber": 72,
        "velocity": 54,
        "subtype": "noteOn"
      },
      {
        "deltaTime": 116,
        "channel": 0,
        "type": "channel",
        "noteNumber": 72,
        "velocity": 0,
        "subtype": "noteOff"
      },
      {
        "deltaTime": 4,
        "channel": 0,
        "type": "channel",
        "noteNumber": 72,
        "velocity": 70,
        "subtype": "noteOn"
      },
      {
        "deltaTime": 1080,
        "channel": 0,
        "type": "channel",
        "noteNumber": 72,
        "velocity": 0,
        "subtype": "noteOff"
      },
      {
        "deltaTime": 240,
        "channel": 0,
        "type": "channel",
        "noteNumber": 72,
        "velocity": 69,
        "subtype": "noteOn"
      },
      {
        "deltaTime": 236,
        "channel": 0,
        "type": "channel",
        "noteNumber": 72,
        "velocity": 0,
        "subtype": "noteOff"
      },
      {
        "deltaTime": 4,
        "channel": 0,
        "type": "channel",
        "noteNumber": 76,
        "velocity": 63,
        "subtype": "noteOn"
      },
      {
        "deltaTime": 236,
        "channel": 0,
        "type": "channel",
        "noteNumber": 76,
        "velocity": 0,
        "subtype": "noteOff"
      },
      {
        "deltaTime": 4,
        "channel": 0,
        "type": "channel",
        "noteNumber": 79,
        "velocity": 63,
        "subtype": "noteOn"
      },
      {
        "deltaTime": 716,
        "channel": 0,
        "type": "channel",
        "noteNumber": 79,
        "velocity": 0,
        "subtype": "noteOff"
      },
      {
        "deltaTime": 4,
        "channel": 0,
        "type": "channel",
        "noteNumber": 81,
        "velocity": 65,
        "subtype": "noteOn"
      },
      {
        "deltaTime": 716,
        "channel": 0,
        "type": "channel",
        "noteNumber": 81,
        "velocity": 0,
        "subtype": "noteOff"
      },
      {
        "deltaTime": 4,
        "channel": 0,
        "type": "channel",
        "noteNumber": 79,
        "velocity": 63,
        "subtype": "noteOn"
      },
      {
        "deltaTime": 476,
        "channel": 0,
        "type": "channel",
        "noteNumber": 79,
        "velocity": 0,
        "subtype": "noteOff"
      },
      {
        "deltaTime": 4,
        "channel": 0,
        "type": "channel",
        "noteNumber": 76,
        "velocity": 62,
        "subtype": "noteOn"
      },
      {
        "deltaTime": 1676,
        "channel": 0,
        "type": "channel",
        "noteNumber": 76,
        "velocity": 0,
        "subtype": "noteOff"
      },
      {
        "deltaTime": 4,
        "channel": 0,
        "type": "channel",
        "noteNumber": 72,
        "velocity": 64,
        "subtype": "noteOn"
      },
      {
        "deltaTime": 236,
        "channel": 0,
        "type": "channel",
        "noteNumber": 72,
        "velocity": 0,
        "subtype": "noteOff"
      },
      {
        "deltaTime": 4,
        "channel": 0,
        "type": "channel",
        "noteNumber": 74,
        "velocity": 61,
        "subtype": "noteOn"
      },
      {
        "deltaTime": 716,
        "channel": 0,
        "type": "channel",
        "noteNumber": 74,
        "velocity": 0,
        "subtype": "noteOff"
      },
      {
        "deltaTime": 4,
        "channel": 0,
        "type": "channel",
        "noteNumber": 76,
        "velocity": 68,
        "subtype": "noteOn"
      },
      {
        "deltaTime": 716,
        "channel": 0,
        "type": "channel",
        "noteNumber": 76,
        "velocity": 0,
        "subtype": "noteOff"
      },
      {
        "deltaTime": 4,
        "channel": 0,
        "type": "channel",
        "noteNumber": 72,
        "velocity": 66,
        "subtype": "noteOn"
      },
      {
        "deltaTime": 476,
        "channel": 0,
        "type": "channel",
        "noteNumber": 72,
        "velocity": 0,
        "subtype": "noteOff"
      },
      {
        "deltaTime": 4,
        "channel": 0,
        "type": "channel",
        "noteNumber": 72,
        "velocity": 69,
        "subtype": "noteOn"
      },
      {
        "deltaTime": 1676,
        "channel": 0,
        "type": "channel",
        "noteNumber": 72,
        "velocity": 0,
        "subtype": "noteOff"
      },
      {
        "deltaTime": 4,
        "channel": 0,
        "type": "channel",
        "noteNumber": 76,
        "velocity": 61,
        "subtype": "noteOn"
      },
      {
        "deltaTime": 236,
        "channel": 0,
        "type": "channel",
        "noteNumber": 76,
        "velocity": 0,
        "subtype": "noteOff"
      },
      {
        "deltaTime": 4,
        "channel": 0,
        "type": "channel",
        "noteNumber": 79,
        "velocity": 62,
        "subtype": "noteOn"
      },
      {
        "deltaTime": 476,
        "channel": 0,
        "type": "channel",
        "noteNumber": 79,
        "velocity": 0,
        "subtype": "noteOff"
      },
      {
        "deltaTime": 4,
        "channel": 0,
        "type": "channel",
        "noteNumber": 81,
        "velocity": 67,
        "subtype": "noteOn"
      },
      {
        "deltaTime": 476,
        "channel": 0,
        "type": "channel",
        "noteNumber": 81,
        "velocity": 0,
        "subtype": "noteOff"
      },
      {
        "deltaTime": 4,
        "channel": 0,
        "type": "channel",
        "noteNumber": 83,
        "velocity": 69,
        "subtype": "noteOn"
      },
      {
        "deltaTime": 236,
        "channel": 0,
        "type": "channel",
        "noteNumber": 83,
        "velocity": 0,
        "subtype": "noteOff"
      },
      {
        "deltaTime": 4,
        "channel": 0,
        "type": "channel",
        "noteNumber": 81,
        "velocity": 70,
        "subtype": "noteOn"
      },
      {
        "deltaTime": 356,
        "channel": 0,
        "type": "channel",
        "noteNumber": 81,
        "velocity": 0,
        "subtype": "noteOff"
      },
      {
        "deltaTime": 4,
        "channel": 0,
        "type": "channel",
        "noteNumber": 79,
        "velocity": 69,
        "subtype": "noteOn"
      },
      {
        "deltaTime": 356,
        "channel": 0,
        "type": "channel",
        "noteNumber": 79,
        "velocity": 0,
        "subtype": "noteOff"
      },
      {
        "deltaTime": 4,
        "channel": 0,
        "type": "channel",
        "noteNumber": 76,
        "velocity": 65,
        "subtype": "noteOn"
      },
      {
        "deltaTime": 356,
        "channel": 0,
        "type": "channel",
        "noteNumber": 76,
        "velocity": 0,
        "subtype": "noteOff"
      },
      {
        "deltaTime": 4,
        "channel": 0,
        "type": "channel",
        "noteNumber": 74,
        "velocity": 56,
        "subtype": "noteOn"
      },
      {
        "deltaTime": 116,
        "channel": 0,
        "type": "channel",
        "noteNumber": 74,
        "velocity": 0,
        "subtype": "noteOff"
      },
      {
        "deltaTime": 4,
        "channel": 0,
        "type": "channel",
        "noteNumber": 72,
        "velocity": 68,
        "subtype": "noteOn"
      },
      {
        "deltaTime": 960,
        "channel": 0,
        "type": "channel",
        "noteNumber": 72,
        "velocity": 0,
        "subtype": "noteOff"
      },
      {
        "deltaTime": 0,
        "channel": 0,
        "type": "channel",
        "noteNumber": 72,
        "velocity": 48,
        "subtype": "noteOn"
      },
      {
        "deltaTime": 236,
        "channel": 0,
        "type": "channel",
        "noteNumber": 72,
        "velocity": 0,
        "subtype": "noteOff"
      },
      {
        "deltaTime": 4,
        "channel": 0,
        "type": "channel",
        "noteNumber": 72,
        "velocity": 63,
        "subtype": "noteOn"
      },
      {
        "deltaTime": 236,
        "channel": 0,
        "type": "channel",
        "noteNumber": 72,
        "velocity": 0,
        "subtype": "noteOff"
      },
      {
        "deltaTime": 4,
        "channel": 0,
        "type": "channel",
        "noteNumber": 74,
        "velocity": 61,
        "subtype": "noteOn"
      },
      {
        "deltaTime": 716,
        "channel": 0,
        "type": "channel",
        "noteNumber": 74,
        "velocity": 0,
        "subtype": "noteOff"
      },
      {
        "deltaTime": 4,
        "channel": 0,
        "type": "channel",
        "noteNumber": 76,
        "velocity": 61,
        "subtype": "noteOn"
      },
      {
        "deltaTime": 716,
        "channel": 0,
        "type": "channel",
        "noteNumber": 76,
        "velocity": 0,
        "subtype": "noteOff"
      },
      {
        "deltaTime": 4,
        "channel": 0,
        "type": "channel",
        "noteNumber": 72,
        "velocity": 63,
        "subtype": "noteOn"
      },
      {
        "deltaTime": 476,
        "channel": 0,
        "type": "channel",
        "noteNumber": 72,
        "velocity": 0,
        "subtype": "noteOff"
      },
      {
        "deltaTime": 4,
        "channel": 0,
        "type": "channel",
        "noteNumber": 72,
        "velocity": 65,
        "subtype": "noteOn"
      },
      {
        "deltaTime": 1200,
        "channel": 0,
        "type": "channel",
        "noteNumber": 72,
        "velocity": 0,
        "subtype": "noteOff"
      },
      {
        "deltaTime": 240,
        "channel": 0,
        "type": "channel",
        "noteNumber": 72,
        "velocity": 60,
        "subtype": "noteOn"
      },
      {
        "deltaTime": 236,
        "channel": 0,
        "type": "channel",
        "noteNumber": 72,
        "velocity": 0,
        "subtype": "noteOff"
      },
      {
        "deltaTime": 4,
        "channel": 0,
        "type": "channel",
        "noteNumber": 76,
        "velocity": 61,
        "subtype": "noteOn"
      },
      {
        "deltaTime": 236,
        "channel": 0,
        "type": "channel",
        "noteNumber": 76,
        "velocity": 0,
        "subtype": "noteOff"
      },
      {
        "deltaTime": 4,
        "channel": 0,
        "type": "channel",
        "noteNumber": 79,
        "velocity": 63,
        "subtype": "noteOn"
      },
      {
        "deltaTime": 236,
        "channel": 0,
        "type": "channel",
        "noteNumber": 79,
        "velocity": 0,
        "subtype": "noteOff"
      },
      {
        "deltaTime": 4,
        "channel": 0,
        "type": "channel",
        "noteNumber": 81,
        "velocity": 71,
        "subtype": "noteOn"
      },
      {
        "deltaTime": 716,
        "channel": 0,
        "type": "channel",
        "noteNumber": 81,
        "velocity": 0,
        "subtype": "noteOff"
      },
      {
        "deltaTime": 4,
        "channel": 0,
        "type": "channel",
        "noteNumber": 83,
        "velocity": 67,
        "subtype": "noteOn"
      },
      {
        "deltaTime": 236,
        "channel": 0,
        "type": "channel",
        "noteNumber": 83,
        "velocity": 0,
        "subtype": "noteOff"
      },
      {
        "deltaTime": 4,
        "channel": 0,
        "type": "channel",
        "noteNumber": 81,
        "velocity": 74,
        "subtype": "noteOn"
      },
      {
        "deltaTime": 476,
        "channel": 0,
        "type": "channel",
        "noteNumber": 81,
        "velocity": 0,
        "subtype": "noteOff"
      },
      {
        "deltaTime": 4,
        "channel": 0,
        "type": "channel",
        "noteNumber": 79,
        "velocity": 67,
        "subtype": "noteOn"
      },
      {
        "deltaTime": 236,
        "channel": 0,
        "type": "channel",
        "noteNumber": 79,
        "velocity": 0,
        "subtype": "noteOff"
      },
      {
        "deltaTime": 4,
        "channel": 0,
        "type": "channel",
        "noteNumber": 76,
        "velocity": 63,
        "subtype": "noteOn"
      },
      {
        "deltaTime": 1436,
        "channel": 0,
        "type": "channel",
        "noteNumber": 76,
        "velocity": 0,
        "subtype": "noteOff"
      },
      {
        "deltaTime": 4,
        "channel": 0,
        "type": "channel",
        "noteNumber": 67,
        "velocity": 64,
        "subtype": "noteOn"
      },
      {
        "deltaTime": 236,
        "channel": 0,
        "type": "channel",
        "noteNumber": 67,
        "velocity": 0,
        "subtype": "noteOff"
      },
      {
        "deltaTime": 4,
        "channel": 0,
        "type": "channel",
        "noteNumber": 69,
        "velocity": 58,
        "subtype": "noteOn"
      },
      {
        "deltaTime": 236,
        "channel": 0,
        "type": "channel",
        "noteNumber": 69,
        "velocity": 0,
        "subtype": "noteOff"
      },
      {
        "deltaTime": 4,
        "channel": 0,
        "type": "channel",
        "noteNumber": 72,
        "velocity": 66,
        "subtype": "noteOn"
      },
      {
        "deltaTime": 236,
        "channel": 0,
        "type": "channel",
        "noteNumber": 72,
        "velocity": 0,
        "subtype": "noteOff"
      },
      {
        "deltaTime": 4,
        "channel": 0,
        "type": "channel",
        "noteNumber": 74,
        "velocity": 67,
        "subtype": "noteOn"
      },
      {
        "deltaTime": 716,
        "channel": 0,
        "type": "channel",
        "noteNumber": 74,
        "velocity": 0,
        "subtype": "noteOff"
      },
      {
        "deltaTime": 4,
        "channel": 0,
        "type": "channel",
        "noteNumber": 76,
        "velocity": 61,
        "subtype": "noteOn"
      },
      {
        "deltaTime": 236,
        "channel": 0,
        "type": "channel",
        "noteNumber": 76,
        "velocity": 0,
        "subtype": "noteOff"
      },
      {
        "deltaTime": 4,
        "channel": 0,
        "type": "channel",
        "noteNumber": 74,
        "velocity": 65,
        "subtype": "noteOn"
      },
      {
        "deltaTime": 476,
        "channel": 0,
        "type": "channel",
        "noteNumber": 74,
        "velocity": 0,
        "subtype": "noteOff"
      },
      {
        "deltaTime": 4,
        "channel": 0,
        "type": "channel",
        "noteNumber": 72,
        "velocity": 56,
        "subtype": "noteOn"
      },
      {
        "deltaTime": 236,
        "channel": 0,
        "type": "channel",
        "noteNumber": 72,
        "velocity": 0,
        "subtype": "noteOff"
      },
      {
        "deltaTime": 4,
        "channel": 0,
        "type": "channel",
        "noteNumber": 72,
        "velocity": 65,
        "subtype": "noteOn"
      },
      {
        "deltaTime": 1200,
        "channel": 0,
        "type": "channel",
        "noteNumber": 72,
        "velocity": 0,
        "subtype": "noteOff"
      },
      {
        "deltaTime": 240,
        "channel": 0,
        "type": "channel",
        "noteNumber": 72,
        "velocity": 60,
        "subtype": "noteOn"
      },
      {
        "deltaTime": 236,
        "channel": 0,
        "type": "channel",
        "noteNumber": 72,
        "velocity": 0,
        "subtype": "noteOff"
      },
      {
        "deltaTime": 4,
        "channel": 0,
        "type": "channel",
        "noteNumber": 76,
        "velocity": 61,
        "subtype": "noteOn"
      },
      {
        "deltaTime": 236,
        "channel": 0,
        "type": "channel",
        "noteNumber": 76,
        "velocity": 0,
        "subtype": "noteOff"
      },
      {
        "deltaTime": 4,
        "channel": 0,
        "type": "channel",
        "noteNumber": 79,
        "velocity": 63,
        "subtype": "noteOn"
      },
      {
        "deltaTime": 236,
        "channel": 0,
        "type": "channel",
        "noteNumber": 79,
        "velocity": 0,
        "subtype": "noteOff"
      },
      {
        "deltaTime": 4,
        "channel": 0,
        "type": "channel",
        "noteNumber": 81,
        "velocity": 71,
        "subtype": "noteOn"
      },
      {
        "deltaTime": 716,
        "channel": 0,
        "type": "channel",
        "noteNumber": 81,
        "velocity": 0,
        "subtype": "noteOff"
      },
      {
        "deltaTime": 4,
        "channel": 0,
        "type": "channel",
        "noteNumber": 83,
        "velocity": 67,
        "subtype": "noteOn"
      },
      {
        "deltaTime": 236,
        "channel": 0,
        "type": "channel",
        "noteNumber": 83,
        "velocity": 0,
        "subtype": "noteOff"
      },
      {
        "deltaTime": 4,
        "channel": 0,
        "type": "channel",
        "noteNumber": 81,
        "velocity": 74,
        "subtype": "noteOn"
      },
      {
        "deltaTime": 476,
        "channel": 0,
        "type": "channel",
        "noteNumber": 81,
        "velocity": 0,
        "subtype": "noteOff"
      },
      {
        "deltaTime": 4,
        "channel": 0,
        "type": "channel",
        "noteNumber": 79,
        "velocity": 67,
        "subtype": "noteOn"
      },
      {
        "deltaTime": 236,
        "channel": 0,
        "type": "channel",
        "noteNumber": 79,
        "velocity": 0,
        "subtype": "noteOff"
      },
      {
        "deltaTime": 4,
        "channel": 0,
        "type": "channel",
        "noteNumber": 76,
        "velocity": 63,
        "subtype": "noteOn"
      },
      {
        "deltaTime": 1436,
        "channel": 0,
        "type": "channel",
        "noteNumber": 76,
        "velocity": 0,
        "subtype": "noteOff"
      },
      {
        "deltaTime": 4,
        "channel": 0,
        "type": "channel",
        "noteNumber": 67,
        "velocity": 64,
        "subtype": "noteOn"
      },
      {
        "deltaTime": 236,
        "channel": 0,
        "type": "channel",
        "noteNumber": 67,
        "velocity": 0,
        "subtype": "noteOff"
      },
      {
        "deltaTime": 4,
        "channel": 0,
        "type": "channel",
        "noteNumber": 69,
        "velocity": 58,
        "subtype": "noteOn"
      },
      {
        "deltaTime": 236,
        "channel": 0,
        "type": "channel",
        "noteNumber": 69,
        "velocity": 0,
        "subtype": "noteOff"
      },
      {
        "deltaTime": 4,
        "channel": 0,
        "type": "channel",
        "noteNumber": 72,
        "velocity": 66,
        "subtype": "noteOn"
      },
      {
        "deltaTime": 236,
        "channel": 0,
        "type": "channel",
        "noteNumber": 72,
        "velocity": 0,
        "subtype": "noteOff"
      },
      {
        "deltaTime": 4,
        "channel": 0,
        "type": "channel",
        "noteNumber": 74,
        "velocity": 67,
        "subtype": "noteOn"
      },
      {
        "deltaTime": 716,
        "channel": 0,
        "type": "channel",
        "noteNumber": 74,
        "velocity": 0,
        "subtype": "noteOff"
      },
      {
        "deltaTime": 4,
        "channel": 0,
        "type": "channel",
        "noteNumber": 76,
        "velocity": 61,
        "subtype": "noteOn"
      },
      {
        "deltaTime": 236,
        "channel": 0,
        "type": "channel",
        "noteNumber": 76,
        "velocity": 0,
        "subtype": "noteOff"
      },
      {
        "deltaTime": 4,
        "channel": 0,
        "type": "channel",
        "noteNumber": 74,
        "velocity": 65,
        "subtype": "noteOn"
      },
      {
        "deltaTime": 476,
        "channel": 0,
        "type": "channel",
        "noteNumber": 74,
        "velocity": 0,
        "subtype": "noteOff"
      },
      {
        "deltaTime": 4,
        "channel": 0,
        "type": "channel",
        "noteNumber": 72,
        "velocity": 56,
        "subtype": "noteOn"
      },
      {
        "deltaTime": 236,
        "channel": 0,
        "type": "channel",
        "noteNumber": 72,
        "velocity": 0,
        "subtype": "noteOff"
      },
      {
        "deltaTime": 4,
        "channel": 0,
        "type": "channel",
        "noteNumber": 72,
        "velocity": 65,
        "subtype": "noteOn"
      },
      {
        "deltaTime": 1200,
        "channel": 0,
        "type": "channel",
        "noteNumber": 72,
        "velocity": 0,
        "subtype": "noteOff"
      },
      {
        "deltaTime": 240,
        "channel": 0,
        "type": "channel",
        "noteNumber": 72,
        "velocity": 69,
        "subtype": "noteOn"
      },
      {
        "deltaTime": 236,
        "channel": 0,
        "type": "channel",
        "noteNumber": 72,
        "velocity": 0,
        "subtype": "noteOff"
      },
      {
        "deltaTime": 4,
        "channel": 0,
        "type": "channel",
        "noteNumber": 76,
        "velocity": 63,
        "subtype": "noteOn"
      },
      {
        "deltaTime": 236,
        "channel": 0,
        "type": "channel",
        "noteNumber": 76,
        "velocity": 0,
        "subtype": "noteOff"
      },
      {
        "deltaTime": 4,
        "channel": 0,
        "type": "channel",
        "noteNumber": 79,
        "velocity": 63,
        "subtype": "noteOn"
      },
      {
        "deltaTime": 716,
        "channel": 0,
        "type": "channel",
        "noteNumber": 79,
        "velocity": 0,
        "subtype": "noteOff"
      },
      {
        "deltaTime": 4,
        "channel": 0,
        "type": "channel",
        "noteNumber": 81,
        "velocity": 65,
        "subtype": "noteOn"
      },
      {
        "deltaTime": 716,
        "channel": 0,
        "type": "channel",
        "noteNumber": 81,
        "velocity": 0,
        "subtype": "noteOff"
      },
      {
        "deltaTime": 4,
        "channel": 0,
        "type": "channel",
        "noteNumber": 79,
        "velocity": 63,
        "subtype": "noteOn"
      },
      {
        "deltaTime": 476,
        "channel": 0,
        "type": "channel",
        "noteNumber": 79,
        "velocity": 0,
        "subtype": "noteOff"
      },
      {
        "deltaTime": 4,
        "channel": 0,
        "type": "channel",
        "noteNumber": 76,
        "velocity": 62,
        "subtype": "noteOn"
      },
      {
        "deltaTime": 1676,
        "channel": 0,
        "type": "channel",
        "noteNumber": 76,
        "velocity": 0,
        "subtype": "noteOff"
      },
      {
        "deltaTime": 4,
        "channel": 0,
        "type": "channel",
        "noteNumber": 72,
        "velocity": 64,
        "subtype": "noteOn"
      },
      {
        "deltaTime": 236,
        "channel": 0,
        "type": "channel",
        "noteNumber": 72,
        "velocity": 0,
        "subtype": "noteOff"
      },
      {
        "deltaTime": 4,
        "channel": 0,
        "type": "channel",
        "noteNumber": 74,
        "velocity": 61,
        "subtype": "noteOn"
      },
      {
        "deltaTime": 716,
        "channel": 0,
        "type": "channel",
        "noteNumber": 74,
        "velocity": 0,
        "subtype": "noteOff"
      },
      {
        "deltaTime": 4,
        "channel": 0,
        "type": "channel",
        "noteNumber": 76,
        "velocity": 68,
        "subtype": "noteOn"
      },
      {
        "deltaTime": 716,
        "channel": 0,
        "type": "channel",
        "noteNumber": 76,
        "velocity": 0,
        "subtype": "noteOff"
      },
      {
        "deltaTime": 4,
        "channel": 0,
        "type": "channel",
        "noteNumber": 72,
        "velocity": 66,
        "subtype": "noteOn"
      },
      {
        "deltaTime": 476,
        "channel": 0,
        "type": "channel",
        "noteNumber": 72,
        "velocity": 0,
        "subtype": "noteOff"
      },
      {
        "deltaTime": 4,
        "channel": 0,
        "type": "channel",
        "noteNumber": 72,
        "velocity": 69,
        "subtype": "noteOn"
      },
      {
        "deltaTime": 1676,
        "channel": 0,
        "type": "channel",
        "noteNumber": 72,
        "velocity": 0,
        "subtype": "noteOff"
      },
      {
        "deltaTime": 4,
        "channel": 0,
        "type": "channel",
        "noteNumber": 76,
        "velocity": 61,
        "subtype": "noteOn"
      },
      {
        "deltaTime": 236,
        "channel": 0,
        "type": "channel",
        "noteNumber": 76,
        "velocity": 0,
        "subtype": "noteOff"
      },
      {
        "deltaTime": 4,
        "channel": 0,
        "type": "channel",
        "noteNumber": 79,
        "velocity": 62,
        "subtype": "noteOn"
      },
      {
        "deltaTime": 476,
        "channel": 0,
        "type": "channel",
        "noteNumber": 79,
        "velocity": 0,
        "subtype": "noteOff"
      },
      {
        "deltaTime": 4,
        "channel": 0,
        "type": "channel",
        "noteNumber": 81,
        "velocity": 67,
        "subtype": "noteOn"
      },
      {
        "deltaTime": 476,
        "channel": 0,
        "type": "channel",
        "noteNumber": 81,
        "velocity": 0,
        "subtype": "noteOff"
      },
      {
        "deltaTime": 4,
        "channel": 0,
        "type": "channel",
        "noteNumber": 84,
        "velocity": 69,
        "subtype": "noteOn"
      },
      {
        "deltaTime": 236,
        "channel": 0,
        "type": "channel",
        "noteNumber": 84,
        "velocity": 0,
        "subtype": "noteOff"
      },
      {
        "deltaTime": 4,
        "channel": 0,
        "type": "channel",
        "noteNumber": 86,
        "velocity": 70,
        "subtype": "noteOn"
      },
      {
        "deltaTime": 236,
        "channel": 0,
        "type": "channel",
        "noteNumber": 86,
        "velocity": 0,
        "subtype": "noteOff"
      },
      {
        "deltaTime": 4,
        "channel": 0,
        "type": "channel",
        "noteNumber": 88,
        "velocity": 69,
        "subtype": "noteOn"
      },
      {
        "deltaTime": 116,
        "channel": 0,
        "type": "channel",
        "noteNumber": 88,
        "velocity": 0,
        "subtype": "noteOff"
      },
      {
        "deltaTime": 4,
        "channel": 0,
        "type": "channel",
        "noteNumber": 86,
        "velocity": 69,
        "subtype": "noteOn"
      },
      {
        "deltaTime": 356,
        "channel": 0,
        "type": "channel",
        "noteNumber": 86,
        "velocity": 0,
        "subtype": "noteOff"
      },
      {
        "deltaTime": 4,
        "channel": 0,
        "type": "channel",
        "noteNumber": 84,
        "velocity": 65,
        "subtype": "noteOn"
      },
      {
        "deltaTime": 236,
        "channel": 0,
        "type": "channel",
        "noteNumber": 84,
        "velocity": 0,
        "subtype": "noteOff"
      },
      {
        "deltaTime": 4,
        "channel": 0,
        "type": "channel",
        "noteNumber": 79,
        "velocity": 68,
        "subtype": "noteOn"
      },
      {
        "deltaTime": 1196,
        "channel": 0,
        "type": "channel",
        "noteNumber": 79,
        "velocity": 0,
        "subtype": "noteOff"
      },
      {
        "deltaTime": 4,
        "channel": 0,
        "type": "channel",
        "noteNumber": 72,
        "velocity": 48,
        "subtype": "noteOn"
      },
      {
        "deltaTime": 236,
        "channel": 0,
        "type": "channel",
        "noteNumber": 72,
        "velocity": 0,
        "subtype": "noteOff"
      },
      {
        "deltaTime": 4,
        "channel": 0,
        "type": "channel",
        "noteNumber": 72,
        "velocity": 63,
        "subtype": "noteOn"
      },
      {
        "deltaTime": 236,
        "channel": 0,
        "type": "channel",
        "noteNumber": 72,
        "velocity": 0,
        "subtype": "noteOff"
      },
      {
        "deltaTime": 4,
        "channel": 0,
        "type": "channel",
        "noteNumber": 74,
        "velocity": 61,
        "subtype": "noteOn"
      },
      {
        "deltaTime": 716,
        "channel": 0,
        "type": "channel",
        "noteNumber": 74,
        "velocity": 0,
        "subtype": "noteOff"
      },
      {
        "deltaTime": 4,
        "channel": 0,
        "type": "channel",
        "noteNumber": 72,
        "velocity": 61,
        "subtype": "noteOn"
      },
      {
        "deltaTime": 116,
        "channel": 0,
        "type": "channel",
        "noteNumber": 72,
        "velocity": 0,
        "subtype": "noteOff"
      },
      {
        "deltaTime": 4,
        "channel": 0,
        "type": "channel",
        "noteNumber": 74,
        "velocity": 61,
        "subtype": "noteOn"
      },
      {
        "deltaTime": 116,
        "channel": 0,
        "type": "channel",
        "subtype": "noteOff",
        "noteNumber": 74,
        "velocity": 64
      },
      {
        "deltaTime": 4,
        "channel": 0,
        "type": "channel",
        "noteNumber": 76,
        "velocity": 61,
        "subtype": "noteOn"
      },
      {
        "deltaTime": 116,
        "channel": 0,
        "type": "channel",
        "subtype": "noteOff",
        "noteNumber": 76,
        "velocity": 64
      },
      {
        "deltaTime": 4,
        "channel": 0,
        "type": "channel",
        "noteNumber": 77,
        "velocity": 61,
        "subtype": "noteOn"
      },
      {
        "deltaTime": 116,
        "channel": 0,
        "type": "channel",
        "subtype": "noteOff",
        "noteNumber": 77,
        "velocity": 64
      },
      {
        "deltaTime": 4,
        "channel": 0,
        "type": "channel",
        "noteNumber": 76,
        "velocity": 61,
        "subtype": "noteOn"
      },
      {
        "deltaTime": 236,
        "channel": 0,
        "type": "channel",
        "subtype": "noteOff",
        "noteNumber": 76,
        "velocity": 64
      },
      {
        "deltaTime": 4,
        "channel": 0,
        "type": "channel",
        "noteNumber": 72,
        "velocity": 63,
        "subtype": "noteOn"
      },
      {
        "deltaTime": 476,
        "channel": 0,
        "type": "channel",
        "noteNumber": 72,
        "velocity": 0,
        "subtype": "noteOff"
      },
      {
        "deltaTime": 4,
        "channel": 0,
        "type": "channel",
        "noteNumber": 72,
        "velocity": 65,
        "subtype": "noteOn"
      },
      {
        "deltaTime": 1200,
        "channel": 0,
        "type": "channel",
        "noteNumber": 72,
        "velocity": 0,
        "subtype": "noteOff"
      },
      {
        "deltaTime": 240,
        "channel": 0,
        "type": "channel",
        "noteNumber": 72,
        "velocity": 69,
        "subtype": "noteOn"
      },
      {
        "deltaTime": 236,
        "channel": 0,
        "type": "channel",
        "noteNumber": 72,
        "velocity": 0,
        "subtype": "noteOff"
      },
      {
        "deltaTime": 4,
        "channel": 0,
        "type": "channel",
        "noteNumber": 76,
        "velocity": 63,
        "subtype": "noteOn"
      },
      {
        "deltaTime": 236,
        "channel": 0,
        "type": "channel",
        "noteNumber": 76,
        "velocity": 0,
        "subtype": "noteOff"
      },
      {
        "deltaTime": 4,
        "channel": 0,
        "type": "channel",
        "noteNumber": 79,
        "velocity": 63,
        "subtype": "noteOn"
      },
      {
        "deltaTime": 716,
        "channel": 0,
        "type": "channel",
        "noteNumber": 79,
        "velocity": 0,
        "subtype": "noteOff"
      },
      {
        "deltaTime": 4,
        "channel": 0,
        "type": "channel",
        "noteNumber": 81,
        "velocity": 65,
        "subtype": "noteOn"
      },
      {
        "deltaTime": 716,
        "channel": 0,
        "type": "channel",
        "noteNumber": 81,
        "velocity": 0,
        "subtype": "noteOff"
      },
      {
        "deltaTime": 4,
        "channel": 0,
        "type": "channel",
        "noteNumber": 79,
        "velocity": 63,
        "subtype": "noteOn"
      },
      {
        "deltaTime": 476,
        "channel": 0,
        "type": "channel",
        "noteNumber": 79,
        "velocity": 0,
        "subtype": "noteOff"
      },
      {
        "deltaTime": 4,
        "channel": 0,
        "type": "channel",
        "noteNumber": 76,
        "velocity": 62,
        "subtype": "noteOn"
      },
      {
        "deltaTime": 1676,
        "channel": 0,
        "type": "channel",
        "noteNumber": 76,
        "velocity": 0,
        "subtype": "noteOff"
      },
      {
        "deltaTime": 4,
        "channel": 0,
        "type": "channel",
        "noteNumber": 72,
        "velocity": 64,
        "subtype": "noteOn"
      },
      {
        "deltaTime": 236,
        "channel": 0,
        "type": "channel",
        "noteNumber": 72,
        "velocity": 0,
        "subtype": "noteOff"
      },
      {
        "deltaTime": 4,
        "channel": 0,
        "type": "channel",
        "noteNumber": 74,
        "velocity": 61,
        "subtype": "noteOn"
      },
      {
        "deltaTime": 716,
        "channel": 0,
        "type": "channel",
        "noteNumber": 74,
        "velocity": 0,
        "subtype": "noteOff"
      },
      {
        "deltaTime": 4,
        "channel": 0,
        "type": "channel",
        "noteNumber": 76,
        "velocity": 68,
        "subtype": "noteOn"
      },
      {
        "deltaTime": 716,
        "channel": 0,
        "type": "channel",
        "noteNumber": 76,
        "velocity": 0,
        "subtype": "noteOff"
      },
      {
        "deltaTime": 4,
        "channel": 0,
        "type": "channel",
        "noteNumber": 72,
        "velocity": 66,
        "subtype": "noteOn"
      },
      {
        "deltaTime": 476,
        "channel": 0,
        "type": "channel",
        "noteNumber": 72,
        "velocity": 0,
        "subtype": "noteOff"
      },
      {
        "deltaTime": 4,
        "channel": 0,
        "type": "channel",
        "noteNumber": 72,
        "velocity": 69,
        "subtype": "noteOn"
      },
      {
        "deltaTime": 1676,
        "channel": 0,
        "type": "channel",
        "noteNumber": 72,
        "velocity": 0,
        "subtype": "noteOff"
      },
      {
        "deltaTime": 4,
        "channel": 0,
        "type": "channel",
        "noteNumber": 76,
        "velocity": 61,
        "subtype": "noteOn"
      },
      {
        "deltaTime": 236,
        "channel": 0,
        "type": "channel",
        "noteNumber": 76,
        "velocity": 0,
        "subtype": "noteOff"
      },
      {
        "deltaTime": 4,
        "channel": 0,
        "type": "channel",
        "noteNumber": 79,
        "velocity": 62,
        "subtype": "noteOn"
      },
      {
        "deltaTime": 476,
        "channel": 0,
        "type": "channel",
        "noteNumber": 79,
        "velocity": 0,
        "subtype": "noteOff"
      },
      {
        "deltaTime": 4,
        "channel": 0,
        "type": "channel",
        "noteNumber": 81,
        "velocity": 67,
        "subtype": "noteOn"
      },
      {
        "deltaTime": 476,
        "channel": 0,
        "type": "channel",
        "noteNumber": 81,
        "velocity": 0,
        "subtype": "noteOff"
      },
      {
        "deltaTime": 4,
        "channel": 0,
        "type": "channel",
        "noteNumber": 83,
        "velocity": 69,
        "subtype": "noteOn"
      },
      {
        "deltaTime": 236,
        "channel": 0,
        "type": "channel",
        "noteNumber": 83,
        "velocity": 0,
        "subtype": "noteOff"
      },
      {
        "deltaTime": 4,
        "channel": 0,
        "type": "channel",
        "noteNumber": 81,
        "velocity": 70,
        "subtype": "noteOn"
      },
      {
        "deltaTime": 356,
        "channel": 0,
        "type": "channel",
        "noteNumber": 81,
        "velocity": 0,
        "subtype": "noteOff"
      },
      {
        "deltaTime": 4,
        "channel": 0,
        "type": "channel",
        "noteNumber": 79,
        "velocity": 69,
        "subtype": "noteOn"
      },
      {
        "deltaTime": 356,
        "channel": 0,
        "type": "channel",
        "noteNumber": 79,
        "velocity": 0,
        "subtype": "noteOff"
      },
      {
        "deltaTime": 4,
        "channel": 0,
        "type": "channel",
        "noteNumber": 76,
        "velocity": 65,
        "subtype": "noteOn"
      },
      {
        "deltaTime": 356,
        "channel": 0,
        "type": "channel",
        "noteNumber": 76,
        "velocity": 0,
        "subtype": "noteOff"
      },
      {
        "deltaTime": 4,
        "channel": 0,
        "type": "channel",
        "noteNumber": 74,
        "velocity": 56,
        "subtype": "noteOn"
      },
      {
        "deltaTime": 116,
        "channel": 0,
        "type": "channel",
        "noteNumber": 74,
        "velocity": 0,
        "subtype": "noteOff"
      },
      {
        "deltaTime": 4,
        "channel": 0,
        "type": "channel",
        "noteNumber": 72,
        "velocity": 68,
        "subtype": "noteOn"
      },
      {
        "deltaTime": 960,
        "channel": 0,
        "type": "channel",
        "noteNumber": 72,
        "velocity": 0,
        "subtype": "noteOff"
      },
      {
        "deltaTime": 0,
        "channel": 0,
        "type": "channel",
        "noteNumber": 72,
        "velocity": 48,
        "subtype": "noteOn"
      },
      {
        "deltaTime": 236,
        "channel": 0,
        "type": "channel",
        "noteNumber": 72,
        "velocity": 0,
        "subtype": "noteOff"
      },
      {
        "deltaTime": 4,
        "channel": 0,
        "type": "channel",
        "noteNumber": 72,
        "velocity": 63,
        "subtype": "noteOn"
      },
      {
        "deltaTime": 236,
        "channel": 0,
        "type": "channel",
        "noteNumber": 72,
        "velocity": 0,
        "subtype": "noteOff"
      },
      {
        "deltaTime": 4,
        "channel": 0,
        "type": "channel",
        "noteNumber": 74,
        "velocity": 61,
        "subtype": "noteOn"
      },
      {
        "deltaTime": 716,
        "channel": 0,
        "type": "channel",
        "noteNumber": 74,
        "velocity": 0,
        "subtype": "noteOff"
      },
      {
        "deltaTime": 4,
        "channel": 0,
        "type": "channel",
        "noteNumber": 76,
        "velocity": 61,
        "subtype": "noteOn"
      },
      {
        "deltaTime": 716,
        "channel": 0,
        "type": "channel",
        "noteNumber": 76,
        "velocity": 0,
        "subtype": "noteOff"
      },
      {
        "deltaTime": 4,
        "channel": 0,
        "type": "channel",
        "noteNumber": 72,
        "velocity": 63,
        "subtype": "noteOn"
      },
      {
        "deltaTime": 476,
        "channel": 0,
        "type": "channel",
        "noteNumber": 72,
        "velocity": 0,
        "subtype": "noteOff"
      },
      {
        "deltaTime": 4,
        "channel": 0,
        "type": "channel",
        "noteNumber": 72,
        "velocity": 65,
        "subtype": "noteOn"
      },
      {
        "deltaTime": 2160,
        "channel": 0,
        "type": "channel",
        "noteNumber": 72,
        "velocity": 0,
        "subtype": "noteOff"
      },
      {
        "deltaTime": 0,
        "type": "meta",
        "subtype": "endOfTrack"
      }
    ],
    [
      {
        "deltaTime": 0,
        "type": "meta",
        "subtype": "trackName",
        "text": "Steinway Grand Piano"
      },
      {
        "deltaTime": 0,
        "type": "meta",
        "subtype": "instrumentName",
        "text": "Inst 2"
      },
      {
        "deltaTime": 0,
        "channel": 0,
        "type": "channel",
        "noteNumber": 57,
        "velocity": 52,
        "subtype": "noteOn"
      },
      {
        "deltaTime": 0,
        "channel": 0,
        "type": "channel",
        "noteNumber": 60,
        "velocity": 62,
        "subtype": "noteOn"
      },
      {
        "deltaTime": 0,
        "channel": 0,
        "type": "channel",
        "noteNumber": 64,
        "velocity": 65,
        "subtype": "noteOn"
      },
      {
        "deltaTime": 956,
        "channel": 0,
        "type": "channel",
        "noteNumber": 57,
        "velocity": 0,
        "subtype": "noteOff"
      },
      {
        "deltaTime": 0,
        "channel": 0,
        "type": "channel",
        "noteNumber": 60,
        "velocity": 0,
        "subtype": "noteOff"
      },
      {
        "deltaTime": 0,
        "channel": 0,
        "type": "channel",
        "noteNumber": 64,
        "velocity": 0,
        "subtype": "noteOff"
      },
      {
        "deltaTime": 4,
        "channel": 0,
        "type": "channel",
        "noteNumber": 57,
        "velocity": 62,
        "subtype": "noteOn"
      },
      {
        "deltaTime": 0,
        "channel": 0,
        "type": "channel",
        "noteNumber": 60,
        "velocity": 55,
        "subtype": "noteOn"
      },
      {
        "deltaTime": 0,
        "channel": 0,
        "type": "channel",
        "noteNumber": 65,
        "velocity": 65,
        "subtype": "noteOn"
      },
      {
        "deltaTime": 716,
        "channel": 0,
        "type": "channel",
        "noteNumber": 57,
        "velocity": 0,
        "subtype": "noteOff"
      },
      {
        "deltaTime": 0,
        "channel": 0,
        "type": "channel",
        "noteNumber": 60,
        "velocity": 0,
        "subtype": "noteOff"
      },
      {
        "deltaTime": 0,
        "channel": 0,
        "type": "channel",
        "noteNumber": 65,
        "velocity": 0,
        "subtype": "noteOff"
      },
      {
        "deltaTime": 4,
        "channel": 0,
        "type": "channel",
        "noteNumber": 55,
        "velocity": 63,
        "subtype": "noteOn"
      },
      {
        "deltaTime": 0,
        "channel": 0,
        "type": "channel",
        "noteNumber": 60,
        "velocity": 63,
        "subtype": "noteOn"
      },
      {
        "deltaTime": 0,
        "channel": 0,
        "type": "channel",
        "noteNumber": 64,
        "velocity": 66,
        "subtype": "noteOn"
      },
      {
        "deltaTime": 2156,
        "channel": 0,
        "type": "channel",
        "noteNumber": 55,
        "velocity": 0,
        "subtype": "noteOff"
      },
      {
        "deltaTime": 0,
        "channel": 0,
        "type": "channel",
        "noteNumber": 60,
        "velocity": 0,
        "subtype": "noteOff"
      },
      {
        "deltaTime": 0,
        "channel": 0,
        "type": "channel",
        "noteNumber": 64,
        "velocity": 0,
        "subtype": "noteOff"
      },
      {
        "deltaTime": 4,
        "channel": 0,
        "type": "channel",
        "noteNumber": 57,
        "velocity": 65,
        "subtype": "noteOn"
      },
      {
        "deltaTime": 0,
        "channel": 0,
        "type": "channel",
        "noteNumber": 60,
        "velocity": 65,
        "subtype": "noteOn"
      },
      {
        "deltaTime": 0,
        "channel": 0,
        "type": "channel",
        "noteNumber": 64,
        "velocity": 69,
        "subtype": "noteOn"
      },
      {
        "deltaTime": 956,
        "channel": 0,
        "type": "channel",
        "noteNumber": 57,
        "velocity": 0,
        "subtype": "noteOff"
      },
      {
        "deltaTime": 0,
        "channel": 0,
        "type": "channel",
        "noteNumber": 60,
        "velocity": 0,
        "subtype": "noteOff"
      },
      {
        "deltaTime": 0,
        "channel": 0,
        "type": "channel",
        "noteNumber": 64,
        "velocity": 0,
        "subtype": "noteOff"
      },
      {
        "deltaTime": 4,
        "channel": 0,
        "type": "channel",
        "noteNumber": 57,
        "velocity": 62,
        "subtype": "noteOn"
      },
      {
        "deltaTime": 0,
        "channel": 0,
        "type": "channel",
        "noteNumber": 60,
        "velocity": 56,
        "subtype": "noteOn"
      },
      {
        "deltaTime": 0,
        "channel": 0,
        "type": "channel",
        "noteNumber": 65,
        "velocity": 72,
        "subtype": "noteOn"
      },
      {
        "deltaTime": 716,
        "channel": 0,
        "type": "channel",
        "noteNumber": 57,
        "velocity": 0,
        "subtype": "noteOff"
      },
      {
        "deltaTime": 0,
        "channel": 0,
        "type": "channel",
        "noteNumber": 60,
        "velocity": 0,
        "subtype": "noteOff"
      },
      {
        "deltaTime": 0,
        "channel": 0,
        "type": "channel",
        "noteNumber": 65,
        "velocity": 0,
        "subtype": "noteOff"
      },
      {
        "deltaTime": 4,
        "channel": 0,
        "type": "channel",
        "noteNumber": 55,
        "velocity": 61,
        "subtype": "noteOn"
      },
      {
        "deltaTime": 0,
        "channel": 0,
        "type": "channel",
        "noteNumber": 60,
        "velocity": 63,
        "subtype": "noteOn"
      },
      {
        "deltaTime": 0,
        "channel": 0,
        "type": "channel",
        "noteNumber": 64,
        "velocity": 64,
        "subtype": "noteOn"
      },
      {
        "deltaTime": 2156,
        "channel": 0,
        "type": "channel",
        "noteNumber": 55,
        "velocity": 0,
        "subtype": "noteOff"
      },
      {
        "deltaTime": 0,
        "channel": 0,
        "type": "channel",
        "noteNumber": 60,
        "velocity": 0,
        "subtype": "noteOff"
      },
      {
        "deltaTime": 0,
        "channel": 0,
        "type": "channel",
        "noteNumber": 64,
        "velocity": 0,
        "subtype": "noteOff"
      },
      {
        "deltaTime": 4,
        "channel": 0,
        "type": "channel",
        "noteNumber": 57,
        "velocity": 52,
        "subtype": "noteOn"
      },
      {
        "deltaTime": 0,
        "channel": 0,
        "type": "channel",
        "noteNumber": 60,
        "velocity": 62,
        "subtype": "noteOn"
      },
      {
        "deltaTime": 0,
        "channel": 0,
        "type": "channel",
        "noteNumber": 64,
        "velocity": 65,
        "subtype": "noteOn"
      },
      {
        "deltaTime": 956,
        "channel": 0,
        "type": "channel",
        "noteNumber": 57,
        "velocity": 0,
        "subtype": "noteOff"
      },
      {
        "deltaTime": 0,
        "channel": 0,
        "type": "channel",
        "noteNumber": 60,
        "velocity": 0,
        "subtype": "noteOff"
      },
      {
        "deltaTime": 0,
        "channel": 0,
        "type": "channel",
        "noteNumber": 64,
        "velocity": 0,
        "subtype": "noteOff"
      },
      {
        "deltaTime": 4,
        "channel": 0,
        "type": "channel",
        "noteNumber": 57,
        "velocity": 62,
        "subtype": "noteOn"
      },
      {
        "deltaTime": 0,
        "channel": 0,
        "type": "channel",
        "noteNumber": 60,
        "velocity": 55,
        "subtype": "noteOn"
      },
      {
        "deltaTime": 0,
        "channel": 0,
        "type": "channel",
        "noteNumber": 65,
        "velocity": 65,
        "subtype": "noteOn"
      },
      {
        "deltaTime": 716,
        "channel": 0,
        "type": "channel",
        "noteNumber": 57,
        "velocity": 0,
        "subtype": "noteOff"
      },
      {
        "deltaTime": 0,
        "channel": 0,
        "type": "channel",
        "noteNumber": 60,
        "velocity": 0,
        "subtype": "noteOff"
      },
      {
        "deltaTime": 0,
        "channel": 0,
        "type": "channel",
        "noteNumber": 65,
        "velocity": 0,
        "subtype": "noteOff"
      },
      {
        "deltaTime": 4,
        "channel": 0,
        "type": "channel",
        "noteNumber": 55,
        "velocity": 63,
        "subtype": "noteOn"
      },
      {
        "deltaTime": 0,
        "channel": 0,
        "type": "channel",
        "noteNumber": 60,
        "velocity": 63,
        "subtype": "noteOn"
      },
      {
        "deltaTime": 0,
        "channel": 0,
        "type": "channel",
        "noteNumber": 64,
        "velocity": 66,
        "subtype": "noteOn"
      },
      {
        "deltaTime": 2156,
        "channel": 0,
        "type": "channel",
        "noteNumber": 55,
        "velocity": 0,
        "subtype": "noteOff"
      },
      {
        "deltaTime": 0,
        "channel": 0,
        "type": "channel",
        "noteNumber": 60,
        "velocity": 0,
        "subtype": "noteOff"
      },
      {
        "deltaTime": 0,
        "channel": 0,
        "type": "channel",
        "noteNumber": 64,
        "velocity": 0,
        "subtype": "noteOff"
      },
      {
        "deltaTime": 4,
        "channel": 0,
        "type": "channel",
        "noteNumber": 57,
        "velocity": 65,
        "subtype": "noteOn"
      },
      {
        "deltaTime": 0,
        "channel": 0,
        "type": "channel",
        "noteNumber": 60,
        "velocity": 65,
        "subtype": "noteOn"
      },
      {
        "deltaTime": 0,
        "channel": 0,
        "type": "channel",
        "noteNumber": 64,
        "velocity": 69,
        "subtype": "noteOn"
      },
      {
        "deltaTime": 956,
        "channel": 0,
        "type": "channel",
        "noteNumber": 57,
        "velocity": 0,
        "subtype": "noteOff"
      },
      {
        "deltaTime": 0,
        "channel": 0,
        "type": "channel",
        "noteNumber": 60,
        "velocity": 0,
        "subtype": "noteOff"
      },
      {
        "deltaTime": 0,
        "channel": 0,
        "type": "channel",
        "noteNumber": 64,
        "velocity": 0,
        "subtype": "noteOff"
      },
      {
        "deltaTime": 4,
        "channel": 0,
        "type": "channel",
        "noteNumber": 57,
        "velocity": 62,
        "subtype": "noteOn"
      },
      {
        "deltaTime": 0,
        "channel": 0,
        "type": "channel",
        "noteNumber": 60,
        "velocity": 56,
        "subtype": "noteOn"
      },
      {
        "deltaTime": 0,
        "channel": 0,
        "type": "channel",
        "noteNumber": 65,
        "velocity": 72,
        "subtype": "noteOn"
      },
      {
        "deltaTime": 716,
        "channel": 0,
        "type": "channel",
        "noteNumber": 57,
        "velocity": 0,
        "subtype": "noteOff"
      },
      {
        "deltaTime": 0,
        "channel": 0,
        "type": "channel",
        "noteNumber": 60,
        "velocity": 0,
        "subtype": "noteOff"
      },
      {
        "deltaTime": 0,
        "channel": 0,
        "type": "channel",
        "noteNumber": 65,
        "velocity": 0,
        "subtype": "noteOff"
      },
      {
        "deltaTime": 4,
        "channel": 0,
        "type": "channel",
        "noteNumber": 55,
        "velocity": 61,
        "subtype": "noteOn"
      },
      {
        "deltaTime": 0,
        "channel": 0,
        "type": "channel",
        "noteNumber": 60,
        "velocity": 63,
        "subtype": "noteOn"
      },
      {
        "deltaTime": 0,
        "channel": 0,
        "type": "channel",
        "noteNumber": 64,
        "velocity": 64,
        "subtype": "noteOn"
      },
      {
        "deltaTime": 2156,
        "channel": 0,
        "type": "channel",
        "noteNumber": 55,
        "velocity": 0,
        "subtype": "noteOff"
      },
      {
        "deltaTime": 0,
        "channel": 0,
        "type": "channel",
        "noteNumber": 60,
        "velocity": 0,
        "subtype": "noteOff"
      },
      {
        "deltaTime": 0,
        "channel": 0,
        "type": "channel",
        "noteNumber": 64,
        "velocity": 0,
        "subtype": "noteOff"
      },
      {
        "deltaTime": 4,
        "channel": 0,
        "type": "channel",
        "noteNumber": 57,
        "velocity": 52,
        "subtype": "noteOn"
      },
      {
        "deltaTime": 0,
        "channel": 0,
        "type": "channel",
        "noteNumber": 60,
        "velocity": 62,
        "subtype": "noteOn"
      },
      {
        "deltaTime": 0,
        "channel": 0,
        "type": "channel",
        "noteNumber": 64,
        "velocity": 65,
        "subtype": "noteOn"
      },
      {
        "deltaTime": 956,
        "channel": 0,
        "type": "channel",
        "noteNumber": 57,
        "velocity": 0,
        "subtype": "noteOff"
      },
      {
        "deltaTime": 0,
        "channel": 0,
        "type": "channel",
        "noteNumber": 60,
        "velocity": 0,
        "subtype": "noteOff"
      },
      {
        "deltaTime": 0,
        "channel": 0,
        "type": "channel",
        "noteNumber": 64,
        "velocity": 0,
        "subtype": "noteOff"
      },
      {
        "deltaTime": 4,
        "channel": 0,
        "type": "channel",
        "noteNumber": 57,
        "velocity": 62,
        "subtype": "noteOn"
      },
      {
        "deltaTime": 0,
        "channel": 0,
        "type": "channel",
        "noteNumber": 60,
        "velocity": 55,
        "subtype": "noteOn"
      },
      {
        "deltaTime": 0,
        "channel": 0,
        "type": "channel",
        "noteNumber": 65,
        "velocity": 65,
        "subtype": "noteOn"
      },
      {
        "deltaTime": 716,
        "channel": 0,
        "type": "channel",
        "noteNumber": 57,
        "velocity": 0,
        "subtype": "noteOff"
      },
      {
        "deltaTime": 0,
        "channel": 0,
        "type": "channel",
        "noteNumber": 60,
        "velocity": 0,
        "subtype": "noteOff"
      },
      {
        "deltaTime": 0,
        "channel": 0,
        "type": "channel",
        "noteNumber": 65,
        "velocity": 0,
        "subtype": "noteOff"
      },
      {
        "deltaTime": 4,
        "channel": 0,
        "type": "channel",
        "noteNumber": 55,
        "velocity": 63,
        "subtype": "noteOn"
      },
      {
        "deltaTime": 0,
        "channel": 0,
        "type": "channel",
        "noteNumber": 60,
        "velocity": 63,
        "subtype": "noteOn"
      },
      {
        "deltaTime": 2156,
        "channel": 0,
        "type": "channel",
        "noteNumber": 55,
        "velocity": 0,
        "subtype": "noteOff"
      },
      {
        "deltaTime": 0,
        "channel": 0,
        "type": "channel",
        "noteNumber": 60,
        "velocity": 0,
        "subtype": "noteOff"
      },
      {
        "deltaTime": 4,
        "channel": 0,
        "type": "channel",
        "noteNumber": 57,
        "velocity": 65,
        "subtype": "noteOn"
      },
      {
        "deltaTime": 0,
        "channel": 0,
        "type": "channel",
        "noteNumber": 60,
        "velocity": 65,
        "subtype": "noteOn"
      },
      {
        "deltaTime": 0,
        "channel": 0,
        "type": "channel",
        "noteNumber": 64,
        "velocity": 69,
        "subtype": "noteOn"
      },
      {
        "deltaTime": 956,
        "channel": 0,
        "type": "channel",
        "noteNumber": 57,
        "velocity": 0,
        "subtype": "noteOff"
      },
      {
        "deltaTime": 0,
        "channel": 0,
        "type": "channel",
        "noteNumber": 60,
        "velocity": 0,
        "subtype": "noteOff"
      },
      {
        "deltaTime": 0,
        "channel": 0,
        "type": "channel",
        "noteNumber": 64,
        "velocity": 0,
        "subtype": "noteOff"
      },
      {
        "deltaTime": 4,
        "channel": 0,
        "type": "channel",
        "noteNumber": 57,
        "velocity": 62,
        "subtype": "noteOn"
      },
      {
        "deltaTime": 0,
        "channel": 0,
        "type": "channel",
        "noteNumber": 60,
        "velocity": 56,
        "subtype": "noteOn"
      },
      {
        "deltaTime": 0,
        "channel": 0,
        "type": "channel",
        "noteNumber": 65,
        "velocity": 72,
        "subtype": "noteOn"
      },
      {
        "deltaTime": 716,
        "channel": 0,
        "type": "channel",
        "noteNumber": 57,
        "velocity": 0,
        "subtype": "noteOff"
      },
      {
        "deltaTime": 0,
        "channel": 0,
        "type": "channel",
        "noteNumber": 60,
        "velocity": 0,
        "subtype": "noteOff"
      },
      {
        "deltaTime": 0,
        "channel": 0,
        "type": "channel",
        "noteNumber": 65,
        "velocity": 0,
        "subtype": "noteOff"
      },
      {
        "deltaTime": 4,
        "channel": 0,
        "type": "channel",
        "noteNumber": 55,
        "velocity": 61,
        "subtype": "noteOn"
      },
      {
        "deltaTime": 0,
        "channel": 0,
        "type": "channel",
        "noteNumber": 60,
        "velocity": 63,
        "subtype": "noteOn"
      },
      {
        "deltaTime": 0,
        "channel": 0,
        "type": "channel",
        "noteNumber": 64,
        "velocity": 64,
        "subtype": "noteOn"
      },
      {
        "deltaTime": 2156,
        "channel": 0,
        "type": "channel",
        "noteNumber": 55,
        "velocity": 0,
        "subtype": "noteOff"
      },
      {
        "deltaTime": 0,
        "channel": 0,
        "type": "channel",
        "noteNumber": 60,
        "velocity": 0,
        "subtype": "noteOff"
      },
      {
        "deltaTime": 0,
        "channel": 0,
        "type": "channel",
        "noteNumber": 64,
        "velocity": 0,
        "subtype": "noteOff"
      },
      {
        "deltaTime": 4,
        "channel": 0,
        "type": "channel",
        "noteNumber": 57,
        "velocity": 52,
        "subtype": "noteOn"
      },
      {
        "deltaTime": 0,
        "channel": 0,
        "type": "channel",
        "noteNumber": 60,
        "velocity": 62,
        "subtype": "noteOn"
      },
      {
        "deltaTime": 0,
        "channel": 0,
        "type": "channel",
        "noteNumber": 64,
        "velocity": 65,
        "subtype": "noteOn"
      },
      {
        "deltaTime": 956,
        "channel": 0,
        "type": "channel",
        "noteNumber": 57,
        "velocity": 0,
        "subtype": "noteOff"
      },
      {
        "deltaTime": 0,
        "channel": 0,
        "type": "channel",
        "noteNumber": 60,
        "velocity": 0,
        "subtype": "noteOff"
      },
      {
        "deltaTime": 0,
        "channel": 0,
        "type": "channel",
        "noteNumber": 64,
        "velocity": 0,
        "subtype": "noteOff"
      },
      {
        "deltaTime": 4,
        "channel": 0,
        "type": "channel",
        "noteNumber": 57,
        "velocity": 62,
        "subtype": "noteOn"
      },
      {
        "deltaTime": 0,
        "channel": 0,
        "type": "channel",
        "noteNumber": 60,
        "velocity": 55,
        "subtype": "noteOn"
      },
      {
        "deltaTime": 0,
        "channel": 0,
        "type": "channel",
        "noteNumber": 65,
        "velocity": 65,
        "subtype": "noteOn"
      },
      {
        "deltaTime": 716,
        "channel": 0,
        "type": "channel",
        "noteNumber": 57,
        "velocity": 0,
        "subtype": "noteOff"
      },
      {
        "deltaTime": 0,
        "channel": 0,
        "type": "channel",
        "noteNumber": 60,
        "velocity": 0,
        "subtype": "noteOff"
      },
      {
        "deltaTime": 0,
        "channel": 0,
        "type": "channel",
        "noteNumber": 65,
        "velocity": 0,
        "subtype": "noteOff"
      },
      {
        "deltaTime": 4,
        "channel": 0,
        "type": "channel",
        "noteNumber": 55,
        "velocity": 63,
        "subtype": "noteOn"
      },
      {
        "deltaTime": 0,
        "channel": 0,
        "type": "channel",
        "noteNumber": 60,
        "velocity": 63,
        "subtype": "noteOn"
      },
      {
        "deltaTime": 0,
        "channel": 0,
        "type": "channel",
        "noteNumber": 64,
        "velocity": 66,
        "subtype": "noteOn"
      },
      {
        "deltaTime": 2156,
        "channel": 0,
        "type": "channel",
        "noteNumber": 55,
        "velocity": 0,
        "subtype": "noteOff"
      },
      {
        "deltaTime": 0,
        "channel": 0,
        "type": "channel",
        "noteNumber": 60,
        "velocity": 0,
        "subtype": "noteOff"
      },
      {
        "deltaTime": 0,
        "channel": 0,
        "type": "channel",
        "noteNumber": 64,
        "velocity": 0,
        "subtype": "noteOff"
      },
      {
        "deltaTime": 4,
        "channel": 0,
        "type": "channel",
        "noteNumber": 57,
        "velocity": 65,
        "subtype": "noteOn"
      },
      {
        "deltaTime": 0,
        "channel": 0,
        "type": "channel",
        "noteNumber": 60,
        "velocity": 65,
        "subtype": "noteOn"
      },
      {
        "deltaTime": 0,
        "channel": 0,
        "type": "channel",
        "noteNumber": 64,
        "velocity": 69,
        "subtype": "noteOn"
      },
      {
        "deltaTime": 956,
        "channel": 0,
        "type": "channel",
        "noteNumber": 57,
        "velocity": 0,
        "subtype": "noteOff"
      },
      {
        "deltaTime": 0,
        "channel": 0,
        "type": "channel",
        "noteNumber": 60,
        "velocity": 0,
        "subtype": "noteOff"
      },
      {
        "deltaTime": 0,
        "channel": 0,
        "type": "channel",
        "noteNumber": 64,
        "velocity": 0,
        "subtype": "noteOff"
      },
      {
        "deltaTime": 4,
        "channel": 0,
        "type": "channel",
        "noteNumber": 53,
        "velocity": 72,
        "subtype": "noteOn"
      },
      {
        "deltaTime": 0,
        "channel": 0,
        "type": "channel",
        "noteNumber": 57,
        "velocity": 62,
        "subtype": "noteOn"
      },
      {
        "deltaTime": 0,
        "channel": 0,
        "type": "channel",
        "noteNumber": 60,
        "velocity": 56,
        "subtype": "noteOn"
      },
      {
        "deltaTime": 716,
        "channel": 0,
        "type": "channel",
        "noteNumber": 53,
        "velocity": 0,
        "subtype": "noteOff"
      },
      {
        "deltaTime": 0,
        "channel": 0,
        "type": "channel",
        "noteNumber": 57,
        "velocity": 0,
        "subtype": "noteOff"
      },
      {
        "deltaTime": 0,
        "channel": 0,
        "type": "channel",
        "noteNumber": 60,
        "velocity": 0,
        "subtype": "noteOff"
      },
      {
        "deltaTime": 4,
        "channel": 0,
        "type": "channel",
        "noteNumber": 48,
        "velocity": 63,
        "subtype": "noteOn"
      },
      {
        "deltaTime": 0,
        "channel": 0,
        "type": "channel",
        "noteNumber": 52,
        "velocity": 64,
        "subtype": "noteOn"
      },
      {
        "deltaTime": 0,
        "channel": 0,
        "type": "channel",
        "noteNumber": 55,
        "velocity": 61,
        "subtype": "noteOn"
      },
      {
        "deltaTime": 2156,
        "channel": 0,
        "type": "channel",
        "noteNumber": 48,
        "velocity": 0,
        "subtype": "noteOff"
      },
      {
        "deltaTime": 0,
        "channel": 0,
        "type": "channel",
        "noteNumber": 52,
        "velocity": 0,
        "subtype": "noteOff"
      },
      {
        "deltaTime": 0,
        "channel": 0,
        "type": "channel",
        "noteNumber": 55,
        "velocity": 0,
        "subtype": "noteOff"
      },
      {
        "deltaTime": 4,
        "channel": 0,
        "type": "channel",
        "noteNumber": 57,
        "velocity": 52,
        "subtype": "noteOn"
      },
      {
        "deltaTime": 0,
        "channel": 0,
        "type": "channel",
        "noteNumber": 60,
        "velocity": 62,
        "subtype": "noteOn"
      },
      {
        "deltaTime": 0,
        "channel": 0,
        "type": "channel",
        "noteNumber": 64,
        "velocity": 65,
        "subtype": "noteOn"
      },
      {
        "deltaTime": 956,
        "channel": 0,
        "type": "channel",
        "noteNumber": 57,
        "velocity": 0,
        "subtype": "noteOff"
      },
      {
        "deltaTime": 0,
        "channel": 0,
        "type": "channel",
        "noteNumber": 60,
        "velocity": 0,
        "subtype": "noteOff"
      },
      {
        "deltaTime": 0,
        "channel": 0,
        "type": "channel",
        "noteNumber": 64,
        "velocity": 0,
        "subtype": "noteOff"
      },
      {
        "deltaTime": 4,
        "channel": 0,
        "type": "channel",
        "noteNumber": 57,
        "velocity": 62,
        "subtype": "noteOn"
      },
      {
        "deltaTime": 0,
        "channel": 0,
        "type": "channel",
        "noteNumber": 60,
        "velocity": 55,
        "subtype": "noteOn"
      },
      {
        "deltaTime": 0,
        "channel": 0,
        "type": "channel",
        "noteNumber": 65,
        "velocity": 65,
        "subtype": "noteOn"
      },
      {
        "deltaTime": 716,
        "channel": 0,
        "type": "channel",
        "noteNumber": 57,
        "velocity": 0,
        "subtype": "noteOff"
      },
      {
        "deltaTime": 0,
        "channel": 0,
        "type": "channel",
        "noteNumber": 60,
        "velocity": 0,
        "subtype": "noteOff"
      },
      {
        "deltaTime": 0,
        "channel": 0,
        "type": "channel",
        "noteNumber": 65,
        "velocity": 0,
        "subtype": "noteOff"
      },
      {
        "deltaTime": 4,
        "channel": 0,
        "type": "channel",
        "noteNumber": 55,
        "velocity": 63,
        "subtype": "noteOn"
      },
      {
        "deltaTime": 0,
        "channel": 0,
        "type": "channel",
        "noteNumber": 60,
        "velocity": 63,
        "subtype": "noteOn"
      },
      {
        "deltaTime": 0,
        "channel": 0,
        "type": "channel",
        "noteNumber": 64,
        "velocity": 66,
        "subtype": "noteOn"
      },
      {
        "deltaTime": 1680,
        "channel": 0,
        "type": "channel",
        "noteNumber": 55,
        "velocity": 0,
        "subtype": "noteOff"
      },
      {
        "deltaTime": 0,
        "channel": 0,
        "type": "channel",
        "noteNumber": 56,
        "velocity": 63,
        "subtype": "noteOn"
      },
      {
        "deltaTime": 0,
        "channel": 0,
        "type": "channel",
        "noteNumber": 60,
        "velocity": 0,
        "subtype": "noteOff"
      },
      {
        "deltaTime": 0,
        "channel": 0,
        "type": "channel",
        "noteNumber": 60,
        "velocity": 63,
        "subtype": "noteOn"
      },
      {
        "deltaTime": 0,
        "channel": 0,
        "type": "channel",
        "noteNumber": 64,
        "velocity": 0,
        "subtype": "noteOff"
      },
      {
        "deltaTime": 0,
        "channel": 0,
        "type": "channel",
        "noteNumber": 64,
        "velocity": 66,
        "subtype": "noteOn"
      },
      {
        "deltaTime": 476,
        "channel": 0,
        "type": "channel",
        "noteNumber": 56,
        "velocity": 0,
        "subtype": "noteOff"
      },
      {
        "deltaTime": 0,
        "channel": 0,
        "type": "channel",
        "noteNumber": 60,
        "velocity": 0,
        "subtype": "noteOff"
      },
      {
        "deltaTime": 0,
        "channel": 0,
        "type": "channel",
        "noteNumber": 64,
        "velocity": 0,
        "subtype": "noteOff"
      },
      {
        "deltaTime": 4,
        "channel": 0,
        "type": "channel",
        "noteNumber": 57,
        "velocity": 65,
        "subtype": "noteOn"
      },
      {
        "deltaTime": 0,
        "channel": 0,
        "type": "channel",
        "noteNumber": 60,
        "velocity": 65,
        "subtype": "noteOn"
      },
      {
        "deltaTime": 0,
        "channel": 0,
        "type": "channel",
        "noteNumber": 64,
        "velocity": 69,
        "subtype": "noteOn"
      },
      {
        "deltaTime": 956,
        "channel": 0,
        "type": "channel",
        "noteNumber": 57,
        "velocity": 0,
        "subtype": "noteOff"
      },
      {
        "deltaTime": 0,
        "channel": 0,
        "type": "channel",
        "noteNumber": 60,
        "velocity": 0,
        "subtype": "noteOff"
      },
      {
        "deltaTime": 0,
        "channel": 0,
        "type": "channel",
        "noteNumber": 64,
        "velocity": 0,
        "subtype": "noteOff"
      },
      {
        "deltaTime": 4,
        "channel": 0,
        "type": "channel",
        "noteNumber": 53,
        "velocity": 72,
        "subtype": "noteOn"
      },
      {
        "deltaTime": 0,
        "channel": 0,
        "type": "channel",
        "noteNumber": 57,
        "velocity": 62,
        "subtype": "noteOn"
      },
      {
        "deltaTime": 0,
        "channel": 0,
        "type": "channel",
        "noteNumber": 60,
        "velocity": 56,
        "subtype": "noteOn"
      },
      {
        "deltaTime": 716,
        "channel": 0,
        "type": "channel",
        "noteNumber": 53,
        "velocity": 0,
        "subtype": "noteOff"
      },
      {
        "deltaTime": 0,
        "channel": 0,
        "type": "channel",
        "noteNumber": 57,
        "velocity": 0,
        "subtype": "noteOff"
      },
      {
        "deltaTime": 0,
        "channel": 0,
        "type": "channel",
        "noteNumber": 60,
        "velocity": 0,
        "subtype": "noteOff"
      },
      {
        "deltaTime": 4,
        "channel": 0,
        "type": "channel",
        "noteNumber": 48,
        "velocity": 63,
        "subtype": "noteOn"
      },
      {
        "deltaTime": 0,
        "channel": 0,
        "type": "channel",
        "noteNumber": 52,
        "velocity": 64,
        "subtype": "noteOn"
      },
      {
        "deltaTime": 0,
        "channel": 0,
        "type": "channel",
        "noteNumber": 55,
        "velocity": 61,
        "subtype": "noteOn"
      },
      {
        "deltaTime": 2156,
        "channel": 0,
        "type": "channel",
        "noteNumber": 48,
        "velocity": 0,
        "subtype": "noteOff"
      },
      {
        "deltaTime": 0,
        "channel": 0,
        "type": "channel",
        "noteNumber": 52,
        "velocity": 0,
        "subtype": "noteOff"
      },
      {
        "deltaTime": 0,
        "channel": 0,
        "type": "channel",
        "noteNumber": 55,
        "velocity": 0,
        "subtype": "noteOff"
      },
      {
        "deltaTime": 4,
        "channel": 0,
        "type": "channel",
        "noteNumber": 57,
        "velocity": 52,
        "subtype": "noteOn"
      },
      {
        "deltaTime": 0,
        "channel": 0,
        "type": "channel",
        "noteNumber": 60,
        "velocity": 62,
        "subtype": "noteOn"
      },
      {
        "deltaTime": 0,
        "channel": 0,
        "type": "channel",
        "noteNumber": 64,
        "velocity": 65,
        "subtype": "noteOn"
      },
      {
        "deltaTime": 956,
        "channel": 0,
        "type": "channel",
        "noteNumber": 57,
        "velocity": 0,
        "subtype": "noteOff"
      },
      {
        "deltaTime": 0,
        "channel": 0,
        "type": "channel",
        "noteNumber": 60,
        "velocity": 0,
        "subtype": "noteOff"
      },
      {
        "deltaTime": 0,
        "channel": 0,
        "type": "channel",
        "noteNumber": 64,
        "velocity": 0,
        "subtype": "noteOff"
      },
      {
        "deltaTime": 4,
        "channel": 0,
        "type": "channel",
        "noteNumber": 57,
        "velocity": 62,
        "subtype": "noteOn"
      },
      {
        "deltaTime": 0,
        "channel": 0,
        "type": "channel",
        "noteNumber": 60,
        "velocity": 55,
        "subtype": "noteOn"
      },
      {
        "deltaTime": 0,
        "channel": 0,
        "type": "channel",
        "noteNumber": 65,
        "velocity": 65,
        "subtype": "noteOn"
      },
      {
        "deltaTime": 716,
        "channel": 0,
        "type": "channel",
        "noteNumber": 57,
        "velocity": 0,
        "subtype": "noteOff"
      },
      {
        "deltaTime": 0,
        "channel": 0,
        "type": "channel",
        "noteNumber": 60,
        "velocity": 0,
        "subtype": "noteOff"
      },
      {
        "deltaTime": 0,
        "channel": 0,
        "type": "channel",
        "noteNumber": 65,
        "velocity": 0,
        "subtype": "noteOff"
      },
      {
        "deltaTime": 4,
        "channel": 0,
        "type": "channel",
        "noteNumber": 55,
        "velocity": 63,
        "subtype": "noteOn"
      },
      {
        "deltaTime": 0,
        "channel": 0,
        "type": "channel",
        "noteNumber": 60,
        "velocity": 63,
        "subtype": "noteOn"
      },
      {
        "deltaTime": 0,
        "channel": 0,
        "type": "channel",
        "noteNumber": 64,
        "velocity": 66,
        "subtype": "noteOn"
      },
      {
        "deltaTime": 2156,
        "channel": 0,
        "type": "channel",
        "noteNumber": 55,
        "velocity": 0,
        "subtype": "noteOff"
      },
      {
        "deltaTime": 0,
        "channel": 0,
        "type": "channel",
        "noteNumber": 60,
        "velocity": 0,
        "subtype": "noteOff"
      },
      {
        "deltaTime": 0,
        "channel": 0,
        "type": "channel",
        "noteNumber": 64,
        "velocity": 0,
        "subtype": "noteOff"
      },
      {
        "deltaTime": 4,
        "channel": 0,
        "type": "channel",
        "noteNumber": 57,
        "velocity": 65,
        "subtype": "noteOn"
      },
      {
        "deltaTime": 0,
        "channel": 0,
        "type": "channel",
        "noteNumber": 60,
        "velocity": 65,
        "subtype": "noteOn"
      },
      {
        "deltaTime": 0,
        "channel": 0,
        "type": "channel",
        "noteNumber": 64,
        "velocity": 69,
        "subtype": "noteOn"
      },
      {
        "deltaTime": 956,
        "channel": 0,
        "type": "channel",
        "noteNumber": 57,
        "velocity": 0,
        "subtype": "noteOff"
      },
      {
        "deltaTime": 0,
        "channel": 0,
        "type": "channel",
        "noteNumber": 60,
        "velocity": 0,
        "subtype": "noteOff"
      },
      {
        "deltaTime": 0,
        "channel": 0,
        "type": "channel",
        "noteNumber": 64,
        "velocity": 0,
        "subtype": "noteOff"
      },
      {
        "deltaTime": 4,
        "channel": 0,
        "type": "channel",
        "noteNumber": 57,
        "velocity": 62,
        "subtype": "noteOn"
      },
      {
        "deltaTime": 0,
        "channel": 0,
        "type": "channel",
        "noteNumber": 60,
        "velocity": 56,
        "subtype": "noteOn"
      },
      {
        "deltaTime": 0,
        "channel": 0,
        "type": "channel",
        "noteNumber": 65,
        "velocity": 72,
        "subtype": "noteOn"
      },
      {
        "deltaTime": 716,
        "channel": 0,
        "type": "channel",
        "noteNumber": 57,
        "velocity": 0,
        "subtype": "noteOff"
      },
      {
        "deltaTime": 0,
        "channel": 0,
        "type": "channel",
        "noteNumber": 60,
        "velocity": 0,
        "subtype": "noteOff"
      },
      {
        "deltaTime": 0,
        "channel": 0,
        "type": "channel",
        "noteNumber": 65,
        "velocity": 0,
        "subtype": "noteOff"
      },
      {
        "deltaTime": 4,
        "channel": 0,
        "type": "channel",
        "noteNumber": 55,
        "velocity": 61,
        "subtype": "noteOn"
      },
      {
        "deltaTime": 0,
        "channel": 0,
        "type": "channel",
        "noteNumber": 60,
        "velocity": 63,
        "subtype": "noteOn"
      },
      {
        "deltaTime": 0,
        "channel": 0,
        "type": "channel",
        "noteNumber": 64,
        "velocity": 64,
        "subtype": "noteOn"
      },
      {
        "deltaTime": 2156,
        "channel": 0,
        "type": "channel",
        "noteNumber": 55,
        "velocity": 0,
        "subtype": "noteOff"
      },
      {
        "deltaTime": 0,
        "channel": 0,
        "type": "channel",
        "noteNumber": 60,
        "velocity": 0,
        "subtype": "noteOff"
      },
      {
        "deltaTime": 0,
        "channel": 0,
        "type": "channel",
        "noteNumber": 64,
        "velocity": 0,
        "subtype": "noteOff"
      },
      {
        "deltaTime": 4,
        "channel": 0,
        "type": "channel",
        "noteNumber": 57,
        "velocity": 52,
        "subtype": "noteOn"
      },
      {
        "deltaTime": 0,
        "channel": 0,
        "type": "channel",
        "noteNumber": 60,
        "velocity": 62,
        "subtype": "noteOn"
      },
      {
        "deltaTime": 0,
        "channel": 0,
        "type": "channel",
        "noteNumber": 64,
        "velocity": 65,
        "subtype": "noteOn"
      },
      {
        "deltaTime": 956,
        "channel": 0,
        "type": "channel",
        "noteNumber": 57,
        "velocity": 0,
        "subtype": "noteOff"
      },
      {
        "deltaTime": 0,
        "channel": 0,
        "type": "channel",
        "noteNumber": 60,
        "velocity": 0,
        "subtype": "noteOff"
      },
      {
        "deltaTime": 0,
        "channel": 0,
        "type": "channel",
        "noteNumber": 64,
        "velocity": 0,
        "subtype": "noteOff"
      },
      {
        "deltaTime": 4,
        "channel": 0,
        "type": "channel",
        "noteNumber": 57,
        "velocity": 62,
        "subtype": "noteOn"
      },
      {
        "deltaTime": 0,
        "channel": 0,
        "type": "channel",
        "noteNumber": 60,
        "velocity": 55,
        "subtype": "noteOn"
      },
      {
        "deltaTime": 0,
        "channel": 0,
        "type": "channel",
        "noteNumber": 65,
        "velocity": 65,
        "subtype": "noteOn"
      },
      {
        "deltaTime": 716,
        "channel": 0,
        "type": "channel",
        "noteNumber": 57,
        "velocity": 0,
        "subtype": "noteOff"
      },
      {
        "deltaTime": 0,
        "channel": 0,
        "type": "channel",
        "noteNumber": 60,
        "velocity": 0,
        "subtype": "noteOff"
      },
      {
        "deltaTime": 0,
        "channel": 0,
        "type": "channel",
        "noteNumber": 65,
        "velocity": 0,
        "subtype": "noteOff"
      },
      {
        "deltaTime": 4,
        "channel": 0,
        "type": "channel",
        "noteNumber": 55,
        "velocity": 63,
        "subtype": "noteOn"
      },
      {
        "deltaTime": 0,
        "channel": 0,
        "type": "channel",
        "noteNumber": 60,
        "velocity": 63,
        "subtype": "noteOn"
      },
      {
        "deltaTime": 0,
        "channel": 0,
        "type": "channel",
        "noteNumber": 64,
        "velocity": 66,
        "subtype": "noteOn"
      },
      {
        "deltaTime": 2156,
        "channel": 0,
        "type": "channel",
        "noteNumber": 55,
        "velocity": 0,
        "subtype": "noteOff"
      },
      {
        "deltaTime": 0,
        "channel": 0,
        "type": "channel",
        "noteNumber": 60,
        "velocity": 0,
        "subtype": "noteOff"
      },
      {
        "deltaTime": 0,
        "channel": 0,
        "type": "channel",
        "noteNumber": 64,
        "velocity": 0,
        "subtype": "noteOff"
      },
      {
        "deltaTime": 4,
        "channel": 0,
        "type": "channel",
        "noteNumber": 57,
        "velocity": 65,
        "subtype": "noteOn"
      },
      {
        "deltaTime": 0,
        "channel": 0,
        "type": "channel",
        "noteNumber": 60,
        "velocity": 65,
        "subtype": "noteOn"
      },
      {
        "deltaTime": 0,
        "channel": 0,
        "type": "channel",
        "noteNumber": 64,
        "velocity": 69,
        "subtype": "noteOn"
      },
      {
        "deltaTime": 956,
        "channel": 0,
        "type": "channel",
        "noteNumber": 57,
        "velocity": 0,
        "subtype": "noteOff"
      },
      {
        "deltaTime": 0,
        "channel": 0,
        "type": "channel",
        "noteNumber": 60,
        "velocity": 0,
        "subtype": "noteOff"
      },
      {
        "deltaTime": 0,
        "channel": 0,
        "type": "channel",
        "noteNumber": 64,
        "velocity": 0,
        "subtype": "noteOff"
      },
      {
        "deltaTime": 4,
        "channel": 0,
        "type": "channel",
        "noteNumber": 55,
        "velocity": 62,
        "subtype": "noteOn"
      },
      {
        "deltaTime": 0,
        "channel": 0,
        "type": "channel",
        "noteNumber": 60,
        "velocity": 56,
        "subtype": "noteOn"
      },
      {
        "deltaTime": 0,
        "channel": 0,
        "type": "channel",
        "noteNumber": 65,
        "velocity": 72,
        "subtype": "noteOn"
      },
      {
        "deltaTime": 716,
        "channel": 0,
        "type": "channel",
        "noteNumber": 55,
        "velocity": 0,
        "subtype": "noteOff"
      },
      {
        "deltaTime": 0,
        "channel": 0,
        "type": "channel",
        "noteNumber": 60,
        "velocity": 0,
        "subtype": "noteOff"
      },
      {
        "deltaTime": 0,
        "channel": 0,
        "type": "channel",
        "noteNumber": 65,
        "velocity": 0,
        "subtype": "noteOff"
      },
      {
        "deltaTime": 4,
        "channel": 0,
        "type": "channel",
        "noteNumber": 55,
        "velocity": 61,
        "subtype": "noteOn"
      },
      {
        "deltaTime": 0,
        "channel": 0,
        "type": "channel",
        "noteNumber": 60,
        "velocity": 63,
        "subtype": "noteOn"
      },
      {
        "deltaTime": 0,
        "channel": 0,
        "type": "channel",
        "noteNumber": 64,
        "velocity": 64,
        "subtype": "noteOn"
      },
      {
        "deltaTime": 2156,
        "channel": 0,
        "type": "channel",
        "noteNumber": 55,
        "velocity": 0,
        "subtype": "noteOff"
      },
      {
        "deltaTime": 0,
        "channel": 0,
        "type": "channel",
        "noteNumber": 60,
        "velocity": 0,
        "subtype": "noteOff"
      },
      {
        "deltaTime": 0,
        "channel": 0,
        "type": "channel",
        "noteNumber": 64,
        "velocity": 0,
        "subtype": "noteOff"
      },
      {
        "deltaTime": 4,
        "channel": 0,
        "type": "channel",
        "noteNumber": 45,
        "velocity": 62,
        "subtype": "noteOn"
      },
      {
        "deltaTime": 0,
        "channel": 0,
        "type": "channel",
        "noteNumber": 48,
        "velocity": 55,
        "subtype": "noteOn"
      },
      {
        "deltaTime": 0,
        "channel": 0,
        "type": "channel",
        "noteNumber": 55,
        "velocity": 59,
        "subtype": "noteOn"
      },
      {
        "deltaTime": 476,
        "channel": 0,
        "type": "channel",
        "noteNumber": 45,
        "velocity": 0,
        "subtype": "noteOff"
      },
      {
        "deltaTime": 0,
        "channel": 0,
        "type": "channel",
        "noteNumber": 48,
        "velocity": 0,
        "subtype": "noteOff"
      },
      {
        "deltaTime": 0,
        "channel": 0,
        "type": "channel",
        "noteNumber": 55,
        "velocity": 0,
        "subtype": "noteOff"
      },
      {
        "deltaTime": 4,
        "channel": 0,
        "type": "channel",
        "noteNumber": 45,
        "velocity": 62,
        "subtype": "noteOn"
      },
      {
        "deltaTime": 0,
        "channel": 0,
        "type": "channel",
        "noteNumber": 48,
        "velocity": 61,
        "subtype": "noteOn"
      },
      {
        "deltaTime": 0,
        "channel": 0,
        "type": "channel",
        "noteNumber": 55,
        "velocity": 65,
        "subtype": "noteOn"
      },
      {
        "deltaTime": 476,
        "channel": 0,
        "type": "channel",
        "noteNumber": 45,
        "velocity": 0,
        "subtype": "noteOff"
      },
      {
        "deltaTime": 0,
        "channel": 0,
        "type": "channel",
        "noteNumber": 48,
        "velocity": 0,
        "subtype": "noteOff"
      },
      {
        "deltaTime": 0,
        "channel": 0,
        "type": "channel",
        "noteNumber": 55,
        "velocity": 0,
        "subtype": "noteOff"
      },
      {
        "deltaTime": 4,
        "channel": 0,
        "type": "channel",
        "noteNumber": 48,
        "velocity": 61,
        "subtype": "noteOn"
      },
      {
        "deltaTime": 0,
        "channel": 0,
        "type": "channel",
        "noteNumber": 53,
        "velocity": 67,
        "subtype": "noteOn"
      },
      {
        "deltaTime": 0,
        "channel": 0,
        "type": "channel",
        "noteNumber": 57,
        "velocity": 65,
        "subtype": "noteOn"
      },
      {
        "deltaTime": 716,
        "channel": 0,
        "type": "channel",
        "noteNumber": 48,
        "velocity": 0,
        "subtype": "noteOff"
      },
      {
        "deltaTime": 0,
        "channel": 0,
        "type": "channel",
        "noteNumber": 53,
        "velocity": 0,
        "subtype": "noteOff"
      },
      {
        "deltaTime": 0,
        "channel": 0,
        "type": "channel",
        "noteNumber": 57,
        "velocity": 0,
        "subtype": "noteOff"
      },
      {
        "deltaTime": 4,
        "channel": 0,
        "type": "channel",
        "noteNumber": 48,
        "velocity": 59,
        "subtype": "noteOn"
      },
      {
        "deltaTime": 0,
        "channel": 0,
        "type": "channel",
        "noteNumber": 52,
        "velocity": 56,
        "subtype": "noteOn"
      },
      {
        "deltaTime": 0,
        "channel": 0,
        "type": "channel",
        "noteNumber": 55,
        "velocity": 59,
        "subtype": "noteOn"
      },
      {
        "deltaTime": 716,
        "channel": 0,
        "type": "channel",
        "noteNumber": 48,
        "velocity": 0,
        "subtype": "noteOff"
      },
      {
        "deltaTime": 0,
        "channel": 0,
        "type": "channel",
        "noteNumber": 52,
        "velocity": 0,
        "subtype": "noteOff"
      },
      {
        "deltaTime": 0,
        "channel": 0,
        "type": "channel",
        "noteNumber": 55,
        "velocity": 0,
        "subtype": "noteOff"
      },
      {
        "deltaTime": 4,
        "channel": 0,
        "type": "channel",
        "noteNumber": 48,
        "velocity": 65,
        "subtype": "noteOn"
      },
      {
        "deltaTime": 0,
        "channel": 0,
        "type": "channel",
        "noteNumber": 52,
        "velocity": 57,
        "subtype": "noteOn"
      },
      {
        "deltaTime": 0,
        "channel": 0,
        "type": "channel",
        "noteNumber": 55,
        "velocity": 55,
        "subtype": "noteOn"
      },
      {
        "deltaTime": 476,
        "channel": 0,
        "type": "channel",
        "noteNumber": 48,
        "velocity": 0,
        "subtype": "noteOff"
      },
      {
        "deltaTime": 0,
        "channel": 0,
        "type": "channel",
        "noteNumber": 52,
        "velocity": 0,
        "subtype": "noteOff"
      },
      {
        "deltaTime": 0,
        "channel": 0,
        "type": "channel",
        "noteNumber": 55,
        "velocity": 0,
        "subtype": "noteOff"
      },
      {
        "deltaTime": 4,
        "channel": 0,
        "type": "channel",
        "noteNumber": 48,
        "velocity": 65,
        "subtype": "noteOn"
      },
      {
        "deltaTime": 0,
        "channel": 0,
        "type": "channel",
        "noteNumber": 52,
        "velocity": 54,
        "subtype": "noteOn"
      },
      {
        "deltaTime": 0,
        "channel": 0,
        "type": "channel",
        "noteNumber": 55,
        "velocity": 54,
        "subtype": "noteOn"
      },
      {
        "deltaTime": 476,
        "channel": 0,
        "type": "channel",
        "noteNumber": 48,
        "velocity": 0,
        "subtype": "noteOff"
      },
      {
        "deltaTime": 0,
        "channel": 0,
        "type": "channel",
        "noteNumber": 52,
        "velocity": 0,
        "subtype": "noteOff"
      },
      {
        "deltaTime": 0,
        "channel": 0,
        "type": "channel",
        "noteNumber": 55,
        "velocity": 0,
        "subtype": "noteOff"
      },
      {
        "deltaTime": 4,
        "channel": 0,
        "type": "channel",
        "noteNumber": 48,
        "velocity": 62,
        "subtype": "noteOn"
      },
      {
        "deltaTime": 0,
        "channel": 0,
        "type": "channel",
        "noteNumber": 52,
        "velocity": 61,
        "subtype": "noteOn"
      },
      {
        "deltaTime": 0,
        "channel": 0,
        "type": "channel",
        "noteNumber": 55,
        "velocity": 58,
        "subtype": "noteOn"
      },
      {
        "deltaTime": 476,
        "channel": 0,
        "type": "channel",
        "noteNumber": 48,
        "velocity": 0,
        "subtype": "noteOff"
      },
      {
        "deltaTime": 0,
        "channel": 0,
        "type": "channel",
        "noteNumber": 52,
        "velocity": 0,
        "subtype": "noteOff"
      },
      {
        "deltaTime": 0,
        "channel": 0,
        "type": "channel",
        "noteNumber": 55,
        "velocity": 0,
        "subtype": "noteOff"
      },
      {
        "deltaTime": 4,
        "channel": 0,
        "type": "channel",
        "noteNumber": 45,
        "velocity": 62,
        "subtype": "noteOn"
      },
      {
        "deltaTime": 0,
        "channel": 0,
        "type": "channel",
        "noteNumber": 48,
        "velocity": 64,
        "subtype": "noteOn"
      },
      {
        "deltaTime": 0,
        "channel": 0,
        "type": "channel",
        "noteNumber": 55,
        "velocity": 61,
        "subtype": "noteOn"
      },
      {
        "deltaTime": 476,
        "channel": 0,
        "type": "channel",
        "noteNumber": 45,
        "velocity": 0,
        "subtype": "noteOff"
      },
      {
        "deltaTime": 0,
        "channel": 0,
        "type": "channel",
        "noteNumber": 48,
        "velocity": 0,
        "subtype": "noteOff"
      },
      {
        "deltaTime": 0,
        "channel": 0,
        "type": "channel",
        "noteNumber": 55,
        "velocity": 0,
        "subtype": "noteOff"
      },
      {
        "deltaTime": 4,
        "channel": 0,
        "type": "channel",
        "noteNumber": 45,
        "velocity": 60,
        "subtype": "noteOn"
      },
      {
        "deltaTime": 0,
        "channel": 0,
        "type": "channel",
        "noteNumber": 48,
        "velocity": 59,
        "subtype": "noteOn"
      },
      {
        "deltaTime": 0,
        "channel": 0,
        "type": "channel",
        "noteNumber": 55,
        "velocity": 54,
        "subtype": "noteOn"
      },
      {
        "deltaTime": 476,
        "channel": 0,
        "type": "channel",
        "noteNumber": 45,
        "velocity": 0,
        "subtype": "noteOff"
      },
      {
        "deltaTime": 0,
        "channel": 0,
        "type": "channel",
        "noteNumber": 48,
        "velocity": 0,
        "subtype": "noteOff"
      },
      {
        "deltaTime": 0,
        "channel": 0,
        "type": "channel",
        "noteNumber": 55,
        "velocity": 0,
        "subtype": "noteOff"
      },
      {
        "deltaTime": 4,
        "channel": 0,
        "type": "channel",
        "noteNumber": 48,
        "velocity": 66,
        "subtype": "noteOn"
      },
      {
        "deltaTime": 0,
        "channel": 0,
        "type": "channel",
        "noteNumber": 53,
        "velocity": 66,
        "subtype": "noteOn"
      },
      {
        "deltaTime": 0,
        "channel": 0,
        "type": "channel",
        "noteNumber": 57,
        "velocity": 64,
        "subtype": "noteOn"
      },
      {
        "deltaTime": 716,
        "channel": 0,
        "type": "channel",
        "noteNumber": 48,
        "velocity": 0,
        "subtype": "noteOff"
      },
      {
        "deltaTime": 0,
        "channel": 0,
        "type": "channel",
        "noteNumber": 53,
        "velocity": 0,
        "subtype": "noteOff"
      },
      {
        "deltaTime": 0,
        "channel": 0,
        "type": "channel",
        "noteNumber": 57,
        "velocity": 0,
        "subtype": "noteOff"
      },
      {
        "deltaTime": 4,
        "channel": 0,
        "type": "channel",
        "noteNumber": 48,
        "velocity": 64,
        "subtype": "noteOn"
      },
      {
        "deltaTime": 0,
        "channel": 0,
        "type": "channel",
        "noteNumber": 52,
        "velocity": 55,
        "subtype": "noteOn"
      },
      {
        "deltaTime": 0,
        "channel": 0,
        "type": "channel",
        "noteNumber": 55,
        "velocity": 64,
        "subtype": "noteOn"
      },
      {
        "deltaTime": 716,
        "channel": 0,
        "type": "channel",
        "noteNumber": 48,
        "velocity": 0,
        "subtype": "noteOff"
      },
      {
        "deltaTime": 0,
        "channel": 0,
        "type": "channel",
        "noteNumber": 52,
        "velocity": 0,
        "subtype": "noteOff"
      },
      {
        "deltaTime": 0,
        "channel": 0,
        "type": "channel",
        "noteNumber": 55,
        "velocity": 0,
        "subtype": "noteOff"
      },
      {
        "deltaTime": 4,
        "channel": 0,
        "type": "channel",
        "noteNumber": 48,
        "velocity": 66,
        "subtype": "noteOn"
      },
      {
        "deltaTime": 0,
        "channel": 0,
        "type": "channel",
        "noteNumber": 52,
        "velocity": 61,
        "subtype": "noteOn"
      },
      {
        "deltaTime": 0,
        "channel": 0,
        "type": "channel",
        "noteNumber": 55,
        "velocity": 56,
        "subtype": "noteOn"
      },
      {
        "deltaTime": 476,
        "channel": 0,
        "type": "channel",
        "noteNumber": 48,
        "velocity": 0,
        "subtype": "noteOff"
      },
      {
        "deltaTime": 0,
        "channel": 0,
        "type": "channel",
        "noteNumber": 52,
        "velocity": 0,
        "subtype": "noteOff"
      },
      {
        "deltaTime": 0,
        "channel": 0,
        "type": "channel",
        "noteNumber": 55,
        "velocity": 0,
        "subtype": "noteOff"
      },
      {
        "deltaTime": 4,
        "channel": 0,
        "type": "channel",
        "noteNumber": 48,
        "velocity": 63,
        "subtype": "noteOn"
      },
      {
        "deltaTime": 0,
        "channel": 0,
        "type": "channel",
        "noteNumber": 52,
        "velocity": 52,
        "subtype": "noteOn"
      },
      {
        "deltaTime": 0,
        "channel": 0,
        "type": "channel",
        "noteNumber": 55,
        "velocity": 50,
        "subtype": "noteOn"
      },
      {
        "deltaTime": 476,
        "channel": 0,
        "type": "channel",
        "noteNumber": 48,
        "velocity": 0,
        "subtype": "noteOff"
      },
      {
        "deltaTime": 0,
        "channel": 0,
        "type": "channel",
        "noteNumber": 52,
        "velocity": 0,
        "subtype": "noteOff"
      },
      {
        "deltaTime": 0,
        "channel": 0,
        "type": "channel",
        "noteNumber": 55,
        "velocity": 0,
        "subtype": "noteOff"
      },
      {
        "deltaTime": 4,
        "channel": 0,
        "type": "channel",
        "noteNumber": 48,
        "velocity": 62,
        "subtype": "noteOn"
      },
      {
        "deltaTime": 0,
        "channel": 0,
        "type": "channel",
        "noteNumber": 52,
        "velocity": 54,
        "subtype": "noteOn"
      },
      {
        "deltaTime": 0,
        "channel": 0,
        "type": "channel",
        "noteNumber": 55,
        "velocity": 51,
        "subtype": "noteOn"
      },
      {
        "deltaTime": 476,
        "channel": 0,
        "type": "channel",
        "noteNumber": 48,
        "velocity": 0,
        "subtype": "noteOff"
      },
      {
        "deltaTime": 0,
        "channel": 0,
        "type": "channel",
        "noteNumber": 52,
        "velocity": 0,
        "subtype": "noteOff"
      },
      {
        "deltaTime": 0,
        "channel": 0,
        "type": "channel",
        "noteNumber": 55,
        "velocity": 0,
        "subtype": "noteOff"
      },
      {
        "deltaTime": 4,
        "channel": 0,
        "type": "channel",
        "noteNumber": 45,
        "velocity": 57,
        "subtype": "noteOn"
      },
      {
        "deltaTime": 0,
        "channel": 0,
        "type": "channel",
        "noteNumber": 48,
        "velocity": 61,
        "subtype": "noteOn"
      },
      {
        "deltaTime": 0,
        "channel": 0,
        "type": "channel",
        "noteNumber": 55,
        "velocity": 56,
        "subtype": "noteOn"
      },
      {
        "deltaTime": 480,
        "channel": 0,
        "type": "channel",
        "noteNumber": 45,
        "velocity": 0,
        "subtype": "noteOff"
      },
      {
        "deltaTime": 0,
        "channel": 0,
        "type": "channel",
        "noteNumber": 45,
        "velocity": 57,
        "subtype": "noteOn"
      },
      {
        "deltaTime": 0,
        "channel": 0,
        "type": "channel",
        "noteNumber": 48,
        "velocity": 0,
        "subtype": "noteOff"
      },
      {
        "deltaTime": 0,
        "channel": 0,
        "type": "channel",
        "noteNumber": 48,
        "velocity": 61,
        "subtype": "noteOn"
      },
      {
        "deltaTime": 0,
        "channel": 0,
        "type": "channel",
        "noteNumber": 55,
        "velocity": 0,
        "subtype": "noteOff"
      },
      {
        "deltaTime": 0,
        "channel": 0,
        "type": "channel",
        "noteNumber": 55,
        "velocity": 56,
        "subtype": "noteOn"
      },
      {
        "deltaTime": 476,
        "channel": 0,
        "type": "channel",
        "noteNumber": 45,
        "velocity": 0,
        "subtype": "noteOff"
      },
      {
        "deltaTime": 0,
        "channel": 0,
        "type": "channel",
        "noteNumber": 48,
        "velocity": 0,
        "subtype": "noteOff"
      },
      {
        "deltaTime": 0,
        "channel": 0,
        "type": "channel",
        "noteNumber": 55,
        "velocity": 0,
        "subtype": "noteOff"
      },
      {
        "deltaTime": 4,
        "channel": 0,
        "type": "channel",
        "noteNumber": 48,
        "velocity": 68,
        "subtype": "noteOn"
      },
      {
        "deltaTime": 0,
        "channel": 0,
        "type": "channel",
        "noteNumber": 53,
        "velocity": 63,
        "subtype": "noteOn"
      },
      {
        "deltaTime": 0,
        "channel": 0,
        "type": "channel",
        "noteNumber": 57,
        "velocity": 63,
        "subtype": "noteOn"
      },
      {
        "deltaTime": 716,
        "channel": 0,
        "type": "channel",
        "noteNumber": 48,
        "velocity": 0,
        "subtype": "noteOff"
      },
      {
        "deltaTime": 0,
        "channel": 0,
        "type": "channel",
        "noteNumber": 53,
        "velocity": 0,
        "subtype": "noteOff"
      },
      {
        "deltaTime": 0,
        "channel": 0,
        "type": "channel",
        "noteNumber": 57,
        "velocity": 0,
        "subtype": "noteOff"
      },
      {
        "deltaTime": 4,
        "channel": 0,
        "type": "channel",
        "noteNumber": 48,
        "velocity": 65,
        "subtype": "noteOn"
      },
      {
        "deltaTime": 0,
        "channel": 0,
        "type": "channel",
        "noteNumber": 52,
        "velocity": 50,
        "subtype": "noteOn"
      },
      {
        "deltaTime": 0,
        "channel": 0,
        "type": "channel",
        "noteNumber": 55,
        "velocity": 57,
        "subtype": "noteOn"
      },
      {
        "deltaTime": 716,
        "channel": 0,
        "type": "channel",
        "noteNumber": 48,
        "velocity": 0,
        "subtype": "noteOff"
      },
      {
        "deltaTime": 0,
        "channel": 0,
        "type": "channel",
        "noteNumber": 52,
        "velocity": 0,
        "subtype": "noteOff"
      },
      {
        "deltaTime": 0,
        "channel": 0,
        "type": "channel",
        "noteNumber": 55,
        "velocity": 0,
        "subtype": "noteOff"
      },
      {
        "deltaTime": 4,
        "channel": 0,
        "type": "channel",
        "noteNumber": 48,
        "velocity": 59,
        "subtype": "noteOn"
      },
      {
        "deltaTime": 0,
        "channel": 0,
        "type": "channel",
        "noteNumber": 52,
        "velocity": 59,
        "subtype": "noteOn"
      },
      {
        "deltaTime": 0,
        "channel": 0,
        "type": "channel",
        "noteNumber": 55,
        "velocity": 64,
        "subtype": "noteOn"
      },
      {
        "deltaTime": 476,
        "channel": 0,
        "type": "channel",
        "noteNumber": 48,
        "velocity": 0,
        "subtype": "noteOff"
      },
      {
        "deltaTime": 0,
        "channel": 0,
        "type": "channel",
        "noteNumber": 52,
        "velocity": 0,
        "subtype": "noteOff"
      },
      {
        "deltaTime": 0,
        "channel": 0,
        "type": "channel",
        "noteNumber": 55,
        "velocity": 0,
        "subtype": "noteOff"
      },
      {
        "deltaTime": 4,
        "channel": 0,
        "type": "channel",
        "noteNumber": 48,
        "velocity": 64,
        "subtype": "noteOn"
      },
      {
        "deltaTime": 0,
        "channel": 0,
        "type": "channel",
        "noteNumber": 52,
        "velocity": 53,
        "subtype": "noteOn"
      },
      {
        "deltaTime": 0,
        "channel": 0,
        "type": "channel",
        "noteNumber": 55,
        "velocity": 55,
        "subtype": "noteOn"
      },
      {
        "deltaTime": 476,
        "channel": 0,
        "type": "channel",
        "noteNumber": 48,
        "velocity": 0,
        "subtype": "noteOff"
      },
      {
        "deltaTime": 0,
        "channel": 0,
        "type": "channel",
        "noteNumber": 52,
        "velocity": 0,
        "subtype": "noteOff"
      },
      {
        "deltaTime": 0,
        "channel": 0,
        "type": "channel",
        "noteNumber": 55,
        "velocity": 0,
        "subtype": "noteOff"
      },
      {
        "deltaTime": 4,
        "channel": 0,
        "type": "channel",
        "noteNumber": 44,
        "velocity": 55,
        "subtype": "noteOn"
      },
      {
        "deltaTime": 0,
        "channel": 0,
        "type": "channel",
        "noteNumber": 47,
        "velocity": 60,
        "subtype": "noteOn"
      },
      {
        "deltaTime": 0,
        "channel": 0,
        "type": "channel",
        "noteNumber": 52,
        "velocity": 63,
        "subtype": "noteOn"
      },
      {
        "deltaTime": 476,
        "channel": 0,
        "type": "channel",
        "noteNumber": 44,
        "velocity": 0,
        "subtype": "noteOff"
      },
      {
        "deltaTime": 0,
        "channel": 0,
        "type": "channel",
        "noteNumber": 47,
        "velocity": 0,
        "subtype": "noteOff"
      },
      {
        "deltaTime": 0,
        "channel": 0,
        "type": "channel",
        "noteNumber": 52,
        "velocity": 0,
        "subtype": "noteOff"
      },
      {
        "deltaTime": 4,
        "channel": 0,
        "type": "channel",
        "noteNumber": 45,
        "velocity": 59,
        "subtype": "noteOn"
      },
      {
        "deltaTime": 0,
        "channel": 0,
        "type": "channel",
        "noteNumber": 48,
        "velocity": 62,
        "subtype": "noteOn"
      },
      {
        "deltaTime": 0,
        "channel": 0,
        "type": "channel",
        "noteNumber": 52,
        "velocity": 64,
        "subtype": "noteOn"
      },
      {
        "deltaTime": 956,
        "channel": 0,
        "type": "channel",
        "noteNumber": 45,
        "velocity": 0,
        "subtype": "noteOff"
      },
      {
        "deltaTime": 0,
        "channel": 0,
        "type": "channel",
        "noteNumber": 48,
        "velocity": 0,
        "subtype": "noteOff"
      },
      {
        "deltaTime": 0,
        "channel": 0,
        "type": "channel",
        "noteNumber": 52,
        "velocity": 0,
        "subtype": "noteOff"
      },
      {
        "deltaTime": 4,
        "channel": 0,
        "type": "channel",
        "noteNumber": 48,
        "velocity": 66,
        "subtype": "noteOn"
      },
      {
        "deltaTime": 0,
        "channel": 0,
        "type": "channel",
        "noteNumber": 53,
        "velocity": 59,
        "subtype": "noteOn"
      },
      {
        "deltaTime": 0,
        "channel": 0,
        "type": "channel",
        "noteNumber": 57,
        "velocity": 70,
        "subtype": "noteOn"
      },
      {
        "deltaTime": 716,
        "channel": 0,
        "type": "channel",
        "noteNumber": 48,
        "velocity": 0,
        "subtype": "noteOff"
      },
      {
        "deltaTime": 0,
        "channel": 0,
        "type": "channel",
        "noteNumber": 53,
        "velocity": 0,
        "subtype": "noteOff"
      },
      {
        "deltaTime": 0,
        "channel": 0,
        "type": "channel",
        "noteNumber": 57,
        "velocity": 0,
        "subtype": "noteOff"
      },
      {
        "deltaTime": 4,
        "channel": 0,
        "type": "channel",
        "noteNumber": 48,
        "velocity": 67,
        "subtype": "noteOn"
      },
      {
        "deltaTime": 0,
        "channel": 0,
        "type": "channel",
        "noteNumber": 52,
        "velocity": 62,
        "subtype": "noteOn"
      },
      {
        "deltaTime": 0,
        "channel": 0,
        "type": "channel",
        "noteNumber": 55,
        "velocity": 64,
        "subtype": "noteOn"
      },
      {
        "deltaTime": 2156,
        "channel": 0,
        "type": "channel",
        "noteNumber": 48,
        "velocity": 0,
        "subtype": "noteOff"
      },
      {
        "deltaTime": 0,
        "channel": 0,
        "type": "channel",
        "noteNumber": 52,
        "velocity": 0,
        "subtype": "noteOff"
      },
      {
        "deltaTime": 0,
        "channel": 0,
        "type": "channel",
        "noteNumber": 55,
        "velocity": 0,
        "subtype": "noteOff"
      },
      {
        "deltaTime": 4,
        "channel": 0,
        "type": "channel",
        "noteNumber": 45,
        "velocity": 62,
        "subtype": "noteOn"
      },
      {
        "deltaTime": 0,
        "channel": 0,
        "type": "channel",
        "noteNumber": 48,
        "velocity": 55,
        "subtype": "noteOn"
      },
      {
        "deltaTime": 0,
        "channel": 0,
        "type": "channel",
        "noteNumber": 55,
        "velocity": 59,
        "subtype": "noteOn"
      },
      {
        "deltaTime": 476,
        "channel": 0,
        "type": "channel",
        "noteNumber": 45,
        "velocity": 0,
        "subtype": "noteOff"
      },
      {
        "deltaTime": 0,
        "channel": 0,
        "type": "channel",
        "noteNumber": 48,
        "velocity": 0,
        "subtype": "noteOff"
      },
      {
        "deltaTime": 0,
        "channel": 0,
        "type": "channel",
        "noteNumber": 55,
        "velocity": 0,
        "subtype": "noteOff"
      },
      {
        "deltaTime": 4,
        "channel": 0,
        "type": "channel",
        "noteNumber": 45,
        "velocity": 62,
        "subtype": "noteOn"
      },
      {
        "deltaTime": 0,
        "channel": 0,
        "type": "channel",
        "noteNumber": 48,
        "velocity": 61,
        "subtype": "noteOn"
      },
      {
        "deltaTime": 0,
        "channel": 0,
        "type": "channel",
        "noteNumber": 55,
        "velocity": 65,
        "subtype": "noteOn"
      },
      {
        "deltaTime": 476,
        "channel": 0,
        "type": "channel",
        "noteNumber": 45,
        "velocity": 0,
        "subtype": "noteOff"
      },
      {
        "deltaTime": 0,
        "channel": 0,
        "type": "channel",
        "noteNumber": 48,
        "velocity": 0,
        "subtype": "noteOff"
      },
      {
        "deltaTime": 0,
        "channel": 0,
        "type": "channel",
        "noteNumber": 55,
        "velocity": 0,
        "subtype": "noteOff"
      },
      {
        "deltaTime": 4,
        "channel": 0,
        "type": "channel",
        "noteNumber": 48,
        "velocity": 61,
        "subtype": "noteOn"
      },
      {
        "deltaTime": 0,
        "channel": 0,
        "type": "channel",
        "noteNumber": 53,
        "velocity": 67,
        "subtype": "noteOn"
      },
      {
        "deltaTime": 0,
        "channel": 0,
        "type": "channel",
        "noteNumber": 57,
        "velocity": 65,
        "subtype": "noteOn"
      },
      {
        "deltaTime": 716,
        "channel": 0,
        "type": "channel",
        "noteNumber": 48,
        "velocity": 0,
        "subtype": "noteOff"
      },
      {
        "deltaTime": 0,
        "channel": 0,
        "type": "channel",
        "noteNumber": 53,
        "velocity": 0,
        "subtype": "noteOff"
      },
      {
        "deltaTime": 0,
        "channel": 0,
        "type": "channel",
        "noteNumber": 57,
        "velocity": 0,
        "subtype": "noteOff"
      },
      {
        "deltaTime": 4,
        "channel": 0,
        "type": "channel",
        "noteNumber": 48,
        "velocity": 59,
        "subtype": "noteOn"
      },
      {
        "deltaTime": 0,
        "channel": 0,
        "type": "channel",
        "noteNumber": 52,
        "velocity": 56,
        "subtype": "noteOn"
      },
      {
        "deltaTime": 0,
        "channel": 0,
        "type": "channel",
        "noteNumber": 55,
        "velocity": 59,
        "subtype": "noteOn"
      },
      {
        "deltaTime": 716,
        "channel": 0,
        "type": "channel",
        "noteNumber": 48,
        "velocity": 0,
        "subtype": "noteOff"
      },
      {
        "deltaTime": 0,
        "channel": 0,
        "type": "channel",
        "noteNumber": 52,
        "velocity": 0,
        "subtype": "noteOff"
      },
      {
        "deltaTime": 0,
        "channel": 0,
        "type": "channel",
        "noteNumber": 55,
        "velocity": 0,
        "subtype": "noteOff"
      },
      {
        "deltaTime": 4,
        "channel": 0,
        "type": "channel",
        "noteNumber": 48,
        "velocity": 65,
        "subtype": "noteOn"
      },
      {
        "deltaTime": 0,
        "channel": 0,
        "type": "channel",
        "noteNumber": 52,
        "velocity": 57,
        "subtype": "noteOn"
      },
      {
        "deltaTime": 0,
        "channel": 0,
        "type": "channel",
        "noteNumber": 55,
        "velocity": 55,
        "subtype": "noteOn"
      },
      {
        "deltaTime": 476,
        "channel": 0,
        "type": "channel",
        "noteNumber": 48,
        "velocity": 0,
        "subtype": "noteOff"
      },
      {
        "deltaTime": 0,
        "channel": 0,
        "type": "channel",
        "noteNumber": 52,
        "velocity": 0,
        "subtype": "noteOff"
      },
      {
        "deltaTime": 0,
        "channel": 0,
        "type": "channel",
        "noteNumber": 55,
        "velocity": 0,
        "subtype": "noteOff"
      },
      {
        "deltaTime": 4,
        "channel": 0,
        "type": "channel",
        "noteNumber": 48,
        "velocity": 65,
        "subtype": "noteOn"
      },
      {
        "deltaTime": 0,
        "channel": 0,
        "type": "channel",
        "noteNumber": 52,
        "velocity": 54,
        "subtype": "noteOn"
      },
      {
        "deltaTime": 0,
        "channel": 0,
        "type": "channel",
        "noteNumber": 55,
        "velocity": 54,
        "subtype": "noteOn"
      },
      {
        "deltaTime": 476,
        "channel": 0,
        "type": "channel",
        "noteNumber": 48,
        "velocity": 0,
        "subtype": "noteOff"
      },
      {
        "deltaTime": 0,
        "channel": 0,
        "type": "channel",
        "noteNumber": 52,
        "velocity": 0,
        "subtype": "noteOff"
      },
      {
        "deltaTime": 0,
        "channel": 0,
        "type": "channel",
        "noteNumber": 55,
        "velocity": 0,
        "subtype": "noteOff"
      },
      {
        "deltaTime": 4,
        "channel": 0,
        "type": "channel",
        "noteNumber": 48,
        "velocity": 62,
        "subtype": "noteOn"
      },
      {
        "deltaTime": 0,
        "channel": 0,
        "type": "channel",
        "noteNumber": 52,
        "velocity": 61,
        "subtype": "noteOn"
      },
      {
        "deltaTime": 0,
        "channel": 0,
        "type": "channel",
        "noteNumber": 55,
        "velocity": 58,
        "subtype": "noteOn"
      },
      {
        "deltaTime": 476,
        "channel": 0,
        "type": "channel",
        "noteNumber": 48,
        "velocity": 0,
        "subtype": "noteOff"
      },
      {
        "deltaTime": 0,
        "channel": 0,
        "type": "channel",
        "noteNumber": 52,
        "velocity": 0,
        "subtype": "noteOff"
      },
      {
        "deltaTime": 0,
        "channel": 0,
        "type": "channel",
        "noteNumber": 55,
        "velocity": 0,
        "subtype": "noteOff"
      },
      {
        "deltaTime": 4,
        "channel": 0,
        "type": "channel",
        "noteNumber": 45,
        "velocity": 62,
        "subtype": "noteOn"
      },
      {
        "deltaTime": 0,
        "channel": 0,
        "type": "channel",
        "noteNumber": 48,
        "velocity": 64,
        "subtype": "noteOn"
      },
      {
        "deltaTime": 0,
        "channel": 0,
        "type": "channel",
        "noteNumber": 55,
        "velocity": 61,
        "subtype": "noteOn"
      },
      {
        "deltaTime": 476,
        "channel": 0,
        "type": "channel",
        "noteNumber": 45,
        "velocity": 0,
        "subtype": "noteOff"
      },
      {
        "deltaTime": 0,
        "channel": 0,
        "type": "channel",
        "noteNumber": 48,
        "velocity": 0,
        "subtype": "noteOff"
      },
      {
        "deltaTime": 0,
        "channel": 0,
        "type": "channel",
        "noteNumber": 55,
        "velocity": 0,
        "subtype": "noteOff"
      },
      {
        "deltaTime": 4,
        "channel": 0,
        "type": "channel",
        "noteNumber": 45,
        "velocity": 60,
        "subtype": "noteOn"
      },
      {
        "deltaTime": 0,
        "channel": 0,
        "type": "channel",
        "noteNumber": 48,
        "velocity": 59,
        "subtype": "noteOn"
      },
      {
        "deltaTime": 0,
        "channel": 0,
        "type": "channel",
        "noteNumber": 55,
        "velocity": 54,
        "subtype": "noteOn"
      },
      {
        "deltaTime": 476,
        "channel": 0,
        "type": "channel",
        "noteNumber": 45,
        "velocity": 0,
        "subtype": "noteOff"
      },
      {
        "deltaTime": 0,
        "channel": 0,
        "type": "channel",
        "noteNumber": 48,
        "velocity": 0,
        "subtype": "noteOff"
      },
      {
        "deltaTime": 0,
        "channel": 0,
        "type": "channel",
        "noteNumber": 55,
        "velocity": 0,
        "subtype": "noteOff"
      },
      {
        "deltaTime": 4,
        "channel": 0,
        "type": "channel",
        "noteNumber": 48,
        "velocity": 66,
        "subtype": "noteOn"
      },
      {
        "deltaTime": 0,
        "channel": 0,
        "type": "channel",
        "noteNumber": 53,
        "velocity": 66,
        "subtype": "noteOn"
      },
      {
        "deltaTime": 0,
        "channel": 0,
        "type": "channel",
        "noteNumber": 57,
        "velocity": 64,
        "subtype": "noteOn"
      },
      {
        "deltaTime": 716,
        "channel": 0,
        "type": "channel",
        "noteNumber": 48,
        "velocity": 0,
        "subtype": "noteOff"
      },
      {
        "deltaTime": 0,
        "channel": 0,
        "type": "channel",
        "noteNumber": 53,
        "velocity": 0,
        "subtype": "noteOff"
      },
      {
        "deltaTime": 0,
        "channel": 0,
        "type": "channel",
        "noteNumber": 57,
        "velocity": 0,
        "subtype": "noteOff"
      },
      {
        "deltaTime": 4,
        "channel": 0,
        "type": "channel",
        "noteNumber": 48,
        "velocity": 64,
        "subtype": "noteOn"
      },
      {
        "deltaTime": 0,
        "channel": 0,
        "type": "channel",
        "noteNumber": 52,
        "velocity": 55,
        "subtype": "noteOn"
      },
      {
        "deltaTime": 0,
        "channel": 0,
        "type": "channel",
        "noteNumber": 55,
        "velocity": 64,
        "subtype": "noteOn"
      },
      {
        "deltaTime": 716,
        "channel": 0,
        "type": "channel",
        "noteNumber": 48,
        "velocity": 0,
        "subtype": "noteOff"
      },
      {
        "deltaTime": 0,
        "channel": 0,
        "type": "channel",
        "noteNumber": 52,
        "velocity": 0,
        "subtype": "noteOff"
      },
      {
        "deltaTime": 0,
        "channel": 0,
        "type": "channel",
        "noteNumber": 55,
        "velocity": 0,
        "subtype": "noteOff"
      },
      {
        "deltaTime": 4,
        "channel": 0,
        "type": "channel",
        "noteNumber": 48,
        "velocity": 66,
        "subtype": "noteOn"
      },
      {
        "deltaTime": 0,
        "channel": 0,
        "type": "channel",
        "noteNumber": 52,
        "velocity": 61,
        "subtype": "noteOn"
      },
      {
        "deltaTime": 0,
        "channel": 0,
        "type": "channel",
        "noteNumber": 55,
        "velocity": 56,
        "subtype": "noteOn"
      },
      {
        "deltaTime": 476,
        "channel": 0,
        "type": "channel",
        "noteNumber": 48,
        "velocity": 0,
        "subtype": "noteOff"
      },
      {
        "deltaTime": 0,
        "channel": 0,
        "type": "channel",
        "noteNumber": 52,
        "velocity": 0,
        "subtype": "noteOff"
      },
      {
        "deltaTime": 0,
        "channel": 0,
        "type": "channel",
        "noteNumber": 55,
        "velocity": 0,
        "subtype": "noteOff"
      },
      {
        "deltaTime": 4,
        "channel": 0,
        "type": "channel",
        "noteNumber": 48,
        "velocity": 63,
        "subtype": "noteOn"
      },
      {
        "deltaTime": 0,
        "channel": 0,
        "type": "channel",
        "noteNumber": 52,
        "velocity": 52,
        "subtype": "noteOn"
      },
      {
        "deltaTime": 0,
        "channel": 0,
        "type": "channel",
        "noteNumber": 55,
        "velocity": 50,
        "subtype": "noteOn"
      },
      {
        "deltaTime": 476,
        "channel": 0,
        "type": "channel",
        "noteNumber": 48,
        "velocity": 0,
        "subtype": "noteOff"
      },
      {
        "deltaTime": 0,
        "channel": 0,
        "type": "channel",
        "noteNumber": 52,
        "velocity": 0,
        "subtype": "noteOff"
      },
      {
        "deltaTime": 0,
        "channel": 0,
        "type": "channel",
        "noteNumber": 55,
        "velocity": 0,
        "subtype": "noteOff"
      },
      {
        "deltaTime": 4,
        "channel": 0,
        "type": "channel",
        "noteNumber": 48,
        "velocity": 62,
        "subtype": "noteOn"
      },
      {
        "deltaTime": 0,
        "channel": 0,
        "type": "channel",
        "noteNumber": 52,
        "velocity": 54,
        "subtype": "noteOn"
      },
      {
        "deltaTime": 0,
        "channel": 0,
        "type": "channel",
        "noteNumber": 55,
        "velocity": 51,
        "subtype": "noteOn"
      },
      {
        "deltaTime": 476,
        "channel": 0,
        "type": "channel",
        "noteNumber": 48,
        "velocity": 0,
        "subtype": "noteOff"
      },
      {
        "deltaTime": 0,
        "channel": 0,
        "type": "channel",
        "noteNumber": 52,
        "velocity": 0,
        "subtype": "noteOff"
      },
      {
        "deltaTime": 0,
        "channel": 0,
        "type": "channel",
        "noteNumber": 55,
        "velocity": 0,
        "subtype": "noteOff"
      },
      {
        "deltaTime": 4,
        "channel": 0,
        "type": "channel",
        "noteNumber": 45,
        "velocity": 57,
        "subtype": "noteOn"
      },
      {
        "deltaTime": 0,
        "channel": 0,
        "type": "channel",
        "noteNumber": 48,
        "velocity": 61,
        "subtype": "noteOn"
      },
      {
        "deltaTime": 0,
        "channel": 0,
        "type": "channel",
        "noteNumber": 55,
        "velocity": 56,
        "subtype": "noteOn"
      },
      {
        "deltaTime": 480,
        "channel": 0,
        "type": "channel",
        "noteNumber": 45,
        "velocity": 0,
        "subtype": "noteOff"
      },
      {
        "deltaTime": 0,
        "channel": 0,
        "type": "channel",
        "noteNumber": 45,
        "velocity": 57,
        "subtype": "noteOn"
      },
      {
        "deltaTime": 0,
        "channel": 0,
        "type": "channel",
        "noteNumber": 48,
        "velocity": 0,
        "subtype": "noteOff"
      },
      {
        "deltaTime": 0,
        "channel": 0,
        "type": "channel",
        "noteNumber": 48,
        "velocity": 61,
        "subtype": "noteOn"
      },
      {
        "deltaTime": 0,
        "channel": 0,
        "type": "channel",
        "noteNumber": 55,
        "velocity": 0,
        "subtype": "noteOff"
      },
      {
        "deltaTime": 0,
        "channel": 0,
        "type": "channel",
        "noteNumber": 55,
        "velocity": 56,
        "subtype": "noteOn"
      },
      {
        "deltaTime": 476,
        "channel": 0,
        "type": "channel",
        "noteNumber": 45,
        "velocity": 0,
        "subtype": "noteOff"
      },
      {
        "deltaTime": 0,
        "channel": 0,
        "type": "channel",
        "noteNumber": 48,
        "velocity": 0,
        "subtype": "noteOff"
      },
      {
        "deltaTime": 0,
        "channel": 0,
        "type": "channel",
        "noteNumber": 55,
        "velocity": 0,
        "subtype": "noteOff"
      },
      {
        "deltaTime": 4,
        "channel": 0,
        "type": "channel",
        "noteNumber": 48,
        "velocity": 68,
        "subtype": "noteOn"
      },
      {
        "deltaTime": 0,
        "channel": 0,
        "type": "channel",
        "noteNumber": 53,
        "velocity": 63,
        "subtype": "noteOn"
      },
      {
        "deltaTime": 0,
        "channel": 0,
        "type": "channel",
        "noteNumber": 57,
        "velocity": 63,
        "subtype": "noteOn"
      },
      {
        "deltaTime": 716,
        "channel": 0,
        "type": "channel",
        "noteNumber": 48,
        "velocity": 0,
        "subtype": "noteOff"
      },
      {
        "deltaTime": 0,
        "channel": 0,
        "type": "channel",
        "noteNumber": 53,
        "velocity": 0,
        "subtype": "noteOff"
      },
      {
        "deltaTime": 0,
        "channel": 0,
        "type": "channel",
        "noteNumber": 57,
        "velocity": 0,
        "subtype": "noteOff"
      },
      {
        "deltaTime": 4,
        "channel": 0,
        "type": "channel",
        "noteNumber": 48,
        "velocity": 65,
        "subtype": "noteOn"
      },
      {
        "deltaTime": 0,
        "channel": 0,
        "type": "channel",
        "noteNumber": 52,
        "velocity": 50,
        "subtype": "noteOn"
      },
      {
        "deltaTime": 0,
        "channel": 0,
        "type": "channel",
        "noteNumber": 55,
        "velocity": 57,
        "subtype": "noteOn"
      },
      {
        "deltaTime": 716,
        "channel": 0,
        "type": "channel",
        "noteNumber": 48,
        "velocity": 0,
        "subtype": "noteOff"
      },
      {
        "deltaTime": 0,
        "channel": 0,
        "type": "channel",
        "noteNumber": 52,
        "velocity": 0,
        "subtype": "noteOff"
      },
      {
        "deltaTime": 0,
        "channel": 0,
        "type": "channel",
        "noteNumber": 55,
        "velocity": 0,
        "subtype": "noteOff"
      },
      {
        "deltaTime": 4,
        "channel": 0,
        "type": "channel",
        "noteNumber": 48,
        "velocity": 59,
        "subtype": "noteOn"
      },
      {
        "deltaTime": 0,
        "channel": 0,
        "type": "channel",
        "noteNumber": 52,
        "velocity": 59,
        "subtype": "noteOn"
      },
      {
        "deltaTime": 0,
        "channel": 0,
        "type": "channel",
        "noteNumber": 55,
        "velocity": 64,
        "subtype": "noteOn"
      },
      {
        "deltaTime": 476,
        "channel": 0,
        "type": "channel",
        "noteNumber": 48,
        "velocity": 0,
        "subtype": "noteOff"
      },
      {
        "deltaTime": 0,
        "channel": 0,
        "type": "channel",
        "noteNumber": 52,
        "velocity": 0,
        "subtype": "noteOff"
      },
      {
        "deltaTime": 0,
        "channel": 0,
        "type": "channel",
        "noteNumber": 55,
        "velocity": 0,
        "subtype": "noteOff"
      },
      {
        "deltaTime": 4,
        "channel": 0,
        "type": "channel",
        "noteNumber": 48,
        "velocity": 64,
        "subtype": "noteOn"
      },
      {
        "deltaTime": 0,
        "channel": 0,
        "type": "channel",
        "noteNumber": 52,
        "velocity": 53,
        "subtype": "noteOn"
      },
      {
        "deltaTime": 0,
        "channel": 0,
        "type": "channel",
        "noteNumber": 55,
        "velocity": 55,
        "subtype": "noteOn"
      },
      {
        "deltaTime": 476,
        "channel": 0,
        "type": "channel",
        "noteNumber": 48,
        "velocity": 0,
        "subtype": "noteOff"
      },
      {
        "deltaTime": 0,
        "channel": 0,
        "type": "channel",
        "noteNumber": 52,
        "velocity": 0,
        "subtype": "noteOff"
      },
      {
        "deltaTime": 0,
        "channel": 0,
        "type": "channel",
        "noteNumber": 55,
        "velocity": 0,
        "subtype": "noteOff"
      },
      {
        "deltaTime": 4,
        "channel": 0,
        "type": "channel",
        "noteNumber": 44,
        "velocity": 55,
        "subtype": "noteOn"
      },
      {
        "deltaTime": 0,
        "channel": 0,
        "type": "channel",
        "noteNumber": 47,
        "velocity": 60,
        "subtype": "noteOn"
      },
      {
        "deltaTime": 0,
        "channel": 0,
        "type": "channel",
        "noteNumber": 52,
        "velocity": 63,
        "subtype": "noteOn"
      },
      {
        "deltaTime": 476,
        "channel": 0,
        "type": "channel",
        "noteNumber": 44,
        "velocity": 0,
        "subtype": "noteOff"
      },
      {
        "deltaTime": 0,
        "channel": 0,
        "type": "channel",
        "noteNumber": 47,
        "velocity": 0,
        "subtype": "noteOff"
      },
      {
        "deltaTime": 0,
        "channel": 0,
        "type": "channel",
        "noteNumber": 52,
        "velocity": 0,
        "subtype": "noteOff"
      },
      {
        "deltaTime": 4,
        "channel": 0,
        "type": "channel",
        "noteNumber": 45,
        "velocity": 59,
        "subtype": "noteOn"
      },
      {
        "deltaTime": 0,
        "channel": 0,
        "type": "channel",
        "noteNumber": 48,
        "velocity": 62,
        "subtype": "noteOn"
      },
      {
        "deltaTime": 0,
        "channel": 0,
        "type": "channel",
        "noteNumber": 52,
        "velocity": 64,
        "subtype": "noteOn"
      },
      {
        "deltaTime": 956,
        "channel": 0,
        "type": "channel",
        "noteNumber": 45,
        "velocity": 0,
        "subtype": "noteOff"
      },
      {
        "deltaTime": 0,
        "channel": 0,
        "type": "channel",
        "noteNumber": 48,
        "velocity": 0,
        "subtype": "noteOff"
      },
      {
        "deltaTime": 0,
        "channel": 0,
        "type": "channel",
        "noteNumber": 52,
        "velocity": 0,
        "subtype": "noteOff"
      },
      {
        "deltaTime": 4,
        "channel": 0,
        "type": "channel",
        "noteNumber": 48,
        "velocity": 66,
        "subtype": "noteOn"
      },
      {
        "deltaTime": 0,
        "channel": 0,
        "type": "channel",
        "noteNumber": 53,
        "velocity": 59,
        "subtype": "noteOn"
      },
      {
        "deltaTime": 0,
        "channel": 0,
        "type": "channel",
        "noteNumber": 57,
        "velocity": 70,
        "subtype": "noteOn"
      },
      {
        "deltaTime": 716,
        "channel": 0,
        "type": "channel",
        "noteNumber": 48,
        "velocity": 0,
        "subtype": "noteOff"
      },
      {
        "deltaTime": 0,
        "channel": 0,
        "type": "channel",
        "noteNumber": 53,
        "velocity": 0,
        "subtype": "noteOff"
      },
      {
        "deltaTime": 0,
        "channel": 0,
        "type": "channel",
        "noteNumber": 57,
        "velocity": 0,
        "subtype": "noteOff"
      },
      {
        "deltaTime": 4,
        "channel": 0,
        "type": "channel",
        "noteNumber": 48,
        "velocity": 67,
        "subtype": "noteOn"
      },
      {
        "deltaTime": 0,
        "channel": 0,
        "type": "channel",
        "noteNumber": 52,
        "velocity": 62,
        "subtype": "noteOn"
      },
      {
        "deltaTime": 0,
        "channel": 0,
        "type": "channel",
        "noteNumber": 55,
        "velocity": 64,
        "subtype": "noteOn"
      },
      {
        "deltaTime": 2156,
        "channel": 0,
        "type": "channel",
        "noteNumber": 48,
        "velocity": 0,
        "subtype": "noteOff"
      },
      {
        "deltaTime": 0,
        "channel": 0,
        "type": "channel",
        "noteNumber": 52,
        "velocity": 0,
        "subtype": "noteOff"
      },
      {
        "deltaTime": 0,
        "channel": 0,
        "type": "channel",
        "noteNumber": 55,
        "velocity": 0,
        "subtype": "noteOff"
      },
      {
        "deltaTime": 4,
        "channel": 0,
        "type": "channel",
        "noteNumber": 57,
        "velocity": 52,
        "subtype": "noteOn"
      },
      {
        "deltaTime": 0,
        "channel": 0,
        "type": "channel",
        "noteNumber": 60,
        "velocity": 62,
        "subtype": "noteOn"
      },
      {
        "deltaTime": 0,
        "channel": 0,
        "type": "channel",
        "noteNumber": 64,
        "velocity": 65,
        "subtype": "noteOn"
      },
      {
        "deltaTime": 956,
        "channel": 0,
        "type": "channel",
        "noteNumber": 57,
        "velocity": 0,
        "subtype": "noteOff"
      },
      {
        "deltaTime": 0,
        "channel": 0,
        "type": "channel",
        "noteNumber": 60,
        "velocity": 0,
        "subtype": "noteOff"
      },
      {
        "deltaTime": 0,
        "channel": 0,
        "type": "channel",
        "noteNumber": 64,
        "velocity": 0,
        "subtype": "noteOff"
      },
      {
        "deltaTime": 4,
        "channel": 0,
        "type": "channel",
        "noteNumber": 57,
        "velocity": 62,
        "subtype": "noteOn"
      },
      {
        "deltaTime": 0,
        "channel": 0,
        "type": "channel",
        "noteNumber": 60,
        "velocity": 55,
        "subtype": "noteOn"
      },
      {
        "deltaTime": 0,
        "channel": 0,
        "type": "channel",
        "noteNumber": 65,
        "velocity": 65,
        "subtype": "noteOn"
      },
      {
        "deltaTime": 716,
        "channel": 0,
        "type": "channel",
        "noteNumber": 57,
        "velocity": 0,
        "subtype": "noteOff"
      },
      {
        "deltaTime": 0,
        "channel": 0,
        "type": "channel",
        "noteNumber": 60,
        "velocity": 0,
        "subtype": "noteOff"
      },
      {
        "deltaTime": 0,
        "channel": 0,
        "type": "channel",
        "noteNumber": 65,
        "velocity": 0,
        "subtype": "noteOff"
      },
      {
        "deltaTime": 4,
        "channel": 0,
        "type": "channel",
        "noteNumber": 55,
        "velocity": 63,
        "subtype": "noteOn"
      },
      {
        "deltaTime": 0,
        "channel": 0,
        "type": "channel",
        "noteNumber": 60,
        "velocity": 63,
        "subtype": "noteOn"
      },
      {
        "deltaTime": 0,
        "channel": 0,
        "type": "channel",
        "noteNumber": 64,
        "velocity": 66,
        "subtype": "noteOn"
      },
      {
        "deltaTime": 2156,
        "channel": 0,
        "type": "channel",
        "noteNumber": 55,
        "velocity": 0,
        "subtype": "noteOff"
      },
      {
        "deltaTime": 0,
        "channel": 0,
        "type": "channel",
        "noteNumber": 60,
        "velocity": 0,
        "subtype": "noteOff"
      },
      {
        "deltaTime": 0,
        "channel": 0,
        "type": "channel",
        "noteNumber": 64,
        "velocity": 0,
        "subtype": "noteOff"
      },
      {
        "deltaTime": 4,
        "channel": 0,
        "type": "channel",
        "noteNumber": 57,
        "velocity": 65,
        "subtype": "noteOn"
      },
      {
        "deltaTime": 0,
        "channel": 0,
        "type": "channel",
        "noteNumber": 60,
        "velocity": 65,
        "subtype": "noteOn"
      },
      {
        "deltaTime": 0,
        "channel": 0,
        "type": "channel",
        "noteNumber": 64,
        "velocity": 69,
        "subtype": "noteOn"
      },
      {
        "deltaTime": 956,
        "channel": 0,
        "type": "channel",
        "noteNumber": 57,
        "velocity": 0,
        "subtype": "noteOff"
      },
      {
        "deltaTime": 0,
        "channel": 0,
        "type": "channel",
        "noteNumber": 60,
        "velocity": 0,
        "subtype": "noteOff"
      },
      {
        "deltaTime": 0,
        "channel": 0,
        "type": "channel",
        "noteNumber": 64,
        "velocity": 0,
        "subtype": "noteOff"
      },
      {
        "deltaTime": 4,
        "channel": 0,
        "type": "channel",
        "noteNumber": 53,
        "velocity": 72,
        "subtype": "noteOn"
      },
      {
        "deltaTime": 0,
        "channel": 0,
        "type": "channel",
        "noteNumber": 57,
        "velocity": 62,
        "subtype": "noteOn"
      },
      {
        "deltaTime": 0,
        "channel": 0,
        "type": "channel",
        "noteNumber": 60,
        "velocity": 56,
        "subtype": "noteOn"
      },
      {
        "deltaTime": 716,
        "channel": 0,
        "type": "channel",
        "noteNumber": 53,
        "velocity": 0,
        "subtype": "noteOff"
      },
      {
        "deltaTime": 0,
        "channel": 0,
        "type": "channel",
        "noteNumber": 57,
        "velocity": 0,
        "subtype": "noteOff"
      },
      {
        "deltaTime": 0,
        "channel": 0,
        "type": "channel",
        "noteNumber": 60,
        "velocity": 0,
        "subtype": "noteOff"
      },
      {
        "deltaTime": 4,
        "channel": 0,
        "type": "channel",
        "noteNumber": 48,
        "velocity": 63,
        "subtype": "noteOn"
      },
      {
        "deltaTime": 0,
        "channel": 0,
        "type": "channel",
        "noteNumber": 52,
        "velocity": 64,
        "subtype": "noteOn"
      },
      {
        "deltaTime": 0,
        "channel": 0,
        "type": "channel",
        "noteNumber": 55,
        "velocity": 61,
        "subtype": "noteOn"
      },
      {
        "deltaTime": 2156,
        "channel": 0,
        "type": "channel",
        "noteNumber": 48,
        "velocity": 0,
        "subtype": "noteOff"
      },
      {
        "deltaTime": 0,
        "channel": 0,
        "type": "channel",
        "noteNumber": 52,
        "velocity": 0,
        "subtype": "noteOff"
      },
      {
        "deltaTime": 0,
        "channel": 0,
        "type": "channel",
        "noteNumber": 55,
        "velocity": 0,
        "subtype": "noteOff"
      },
      {
        "deltaTime": 4,
        "channel": 0,
        "type": "channel",
        "noteNumber": 57,
        "velocity": 52,
        "subtype": "noteOn"
      },
      {
        "deltaTime": 0,
        "channel": 0,
        "type": "channel",
        "noteNumber": 60,
        "velocity": 62,
        "subtype": "noteOn"
      },
      {
        "deltaTime": 0,
        "channel": 0,
        "type": "channel",
        "noteNumber": 64,
        "velocity": 65,
        "subtype": "noteOn"
      },
      {
        "deltaTime": 956,
        "channel": 0,
        "type": "channel",
        "noteNumber": 57,
        "velocity": 0,
        "subtype": "noteOff"
      },
      {
        "deltaTime": 0,
        "channel": 0,
        "type": "channel",
        "noteNumber": 60,
        "velocity": 0,
        "subtype": "noteOff"
      },
      {
        "deltaTime": 0,
        "channel": 0,
        "type": "channel",
        "noteNumber": 64,
        "velocity": 0,
        "subtype": "noteOff"
      },
      {
        "deltaTime": 4,
        "channel": 0,
        "type": "channel",
        "noteNumber": 57,
        "velocity": 62,
        "subtype": "noteOn"
      },
      {
        "deltaTime": 0,
        "channel": 0,
        "type": "channel",
        "noteNumber": 60,
        "velocity": 55,
        "subtype": "noteOn"
      },
      {
        "deltaTime": 0,
        "channel": 0,
        "type": "channel",
        "noteNumber": 65,
        "velocity": 65,
        "subtype": "noteOn"
      },
      {
        "deltaTime": 716,
        "channel": 0,
        "type": "channel",
        "noteNumber": 57,
        "velocity": 0,
        "subtype": "noteOff"
      },
      {
        "deltaTime": 0,
        "channel": 0,
        "type": "channel",
        "noteNumber": 60,
        "velocity": 0,
        "subtype": "noteOff"
      },
      {
        "deltaTime": 0,
        "channel": 0,
        "type": "channel",
        "noteNumber": 65,
        "velocity": 0,
        "subtype": "noteOff"
      },
      {
        "deltaTime": 4,
        "channel": 0,
        "type": "channel",
        "noteNumber": 55,
        "velocity": 63,
        "subtype": "noteOn"
      },
      {
        "deltaTime": 0,
        "channel": 0,
        "type": "channel",
        "noteNumber": 60,
        "velocity": 63,
        "subtype": "noteOn"
      },
      {
        "deltaTime": 0,
        "channel": 0,
        "type": "channel",
        "noteNumber": 64,
        "velocity": 66,
        "subtype": "noteOn"
      },
      {
        "deltaTime": 2156,
        "channel": 0,
        "type": "channel",
        "noteNumber": 55,
        "velocity": 0,
        "subtype": "noteOff"
      },
      {
        "deltaTime": 0,
        "channel": 0,
        "type": "channel",
        "noteNumber": 60,
        "velocity": 0,
        "subtype": "noteOff"
      },
      {
        "deltaTime": 0,
        "channel": 0,
        "type": "channel",
        "noteNumber": 64,
        "velocity": 0,
        "subtype": "noteOff"
      },
      {
        "deltaTime": 4,
        "channel": 0,
        "type": "channel",
        "noteNumber": 57,
        "velocity": 65,
        "subtype": "noteOn"
      },
      {
        "deltaTime": 0,
        "channel": 0,
        "type": "channel",
        "noteNumber": 60,
        "velocity": 65,
        "subtype": "noteOn"
      },
      {
        "deltaTime": 0,
        "channel": 0,
        "type": "channel",
        "noteNumber": 64,
        "velocity": 69,
        "subtype": "noteOn"
      },
      {
        "deltaTime": 956,
        "channel": 0,
        "type": "channel",
        "noteNumber": 57,
        "velocity": 0,
        "subtype": "noteOff"
      },
      {
        "deltaTime": 0,
        "channel": 0,
        "type": "channel",
        "noteNumber": 60,
        "velocity": 0,
        "subtype": "noteOff"
      },
      {
        "deltaTime": 0,
        "channel": 0,
        "type": "channel",
        "noteNumber": 64,
        "velocity": 0,
        "subtype": "noteOff"
      },
      {
        "deltaTime": 4,
        "channel": 0,
        "type": "channel",
        "noteNumber": 53,
        "velocity": 72,
        "subtype": "noteOn"
      },
      {
        "deltaTime": 0,
        "channel": 0,
        "type": "channel",
        "noteNumber": 57,
        "velocity": 62,
        "subtype": "noteOn"
      },
      {
        "deltaTime": 0,
        "channel": 0,
        "type": "channel",
        "noteNumber": 60,
        "velocity": 56,
        "subtype": "noteOn"
      },
      {
        "deltaTime": 716,
        "channel": 0,
        "type": "channel",
        "noteNumber": 53,
        "velocity": 0,
        "subtype": "noteOff"
      },
      {
        "deltaTime": 0,
        "channel": 0,
        "type": "channel",
        "noteNumber": 57,
        "velocity": 0,
        "subtype": "noteOff"
      },
      {
        "deltaTime": 0,
        "channel": 0,
        "type": "channel",
        "noteNumber": 60,
        "velocity": 0,
        "subtype": "noteOff"
      },
      {
        "deltaTime": 4,
        "channel": 0,
        "type": "channel",
        "noteNumber": 48,
        "velocity": 63,
        "subtype": "noteOn"
      },
      {
        "deltaTime": 0,
        "channel": 0,
        "type": "channel",
        "noteNumber": 52,
        "velocity": 64,
        "subtype": "noteOn"
      },
      {
        "deltaTime": 0,
        "channel": 0,
        "type": "channel",
        "noteNumber": 55,
        "velocity": 61,
        "subtype": "noteOn"
      },
      {
        "deltaTime": 2156,
        "channel": 0,
        "type": "channel",
        "noteNumber": 48,
        "velocity": 0,
        "subtype": "noteOff"
      },
      {
        "deltaTime": 0,
        "channel": 0,
        "type": "channel",
        "noteNumber": 52,
        "velocity": 0,
        "subtype": "noteOff"
      },
      {
        "deltaTime": 0,
        "channel": 0,
        "type": "channel",
        "noteNumber": 55,
        "velocity": 0,
        "subtype": "noteOff"
      },
      {
        "deltaTime": 4,
        "channel": 0,
        "type": "channel",
        "noteNumber": 45,
        "velocity": 62,
        "subtype": "noteOn"
      },
      {
        "deltaTime": 0,
        "channel": 0,
        "type": "channel",
        "noteNumber": 48,
        "velocity": 55,
        "subtype": "noteOn"
      },
      {
        "deltaTime": 0,
        "channel": 0,
        "type": "channel",
        "noteNumber": 55,
        "velocity": 59,
        "subtype": "noteOn"
      },
      {
        "deltaTime": 476,
        "channel": 0,
        "type": "channel",
        "noteNumber": 45,
        "velocity": 0,
        "subtype": "noteOff"
      },
      {
        "deltaTime": 0,
        "channel": 0,
        "type": "channel",
        "noteNumber": 48,
        "velocity": 0,
        "subtype": "noteOff"
      },
      {
        "deltaTime": 0,
        "channel": 0,
        "type": "channel",
        "noteNumber": 55,
        "velocity": 0,
        "subtype": "noteOff"
      },
      {
        "deltaTime": 4,
        "channel": 0,
        "type": "channel",
        "noteNumber": 45,
        "velocity": 62,
        "subtype": "noteOn"
      },
      {
        "deltaTime": 0,
        "channel": 0,
        "type": "channel",
        "noteNumber": 48,
        "velocity": 61,
        "subtype": "noteOn"
      },
      {
        "deltaTime": 0,
        "channel": 0,
        "type": "channel",
        "noteNumber": 55,
        "velocity": 65,
        "subtype": "noteOn"
      },
      {
        "deltaTime": 476,
        "channel": 0,
        "type": "channel",
        "noteNumber": 45,
        "velocity": 0,
        "subtype": "noteOff"
      },
      {
        "deltaTime": 0,
        "channel": 0,
        "type": "channel",
        "noteNumber": 48,
        "velocity": 0,
        "subtype": "noteOff"
      },
      {
        "deltaTime": 0,
        "channel": 0,
        "type": "channel",
        "noteNumber": 55,
        "velocity": 0,
        "subtype": "noteOff"
      },
      {
        "deltaTime": 4,
        "channel": 0,
        "type": "channel",
        "noteNumber": 48,
        "velocity": 61,
        "subtype": "noteOn"
      },
      {
        "deltaTime": 0,
        "channel": 0,
        "type": "channel",
        "noteNumber": 53,
        "velocity": 67,
        "subtype": "noteOn"
      },
      {
        "deltaTime": 0,
        "channel": 0,
        "type": "channel",
        "noteNumber": 57,
        "velocity": 65,
        "subtype": "noteOn"
      },
      {
        "deltaTime": 716,
        "channel": 0,
        "type": "channel",
        "noteNumber": 48,
        "velocity": 0,
        "subtype": "noteOff"
      },
      {
        "deltaTime": 0,
        "channel": 0,
        "type": "channel",
        "noteNumber": 53,
        "velocity": 0,
        "subtype": "noteOff"
      },
      {
        "deltaTime": 0,
        "channel": 0,
        "type": "channel",
        "noteNumber": 57,
        "velocity": 0,
        "subtype": "noteOff"
      },
      {
        "deltaTime": 4,
        "channel": 0,
        "type": "channel",
        "noteNumber": 48,
        "velocity": 59,
        "subtype": "noteOn"
      },
      {
        "deltaTime": 0,
        "channel": 0,
        "type": "channel",
        "noteNumber": 52,
        "velocity": 56,
        "subtype": "noteOn"
      },
      {
        "deltaTime": 0,
        "channel": 0,
        "type": "channel",
        "noteNumber": 55,
        "velocity": 59,
        "subtype": "noteOn"
      },
      {
        "deltaTime": 716,
        "channel": 0,
        "type": "channel",
        "noteNumber": 48,
        "velocity": 0,
        "subtype": "noteOff"
      },
      {
        "deltaTime": 0,
        "channel": 0,
        "type": "channel",
        "noteNumber": 52,
        "velocity": 0,
        "subtype": "noteOff"
      },
      {
        "deltaTime": 0,
        "channel": 0,
        "type": "channel",
        "noteNumber": 55,
        "velocity": 0,
        "subtype": "noteOff"
      },
      {
        "deltaTime": 4,
        "channel": 0,
        "type": "channel",
        "noteNumber": 48,
        "velocity": 65,
        "subtype": "noteOn"
      },
      {
        "deltaTime": 0,
        "channel": 0,
        "type": "channel",
        "noteNumber": 52,
        "velocity": 57,
        "subtype": "noteOn"
      },
      {
        "deltaTime": 0,
        "channel": 0,
        "type": "channel",
        "noteNumber": 55,
        "velocity": 55,
        "subtype": "noteOn"
      },
      {
        "deltaTime": 476,
        "channel": 0,
        "type": "channel",
        "noteNumber": 48,
        "velocity": 0,
        "subtype": "noteOff"
      },
      {
        "deltaTime": 0,
        "channel": 0,
        "type": "channel",
        "noteNumber": 52,
        "velocity": 0,
        "subtype": "noteOff"
      },
      {
        "deltaTime": 0,
        "channel": 0,
        "type": "channel",
        "noteNumber": 55,
        "velocity": 0,
        "subtype": "noteOff"
      },
      {
        "deltaTime": 4,
        "channel": 0,
        "type": "channel",
        "noteNumber": 48,
        "velocity": 65,
        "subtype": "noteOn"
      },
      {
        "deltaTime": 0,
        "channel": 0,
        "type": "channel",
        "noteNumber": 52,
        "velocity": 54,
        "subtype": "noteOn"
      },
      {
        "deltaTime": 0,
        "channel": 0,
        "type": "channel",
        "noteNumber": 55,
        "velocity": 54,
        "subtype": "noteOn"
      },
      {
        "deltaTime": 476,
        "channel": 0,
        "type": "channel",
        "noteNumber": 48,
        "velocity": 0,
        "subtype": "noteOff"
      },
      {
        "deltaTime": 0,
        "channel": 0,
        "type": "channel",
        "noteNumber": 52,
        "velocity": 0,
        "subtype": "noteOff"
      },
      {
        "deltaTime": 0,
        "channel": 0,
        "type": "channel",
        "noteNumber": 55,
        "velocity": 0,
        "subtype": "noteOff"
      },
      {
        "deltaTime": 4,
        "channel": 0,
        "type": "channel",
        "noteNumber": 48,
        "velocity": 62,
        "subtype": "noteOn"
      },
      {
        "deltaTime": 0,
        "channel": 0,
        "type": "channel",
        "noteNumber": 52,
        "velocity": 61,
        "subtype": "noteOn"
      },
      {
        "deltaTime": 0,
        "channel": 0,
        "type": "channel",
        "noteNumber": 55,
        "velocity": 58,
        "subtype": "noteOn"
      },
      {
        "deltaTime": 476,
        "channel": 0,
        "type": "channel",
        "noteNumber": 48,
        "velocity": 0,
        "subtype": "noteOff"
      },
      {
        "deltaTime": 0,
        "channel": 0,
        "type": "channel",
        "noteNumber": 52,
        "velocity": 0,
        "subtype": "noteOff"
      },
      {
        "deltaTime": 0,
        "channel": 0,
        "type": "channel",
        "noteNumber": 55,
        "velocity": 0,
        "subtype": "noteOff"
      },
      {
        "deltaTime": 4,
        "channel": 0,
        "type": "channel",
        "noteNumber": 45,
        "velocity": 62,
        "subtype": "noteOn"
      },
      {
        "deltaTime": 0,
        "channel": 0,
        "type": "channel",
        "noteNumber": 48,
        "velocity": 64,
        "subtype": "noteOn"
      },
      {
        "deltaTime": 0,
        "channel": 0,
        "type": "channel",
        "noteNumber": 55,
        "velocity": 61,
        "subtype": "noteOn"
      },
      {
        "deltaTime": 476,
        "channel": 0,
        "type": "channel",
        "noteNumber": 45,
        "velocity": 0,
        "subtype": "noteOff"
      },
      {
        "deltaTime": 0,
        "channel": 0,
        "type": "channel",
        "noteNumber": 48,
        "velocity": 0,
        "subtype": "noteOff"
      },
      {
        "deltaTime": 0,
        "channel": 0,
        "type": "channel",
        "noteNumber": 55,
        "velocity": 0,
        "subtype": "noteOff"
      },
      {
        "deltaTime": 4,
        "channel": 0,
        "type": "channel",
        "noteNumber": 45,
        "velocity": 60,
        "subtype": "noteOn"
      },
      {
        "deltaTime": 0,
        "channel": 0,
        "type": "channel",
        "noteNumber": 48,
        "velocity": 59,
        "subtype": "noteOn"
      },
      {
        "deltaTime": 0,
        "channel": 0,
        "type": "channel",
        "noteNumber": 55,
        "velocity": 54,
        "subtype": "noteOn"
      },
      {
        "deltaTime": 476,
        "channel": 0,
        "type": "channel",
        "noteNumber": 45,
        "velocity": 0,
        "subtype": "noteOff"
      },
      {
        "deltaTime": 0,
        "channel": 0,
        "type": "channel",
        "noteNumber": 48,
        "velocity": 0,
        "subtype": "noteOff"
      },
      {
        "deltaTime": 0,
        "channel": 0,
        "type": "channel",
        "noteNumber": 55,
        "velocity": 0,
        "subtype": "noteOff"
      },
      {
        "deltaTime": 4,
        "channel": 0,
        "type": "channel",
        "noteNumber": 48,
        "velocity": 66,
        "subtype": "noteOn"
      },
      {
        "deltaTime": 0,
        "channel": 0,
        "type": "channel",
        "noteNumber": 53,
        "velocity": 66,
        "subtype": "noteOn"
      },
      {
        "deltaTime": 0,
        "channel": 0,
        "type": "channel",
        "noteNumber": 57,
        "velocity": 64,
        "subtype": "noteOn"
      },
      {
        "deltaTime": 716,
        "channel": 0,
        "type": "channel",
        "noteNumber": 48,
        "velocity": 0,
        "subtype": "noteOff"
      },
      {
        "deltaTime": 0,
        "channel": 0,
        "type": "channel",
        "noteNumber": 53,
        "velocity": 0,
        "subtype": "noteOff"
      },
      {
        "deltaTime": 0,
        "channel": 0,
        "type": "channel",
        "noteNumber": 57,
        "velocity": 0,
        "subtype": "noteOff"
      },
      {
        "deltaTime": 4,
        "channel": 0,
        "type": "channel",
        "noteNumber": 48,
        "velocity": 64,
        "subtype": "noteOn"
      },
      {
        "deltaTime": 0,
        "channel": 0,
        "type": "channel",
        "noteNumber": 52,
        "velocity": 55,
        "subtype": "noteOn"
      },
      {
        "deltaTime": 0,
        "channel": 0,
        "type": "channel",
        "noteNumber": 55,
        "velocity": 64,
        "subtype": "noteOn"
      },
      {
        "deltaTime": 716,
        "channel": 0,
        "type": "channel",
        "noteNumber": 48,
        "velocity": 0,
        "subtype": "noteOff"
      },
      {
        "deltaTime": 0,
        "channel": 0,
        "type": "channel",
        "noteNumber": 52,
        "velocity": 0,
        "subtype": "noteOff"
      },
      {
        "deltaTime": 0,
        "channel": 0,
        "type": "channel",
        "noteNumber": 55,
        "velocity": 0,
        "subtype": "noteOff"
      },
      {
        "deltaTime": 4,
        "channel": 0,
        "type": "channel",
        "noteNumber": 48,
        "velocity": 66,
        "subtype": "noteOn"
      },
      {
        "deltaTime": 0,
        "channel": 0,
        "type": "channel",
        "noteNumber": 52,
        "velocity": 61,
        "subtype": "noteOn"
      },
      {
        "deltaTime": 0,
        "channel": 0,
        "type": "channel",
        "noteNumber": 55,
        "velocity": 56,
        "subtype": "noteOn"
      },
      {
        "deltaTime": 476,
        "channel": 0,
        "type": "channel",
        "noteNumber": 48,
        "velocity": 0,
        "subtype": "noteOff"
      },
      {
        "deltaTime": 0,
        "channel": 0,
        "type": "channel",
        "noteNumber": 52,
        "velocity": 0,
        "subtype": "noteOff"
      },
      {
        "deltaTime": 0,
        "channel": 0,
        "type": "channel",
        "noteNumber": 55,
        "velocity": 0,
        "subtype": "noteOff"
      },
      {
        "deltaTime": 4,
        "channel": 0,
        "type": "channel",
        "noteNumber": 48,
        "velocity": 63,
        "subtype": "noteOn"
      },
      {
        "deltaTime": 0,
        "channel": 0,
        "type": "channel",
        "noteNumber": 52,
        "velocity": 52,
        "subtype": "noteOn"
      },
      {
        "deltaTime": 0,
        "channel": 0,
        "type": "channel",
        "noteNumber": 55,
        "velocity": 50,
        "subtype": "noteOn"
      },
      {
        "deltaTime": 476,
        "channel": 0,
        "type": "channel",
        "noteNumber": 48,
        "velocity": 0,
        "subtype": "noteOff"
      },
      {
        "deltaTime": 0,
        "channel": 0,
        "type": "channel",
        "noteNumber": 52,
        "velocity": 0,
        "subtype": "noteOff"
      },
      {
        "deltaTime": 0,
        "channel": 0,
        "type": "channel",
        "noteNumber": 55,
        "velocity": 0,
        "subtype": "noteOff"
      },
      {
        "deltaTime": 4,
        "channel": 0,
        "type": "channel",
        "noteNumber": 48,
        "velocity": 62,
        "subtype": "noteOn"
      },
      {
        "deltaTime": 0,
        "channel": 0,
        "type": "channel",
        "noteNumber": 52,
        "velocity": 54,
        "subtype": "noteOn"
      },
      {
        "deltaTime": 0,
        "channel": 0,
        "type": "channel",
        "noteNumber": 55,
        "velocity": 51,
        "subtype": "noteOn"
      },
      {
        "deltaTime": 476,
        "channel": 0,
        "type": "channel",
        "noteNumber": 48,
        "velocity": 0,
        "subtype": "noteOff"
      },
      {
        "deltaTime": 0,
        "channel": 0,
        "type": "channel",
        "noteNumber": 52,
        "velocity": 0,
        "subtype": "noteOff"
      },
      {
        "deltaTime": 0,
        "channel": 0,
        "type": "channel",
        "noteNumber": 55,
        "velocity": 0,
        "subtype": "noteOff"
      },
      {
        "deltaTime": 4,
        "channel": 0,
        "type": "channel",
        "noteNumber": 45,
        "velocity": 57,
        "subtype": "noteOn"
      },
      {
        "deltaTime": 0,
        "channel": 0,
        "type": "channel",
        "noteNumber": 48,
        "velocity": 61,
        "subtype": "noteOn"
      },
      {
        "deltaTime": 0,
        "channel": 0,
        "type": "channel",
        "noteNumber": 55,
        "velocity": 56,
        "subtype": "noteOn"
      },
      {
        "deltaTime": 480,
        "channel": 0,
        "type": "channel",
        "noteNumber": 45,
        "velocity": 0,
        "subtype": "noteOff"
      },
      {
        "deltaTime": 0,
        "channel": 0,
        "type": "channel",
        "noteNumber": 45,
        "velocity": 57,
        "subtype": "noteOn"
      },
      {
        "deltaTime": 0,
        "channel": 0,
        "type": "channel",
        "noteNumber": 48,
        "velocity": 0,
        "subtype": "noteOff"
      },
      {
        "deltaTime": 0,
        "channel": 0,
        "type": "channel",
        "noteNumber": 48,
        "velocity": 61,
        "subtype": "noteOn"
      },
      {
        "deltaTime": 0,
        "channel": 0,
        "type": "channel",
        "noteNumber": 55,
        "velocity": 0,
        "subtype": "noteOff"
      },
      {
        "deltaTime": 0,
        "channel": 0,
        "type": "channel",
        "noteNumber": 55,
        "velocity": 56,
        "subtype": "noteOn"
      },
      {
        "deltaTime": 476,
        "channel": 0,
        "type": "channel",
        "noteNumber": 45,
        "velocity": 0,
        "subtype": "noteOff"
      },
      {
        "deltaTime": 0,
        "channel": 0,
        "type": "channel",
        "noteNumber": 48,
        "velocity": 0,
        "subtype": "noteOff"
      },
      {
        "deltaTime": 0,
        "channel": 0,
        "type": "channel",
        "noteNumber": 55,
        "velocity": 0,
        "subtype": "noteOff"
      },
      {
        "deltaTime": 4,
        "channel": 0,
        "type": "channel",
        "noteNumber": 48,
        "velocity": 68,
        "subtype": "noteOn"
      },
      {
        "deltaTime": 0,
        "channel": 0,
        "type": "channel",
        "noteNumber": 53,
        "velocity": 63,
        "subtype": "noteOn"
      },
      {
        "deltaTime": 0,
        "channel": 0,
        "type": "channel",
        "noteNumber": 57,
        "velocity": 63,
        "subtype": "noteOn"
      },
      {
        "deltaTime": 716,
        "channel": 0,
        "type": "channel",
        "noteNumber": 48,
        "velocity": 0,
        "subtype": "noteOff"
      },
      {
        "deltaTime": 0,
        "channel": 0,
        "type": "channel",
        "noteNumber": 53,
        "velocity": 0,
        "subtype": "noteOff"
      },
      {
        "deltaTime": 0,
        "channel": 0,
        "type": "channel",
        "noteNumber": 57,
        "velocity": 0,
        "subtype": "noteOff"
      },
      {
        "deltaTime": 4,
        "channel": 0,
        "type": "channel",
        "noteNumber": 48,
        "velocity": 65,
        "subtype": "noteOn"
      },
      {
        "deltaTime": 0,
        "channel": 0,
        "type": "channel",
        "noteNumber": 52,
        "velocity": 50,
        "subtype": "noteOn"
      },
      {
        "deltaTime": 0,
        "channel": 0,
        "type": "channel",
        "noteNumber": 55,
        "velocity": 57,
        "subtype": "noteOn"
      },
      {
        "deltaTime": 716,
        "channel": 0,
        "type": "channel",
        "noteNumber": 48,
        "velocity": 0,
        "subtype": "noteOff"
      },
      {
        "deltaTime": 0,
        "channel": 0,
        "type": "channel",
        "noteNumber": 52,
        "velocity": 0,
        "subtype": "noteOff"
      },
      {
        "deltaTime": 0,
        "channel": 0,
        "type": "channel",
        "noteNumber": 55,
        "velocity": 0,
        "subtype": "noteOff"
      },
      {
        "deltaTime": 4,
        "channel": 0,
        "type": "channel",
        "noteNumber": 48,
        "velocity": 59,
        "subtype": "noteOn"
      },
      {
        "deltaTime": 0,
        "channel": 0,
        "type": "channel",
        "noteNumber": 52,
        "velocity": 59,
        "subtype": "noteOn"
      },
      {
        "deltaTime": 0,
        "channel": 0,
        "type": "channel",
        "noteNumber": 55,
        "velocity": 64,
        "subtype": "noteOn"
      },
      {
        "deltaTime": 476,
        "channel": 0,
        "type": "channel",
        "noteNumber": 48,
        "velocity": 0,
        "subtype": "noteOff"
      },
      {
        "deltaTime": 0,
        "channel": 0,
        "type": "channel",
        "noteNumber": 52,
        "velocity": 0,
        "subtype": "noteOff"
      },
      {
        "deltaTime": 0,
        "channel": 0,
        "type": "channel",
        "noteNumber": 55,
        "velocity": 0,
        "subtype": "noteOff"
      },
      {
        "deltaTime": 4,
        "channel": 0,
        "type": "channel",
        "noteNumber": 48,
        "velocity": 64,
        "subtype": "noteOn"
      },
      {
        "deltaTime": 0,
        "channel": 0,
        "type": "channel",
        "noteNumber": 52,
        "velocity": 53,
        "subtype": "noteOn"
      },
      {
        "deltaTime": 0,
        "channel": 0,
        "type": "channel",
        "noteNumber": 55,
        "velocity": 55,
        "subtype": "noteOn"
      },
      {
        "deltaTime": 476,
        "channel": 0,
        "type": "channel",
        "noteNumber": 48,
        "velocity": 0,
        "subtype": "noteOff"
      },
      {
        "deltaTime": 0,
        "channel": 0,
        "type": "channel",
        "noteNumber": 52,
        "velocity": 0,
        "subtype": "noteOff"
      },
      {
        "deltaTime": 0,
        "channel": 0,
        "type": "channel",
        "noteNumber": 55,
        "velocity": 0,
        "subtype": "noteOff"
      },
      {
        "deltaTime": 4,
        "channel": 0,
        "type": "channel",
        "noteNumber": 52,
        "velocity": 63,
        "subtype": "noteOn"
      },
      {
        "deltaTime": 0,
        "channel": 0,
        "type": "channel",
        "noteNumber": 56,
        "velocity": 55,
        "subtype": "noteOn"
      },
      {
        "deltaTime": 0,
        "channel": 0,
        "type": "channel",
        "noteNumber": 59,
        "velocity": 60,
        "subtype": "noteOn"
      },
      {
        "deltaTime": 476,
        "channel": 0,
        "type": "channel",
        "noteNumber": 52,
        "velocity": 0,
        "subtype": "noteOff"
      },
      {
        "deltaTime": 0,
        "channel": 0,
        "type": "channel",
        "noteNumber": 56,
        "velocity": 0,
        "subtype": "noteOff"
      },
      {
        "deltaTime": 0,
        "channel": 0,
        "type": "channel",
        "noteNumber": 59,
        "velocity": 0,
        "subtype": "noteOff"
      },
      {
        "deltaTime": 4,
        "channel": 0,
        "type": "channel",
        "noteNumber": 57,
        "velocity": 53,
        "subtype": "noteOn"
      },
      {
        "deltaTime": 0,
        "channel": 0,
        "type": "channel",
        "noteNumber": 60,
        "velocity": 54,
        "subtype": "noteOn"
      },
      {
        "deltaTime": 0,
        "channel": 0,
        "type": "channel",
        "noteNumber": 64,
        "velocity": 59,
        "subtype": "noteOn"
      },
      {
        "deltaTime": 956,
        "channel": 0,
        "type": "channel",
        "noteNumber": 57,
        "velocity": 0,
        "subtype": "noteOff"
      },
      {
        "deltaTime": 0,
        "channel": 0,
        "type": "channel",
        "noteNumber": 60,
        "velocity": 0,
        "subtype": "noteOff"
      },
      {
        "deltaTime": 0,
        "channel": 0,
        "type": "channel",
        "noteNumber": 64,
        "velocity": 0,
        "subtype": "noteOff"
      },
      {
        "deltaTime": 4,
        "channel": 0,
        "type": "channel",
        "noteNumber": 53,
        "velocity": 60,
        "subtype": "noteOn"
      },
      {
        "deltaTime": 0,
        "channel": 0,
        "type": "channel",
        "noteNumber": 57,
        "velocity": 51,
        "subtype": "noteOn"
      },
      {
        "deltaTime": 0,
        "channel": 0,
        "type": "channel",
        "noteNumber": 60,
        "velocity": 60,
        "subtype": "noteOn"
      },
      {
        "deltaTime": 716,
        "channel": 0,
        "type": "channel",
        "noteNumber": 53,
        "velocity": 0,
        "subtype": "noteOff"
      },
      {
        "deltaTime": 0,
        "channel": 0,
        "type": "channel",
        "noteNumber": 57,
        "velocity": 0,
        "subtype": "noteOff"
      },
      {
        "deltaTime": 0,
        "channel": 0,
        "type": "channel",
        "noteNumber": 60,
        "velocity": 0,
        "subtype": "noteOff"
      },
      {
        "deltaTime": 4,
        "channel": 0,
        "type": "channel",
        "noteNumber": 48,
        "velocity": 68,
        "subtype": "noteOn"
      },
      {
        "deltaTime": 0,
        "channel": 0,
        "type": "channel",
        "noteNumber": 52,
        "velocity": 53,
        "subtype": "noteOn"
      },
      {
        "deltaTime": 0,
        "channel": 0,
        "type": "channel",
        "noteNumber": 55,
        "velocity": 64,
        "subtype": "noteOn"
      },
      {
        "deltaTime": 2156,
        "channel": 0,
        "type": "channel",
        "noteNumber": 48,
        "velocity": 0,
        "subtype": "noteOff"
      },
      {
        "deltaTime": 0,
        "channel": 0,
        "type": "channel",
        "noteNumber": 52,
        "velocity": 0,
        "subtype": "noteOff"
      },
      {
        "deltaTime": 0,
        "channel": 0,
        "type": "channel",
        "noteNumber": 55,
        "velocity": 0,
        "subtype": "noteOff"
      },
      {
        "deltaTime": 0,
        "type": "meta",
        "subtype": "endOfTrack"
      }
    ]
  ]
}
// console.log(staywithme.tracks[2]);
var i = 0;
var background = staywithme.tracks[2].slice(2);

console.log("_________");
for(var i = 0; i< background.length; i++) {
	// console.log(background[i]);
	var note = background[i].noteNumber;
	var isOn = background[i].subtype === 'noteOn';
	var delay = background[i].deltaTime;
	var duration = durationOfNote(i, note);

	console.log(note, isOn, delay, duration);


}

var durationOfNote = function(starting, note) {

	for(var i = starting+1 ; i<background.length; i++) {
		if( background[i].subtype === 'noteOff' && note === background[i].noteNumber) return background[i].deltaTime;
	}
}



















